{"glyphs":{"0":{"ha":779,"x_min":39,"x_max":740,"o":"m 376 -11 q 240 1 301 -11 q 133 47 178 13 q 63 147 88 81 q 39 321 39 213 q 67 499 39 432 q 145 599 96 565 q 260 642 194 632 q 401 653 326 653 q 540 641 478 653 q 647 595 601 629 q 716 495 692 561 q 740 321 740 429 q 712 143 740 210 q 634 43 683 76 q 519 -1 585 10 q 376 -11 453 -11 m 390 90 q 444 98 421 90 q 484 130 468 106 q 510 200 500 154 q 519 321 519 246 q 510 444 519 397 q 485 514 501 490 q 444 545 468 538 q 390 553 419 553 q 338 544 361 553 q 297 513 314 536 q 272 443 281 489 q 263 321 263 397 q 272 200 263 246 q 297 130 281 154 q 338 98 314 106 q 390 90 361 90 z "},"1":{"ha":497,"x_min":25,"x_max":429,"o":"m 199 0 l 199 465 q 184 520 199 504 q 140 536 169 536 q 89 532 115 536 q 25 519 63 528 l 25 621 q 143 633 86 628 q 249 639 200 639 q 357 626 317 639 q 413 583 397 613 q 429 504 429 554 l 429 0 l 199 0 z "},"2":{"ha":774,"x_min":46,"x_max":733,"o":"m 46 0 q 46 66 46 33 q 46 132 46 99 q 55 253 46 206 q 91 326 64 300 q 169 362 118 351 q 301 372 219 372 q 365 372 340 372 q 426 372 389 372 q 498 385 468 372 q 528 444 528 399 q 505 499 528 485 q 447 515 482 513 q 392 517 417 517 q 325 518 367 518 q 233 515 272 518 q 169 508 193 513 q 133 503 158 507 q 84 494 108 499 q 50 481 60 489 q 50 511 50 493 q 50 544 50 529 q 50 560 50 560 q 71 599 50 583 q 133 624 92 614 q 233 638 174 633 q 367 642 292 642 q 554 631 474 642 q 679 577 635 619 q 724 443 724 535 q 692 312 724 354 q 604 256 660 269 q 478 243 549 243 q 430 243 457 243 q 360 243 403 243 q 298 235 321 243 q 266 210 275 226 q 257 164 257 193 l 257 121 l 733 121 l 733 0 l 46 0 z "},"3":{"ha":753,"x_min":28,"x_max":714,"o":"m 361 -7 q 258 -5 308 -7 q 163 2 207 -3 q 82 18 118 7 q 41 43 54 26 q 28 88 28 60 l 28 154 q 178 126 97 135 q 331 117 258 117 q 425 124 390 117 q 476 150 460 132 q 493 199 493 168 q 484 242 493 228 q 460 261 475 257 q 426 265 444 265 l 125 265 l 125 385 l 431 385 q 470 399 457 385 q 483 444 483 414 q 469 490 483 475 q 426 511 454 506 q 358 517 399 517 q 333 517 346 517 q 307 517 321 517 q 222 513 271 517 q 126 500 172 508 q 47 481 79 492 l 47 549 q 64 598 47 581 q 114 624 81 615 q 210 635 139 629 q 369 642 281 642 q 567 628 496 642 q 667 573 638 614 q 696 453 696 532 q 676 373 696 406 q 615 335 657 340 l 615 333 q 692 299 669 333 q 714 193 714 265 q 678 67 714 110 q 566 8 643 24 q 361 -7 489 -7 z "},"4":{"ha":815,"x_min":21,"x_max":783,"o":"m 467 0 l 467 122 l 21 122 l 21 235 l 438 583 q 503 615 463 603 q 589 633 543 626 q 676 639 635 639 q 674 620 675 636 q 673 588 674 604 q 672 567 672 572 l 672 240 l 783 240 l 783 122 l 672 122 l 672 0 l 467 0 m 249 240 l 467 240 l 467 447 l 463 442 l 258 246 l 249 240 z "},"5":{"ha":772,"x_min":42,"x_max":732,"o":"m 732 207 q 717 100 732 142 q 666 35 703 58 q 567 2 629 11 q 408 -7 504 -7 q 213 -1 293 -7 q 100 15 132 6 q 61 31 74 22 q 45 59 49 40 q 43 115 42 78 l 43 156 q 207 128 121 138 q 372 118 293 118 q 464 126 425 118 q 523 154 503 133 q 543 213 543 175 q 535 261 543 244 q 508 285 528 278 q 453 294 488 293 q 350 299 406 299 q 240 297 294 299 q 139 291 185 294 q 65 283 93 288 l 65 639 l 718 639 l 718 521 l 246 521 l 246 413 q 328 413 282 413 q 420 413 374 413 q 506 411 467 413 q 565 407 544 410 q 669 374 633 399 q 719 308 706 350 q 732 207 732 267 z "},"6":{"ha":756,"x_min":40,"x_max":718,"o":"m 375 -6 q 196 3 263 -6 q 96 44 129 13 q 51 138 63 75 q 40 308 40 201 q 49 469 40 407 q 83 565 58 531 q 154 615 108 600 q 274 635 200 631 q 362 638 313 638 q 450 636 411 639 q 540 629 500 635 q 614 617 581 624 q 662 605 643 615 q 684 571 681 594 q 671 504 688 547 q 573 513 628 510 q 461 519 518 517 q 350 521 404 521 q 288 514 315 521 q 244 490 260 507 q 221 443 228 474 q 219 422 221 436 q 217 395 218 408 q 215 378 215 382 q 285 392 240 386 q 381 403 329 399 q 485 407 433 407 q 578 400 535 406 q 652 376 621 394 q 701 321 683 358 q 718 218 718 283 q 703 108 718 151 q 649 40 688 64 q 543 5 610 15 q 375 -6 476 -6 m 376 108 q 460 114 424 108 q 519 142 497 119 q 540 210 540 164 q 525 266 540 249 q 483 289 510 283 q 421 296 456 294 q 369 297 397 297 q 312 295 340 296 q 258 293 283 294 q 215 290 233 292 q 216 262 215 281 q 217 224 217 243 q 219 193 218 206 q 244 138 225 156 q 295 114 263 119 q 376 108 328 108 z "},"7":{"ha":685,"x_min":19,"x_max":683,"o":"m 104 0 l 446 519 l 19 519 l 19 638 l 569 638 q 660 603 636 638 q 646 510 683 568 q 597 431 629 479 q 526 326 565 383 q 445 208 486 268 q 368 94 404 147 q 307 0 332 40 l 104 0 z "},"8":{"ha":782,"x_min":40,"x_max":743,"o":"m 389 -6 q 203 4 274 -6 q 98 35 133 14 q 51 94 63 57 q 40 185 40 131 q 69 288 40 246 q 154 338 99 331 q 85 381 108 343 q 61 474 61 419 q 90 575 61 539 q 190 627 118 611 q 388 643 261 643 q 554 635 489 643 q 656 607 619 626 q 706 555 692 588 q 721 474 721 522 q 697 381 721 419 q 628 339 674 343 q 714 288 685 331 q 743 185 743 246 q 731 96 743 132 q 683 37 719 60 q 576 4 647 14 q 389 -6 506 -6 m 360 107 l 415 107 q 521 124 492 107 q 550 192 550 142 q 540 247 550 228 q 500 273 529 267 q 415 279 471 279 l 360 279 q 275 273 304 279 q 236 247 246 267 q 226 192 226 228 q 255 124 226 142 q 360 107 283 107 m 388 399 q 473 403 442 399 q 517 425 504 408 q 531 474 531 442 q 518 517 531 501 q 474 540 506 533 q 388 546 443 546 q 300 540 331 546 q 257 517 269 533 q 244 474 244 501 q 257 425 244 442 q 301 403 269 408 q 388 399 332 399 z "},"9":{"ha":756,"x_min":36,"x_max":714,"o":"m 67 126 q 186 116 113 121 q 340 111 260 111 q 465 119 424 111 q 521 146 507 126 q 538 197 535 165 q 538 218 538 207 q 539 240 539 229 q 539 256 539 250 q 510 251 526 254 q 475 246 494 249 q 389 231 436 238 q 271 225 342 225 q 96 267 156 225 q 36 419 36 310 q 67 560 36 511 q 172 626 97 608 q 381 644 247 644 q 563 634 496 644 q 662 592 629 624 q 704 498 694 561 q 714 332 714 435 q 706 178 714 239 q 678 82 699 117 q 621 30 657 47 q 528 6 585 13 q 424 -2 475 0 q 328 -4 374 -4 q 233 -2 278 -4 q 150 1 189 0 q 83 26 106 7 q 64 85 60 44 l 67 126 m 536 351 q 536 402 536 378 q 535 447 536 426 q 519 499 533 481 q 470 524 504 517 q 376 531 436 531 q 279 522 315 531 q 228 492 243 513 q 213 433 213 472 q 223 378 213 399 q 260 351 233 358 q 332 343 286 343 q 421 344 378 343 q 495 348 464 346 q 536 351 526 350 z "}," ":{"ha":392,"x_min":0,"x_max":0,"o":""}," ":{"ha":392,"x_min":0,"x_max":0,"o":""},"A":{"ha":846,"x_min":4,"x_max":831,"o":"m 4 0 l 225 531 q 289 615 247 585 q 419 644 331 644 q 539 617 493 644 q 608 531 585 589 l 831 0 l 583 0 l 524 143 l 235 143 l 179 0 l 4 0 m 271 231 l 482 231 l 407 425 q 397 445 403 436 q 378 454 392 454 q 356 445 363 454 q 346 425 350 436 l 271 231 z "},"Æ":{"ha":1233,"x_min":33,"x_max":1207,"o":"m 33 0 q 126 122 85 68 q 202 224 167 176 q 274 320 238 271 q 355 426 311 369 q 454 556 399 483 q 519 613 486 596 q 585 635 551 631 q 653 639 619 639 l 1207 639 q 1207 576 1207 607 q 1207 513 1207 544 l 749 513 l 749 388 l 1163 388 l 1163 261 q 956 261 1060 261 q 749 261 853 261 l 749 126 l 1207 126 l 1207 0 q 868 0 1038 0 q 529 0 699 0 l 529 132 l 285 132 q 238 66 261 99 q 190 0 214 33 l 33 0 m 361 224 q 445 224 403 224 q 529 224 488 224 q 529 336 529 281 q 529 449 529 392 q 522 441 525 444 q 515 433 518 438 q 499 426 506 433 q 486 408 493 418 q 424 317 456 363 q 361 224 393 271 z "},"Ǽ":{"ha":1233,"x_min":33,"x_max":1207,"o":"m 33 0 q 126 122 85 68 q 202 224 167 176 q 274 320 238 271 q 355 426 311 369 q 454 556 399 483 q 519 613 486 596 q 585 635 551 631 q 653 639 619 639 l 1207 639 q 1207 576 1207 607 q 1207 513 1207 544 l 749 513 l 749 388 l 1163 388 l 1163 261 q 956 261 1060 261 q 749 261 853 261 l 749 126 l 1207 126 l 1207 0 q 868 0 1038 0 q 529 0 699 0 l 529 132 l 285 132 q 238 66 261 99 q 190 0 214 33 l 33 0 m 361 224 q 445 224 403 224 q 529 224 488 224 q 529 336 529 281 q 529 449 529 392 q 522 441 525 444 q 515 433 518 438 q 499 426 506 433 q 486 408 493 418 q 424 317 456 363 q 361 224 393 271 m 740 724 l 929 903 l 1024 849 l 825 724 l 740 724 z "},"Á":{"ha":846,"x_min":4,"x_max":831,"o":"m 4 0 l 225 531 q 289 615 247 585 q 419 644 331 644 q 539 617 493 644 q 608 531 585 589 l 831 0 l 583 0 l 524 143 l 235 143 l 179 0 l 4 0 m 271 231 l 482 231 l 407 425 q 397 445 403 436 q 378 454 392 454 q 356 445 363 454 q 346 425 350 436 l 271 231 m 349 724 l 508 881 l 601 825 l 433 724 l 349 724 z "},"Ă":{"ha":846,"x_min":4,"x_max":831,"o":"m 4 0 l 225 531 q 289 615 247 585 q 419 644 331 644 q 539 617 493 644 q 608 531 585 589 l 831 0 l 583 0 l 524 143 l 235 143 l 179 0 l 4 0 m 271 231 l 482 231 l 407 425 q 397 445 403 436 q 378 454 392 454 q 356 445 363 454 q 346 425 350 436 l 271 231 m 418 722 q 324 732 361 722 q 268 774 286 742 q 250 869 250 807 l 250 881 l 329 881 l 329 872 q 335 835 329 853 q 360 808 342 818 q 417 799 379 799 q 474 808 456 799 q 499 835 493 818 q 506 872 506 851 l 506 881 l 583 881 l 583 869 q 566 775 583 807 q 512 733 549 743 q 418 722 475 722 z "},"Ắ":{"ha":846,"x_min":4,"x_max":831,"o":"m 4 0 l 225 531 q 289 615 247 585 q 419 644 331 644 q 539 617 493 644 q 608 531 585 589 l 831 0 l 583 0 l 524 143 l 235 143 l 179 0 l 4 0 m 271 231 l 482 231 l 407 425 q 397 445 403 436 q 378 454 392 454 q 356 445 363 454 q 346 425 350 436 l 271 231 m 418 722 q 324 732 361 722 q 268 774 286 742 q 250 869 250 807 l 250 881 l 329 881 l 329 872 q 335 835 329 853 q 360 808 342 818 q 417 799 379 799 q 474 808 456 799 q 499 835 493 818 q 506 872 506 851 l 506 881 l 583 881 l 583 869 q 566 775 583 807 q 512 733 549 743 q 418 722 475 722 m 349 932 l 508 1089 l 601 1033 l 433 932 l 349 932 z "},"Ặ":{"ha":846,"x_min":4,"x_max":831,"o":"m 4 0 l 225 531 q 289 615 247 585 q 419 644 331 644 q 539 617 493 644 q 608 531 585 589 l 831 0 l 583 0 l 524 143 l 235 143 l 179 0 l 4 0 m 271 231 l 482 231 l 407 425 q 397 445 403 436 q 378 454 392 454 q 356 445 363 454 q 346 425 350 436 l 271 231 m 418 -222 q 365 -218 388 -222 q 328 -200 342 -214 q 315 -156 315 -186 q 346 -99 315 -110 q 421 -87 376 -87 q 492 -99 465 -87 q 518 -156 518 -111 q 506 -200 518 -186 q 471 -218 493 -214 q 418 -222 449 -222 m 418 722 q 324 732 361 722 q 268 774 286 742 q 250 869 250 807 l 250 881 l 329 881 l 329 872 q 335 835 329 853 q 360 808 342 818 q 417 799 379 799 q 474 808 456 799 q 499 835 493 818 q 506 872 506 851 l 506 881 l 583 881 l 583 869 q 566 775 583 807 q 512 733 549 743 q 418 722 475 722 z "},"Ằ":{"ha":846,"x_min":4,"x_max":831,"o":"m 4 0 l 225 531 q 289 615 247 585 q 419 644 331 644 q 539 617 493 644 q 608 531 585 589 l 831 0 l 583 0 l 524 143 l 235 143 l 179 0 l 4 0 m 271 231 l 482 231 l 407 425 q 397 445 403 436 q 378 454 392 454 q 356 445 363 454 q 346 425 350 436 l 271 231 m 418 722 q 324 732 361 722 q 268 774 286 742 q 250 869 250 807 l 250 881 l 329 881 l 329 872 q 335 835 329 853 q 360 808 342 818 q 417 799 379 799 q 474 808 456 799 q 499 835 493 818 q 506 872 506 851 l 506 881 l 583 881 l 583 869 q 566 775 583 807 q 512 733 549 743 q 418 722 475 722 m 419 932 l 253 1033 l 346 1089 l 506 932 l 419 932 z "},"Ẳ":{"ha":846,"x_min":4,"x_max":831,"o":"m 4 0 l 225 531 q 289 615 247 585 q 419 644 331 644 q 539 617 493 644 q 608 531 585 589 l 831 0 l 583 0 l 524 143 l 235 143 l 179 0 l 4 0 m 271 231 l 482 231 l 407 425 q 397 445 403 436 q 378 454 392 454 q 356 445 363 454 q 346 425 350 436 l 271 231 m 418 722 q 324 732 361 722 q 268 774 286 742 q 250 869 250 807 l 250 881 l 329 881 l 329 872 q 335 835 329 853 q 360 808 342 818 q 417 799 379 799 q 474 808 456 799 q 499 835 493 818 q 506 872 506 851 l 506 881 l 583 881 l 583 869 q 566 775 583 807 q 512 733 549 743 q 418 722 475 722 m 382 932 l 382 949 q 390 972 382 964 q 409 983 399 979 q 427 994 419 988 q 435 1013 435 1000 l 435 1025 q 429 1051 435 1043 q 410 1058 424 1058 q 385 1029 388 1058 l 314 1040 q 343 1097 318 1078 q 417 1117 368 1117 q 499 1098 471 1117 q 526 1031 526 1079 l 526 1026 q 518 990 526 1001 q 497 972 510 978 q 476 959 485 965 q 468 940 468 953 l 468 932 l 382 932 z "},"Ẵ":{"ha":846,"x_min":4,"x_max":831,"o":"m 4 0 l 225 531 q 289 615 247 585 q 419 644 331 644 q 539 617 493 644 q 608 531 585 589 l 831 0 l 583 0 l 524 143 l 235 143 l 179 0 l 4 0 m 271 231 l 482 231 l 407 425 q 397 445 403 436 q 378 454 392 454 q 356 445 363 454 q 346 425 350 436 l 271 231 m 418 722 q 324 732 361 722 q 268 774 286 742 q 250 869 250 807 l 250 881 l 329 881 l 329 872 q 335 835 329 853 q 360 808 342 818 q 417 799 379 799 q 474 808 456 799 q 499 835 493 818 q 506 872 506 851 l 506 881 l 583 881 l 583 869 q 566 775 583 807 q 512 733 549 743 q 418 722 475 722 m 496 933 q 443 947 468 932 q 393 976 418 961 q 340 989 368 992 q 298 973 314 989 q 276 949 282 957 l 239 981 q 246 997 239 982 q 266 1029 253 1011 q 298 1062 279 1047 q 340 1076 317 1076 q 394 1063 368 1078 q 444 1034 419 1049 q 494 1019 469 1019 q 542 1037 525 1019 q 565 1067 558 1054 l 603 1036 q 595 1020 603 1036 q 574 984 588 1004 q 542 949 561 964 q 496 933 522 933 z "},"Â":{"ha":846,"x_min":4,"x_max":831,"o":"m 4 0 l 225 531 q 289 615 247 585 q 419 644 331 644 q 539 617 493 644 q 608 531 585 589 l 831 0 l 583 0 l 524 143 l 235 143 l 179 0 l 4 0 m 271 231 l 482 231 l 407 425 q 397 445 403 436 q 378 454 392 454 q 356 445 363 454 q 346 425 350 436 l 271 231 m 242 724 l 388 881 l 444 881 l 593 724 l 503 724 l 415 797 l 325 724 l 242 724 z "},"Ấ":{"ha":846,"x_min":4,"x_max":831,"o":"m 4 0 l 225 531 q 289 615 247 585 q 419 644 331 644 q 539 617 493 644 q 608 531 585 589 l 831 0 l 583 0 l 524 143 l 235 143 l 179 0 l 4 0 m 271 231 l 482 231 l 407 425 q 397 445 403 436 q 378 454 392 454 q 356 445 363 454 q 346 425 350 436 l 271 231 m 242 724 l 388 881 l 444 881 l 593 724 l 503 724 l 415 797 l 325 724 l 242 724 m 560 858 l 719 1015 l 813 960 l 644 858 l 560 858 z "},"Ậ":{"ha":846,"x_min":4,"x_max":831,"o":"m 4 0 l 225 531 q 289 615 247 585 q 419 644 331 644 q 539 617 493 644 q 608 531 585 589 l 831 0 l 583 0 l 524 143 l 235 143 l 179 0 l 4 0 m 271 231 l 482 231 l 407 425 q 397 445 403 436 q 378 454 392 454 q 356 445 363 454 q 346 425 350 436 l 271 231 m 418 -222 q 365 -218 388 -222 q 328 -200 342 -214 q 315 -156 315 -186 q 346 -99 315 -110 q 421 -87 376 -87 q 492 -99 465 -87 q 518 -156 518 -111 q 506 -200 518 -186 q 471 -218 493 -214 q 418 -222 449 -222 m 242 724 l 388 881 l 444 881 l 593 724 l 503 724 l 415 797 l 325 724 l 242 724 z "},"Ầ":{"ha":846,"x_min":4,"x_max":831,"o":"m 4 0 l 225 531 q 289 615 247 585 q 419 644 331 644 q 539 617 493 644 q 608 531 585 589 l 831 0 l 583 0 l 524 143 l 235 143 l 179 0 l 4 0 m 271 231 l 482 231 l 407 425 q 397 445 403 436 q 378 454 392 454 q 356 445 363 454 q 346 425 350 436 l 271 231 m 242 724 l 388 881 l 444 881 l 593 724 l 503 724 l 415 797 l 325 724 l 242 724 m 631 858 l 464 960 l 557 1015 l 717 858 l 631 858 z "},"Ẩ":{"ha":846,"x_min":4,"x_max":831,"o":"m 4 0 l 225 531 q 289 615 247 585 q 419 644 331 644 q 539 617 493 644 q 608 531 585 589 l 831 0 l 583 0 l 524 143 l 235 143 l 179 0 l 4 0 m 271 231 l 482 231 l 407 425 q 397 445 403 436 q 378 454 392 454 q 356 445 363 454 q 346 425 350 436 l 271 231 m 242 724 l 388 881 l 444 881 l 593 724 l 503 724 l 415 797 l 325 724 l 242 724 m 543 860 l 543 876 q 551 899 543 892 q 570 911 560 907 q 588 922 581 915 q 596 940 596 928 l 596 953 q 590 978 596 971 q 571 986 585 986 q 546 957 549 986 l 475 968 q 504 1025 479 1006 q 578 1044 529 1044 q 660 1026 632 1044 q 688 958 688 1007 l 688 954 q 679 917 688 929 q 658 899 671 906 q 638 887 646 893 q 629 868 629 881 l 629 860 l 543 860 z "},"Ẫ":{"ha":846,"x_min":4,"x_max":831,"o":"m 4 0 l 225 531 q 289 615 247 585 q 419 644 331 644 q 539 617 493 644 q 608 531 585 589 l 831 0 l 583 0 l 524 143 l 235 143 l 179 0 l 4 0 m 271 231 l 482 231 l 407 425 q 397 445 403 436 q 378 454 392 454 q 356 445 363 454 q 346 425 350 436 l 271 231 m 242 724 l 388 881 l 444 881 l 593 724 l 503 724 l 415 797 l 325 724 l 242 724 m 500 907 q 447 920 472 906 q 397 950 422 935 q 344 963 372 965 q 302 947 318 963 q 281 922 286 931 l 243 954 q 250 970 243 956 q 270 1003 257 985 q 302 1035 283 1021 q 344 1050 321 1050 q 398 1037 372 1051 q 449 1008 424 1022 q 499 993 474 993 q 546 1010 529 993 q 569 1040 563 1028 l 607 1010 q 599 994 607 1010 q 578 958 592 978 q 546 922 565 938 q 500 907 526 907 z "},"Ȁ":{"ha":846,"x_min":4,"x_max":831,"o":"m 4 0 l 225 531 q 289 615 247 585 q 419 644 331 644 q 539 617 493 644 q 608 531 585 589 l 831 0 l 583 0 l 524 143 l 235 143 l 179 0 l 4 0 m 271 231 l 482 231 l 407 425 q 397 445 403 436 q 378 454 392 454 q 356 445 363 454 q 346 425 350 436 l 271 231 m 324 724 l 156 849 l 264 903 l 408 724 l 324 724 m 475 724 l 342 882 l 450 935 l 551 724 l 475 724 z "},"Ä":{"ha":846,"x_min":4,"x_max":831,"o":"m 4 0 l 225 531 q 289 615 247 585 q 419 644 331 644 q 539 617 493 644 q 608 531 585 589 l 831 0 l 583 0 l 524 143 l 235 143 l 179 0 l 4 0 m 271 231 l 482 231 l 407 425 q 397 445 403 436 q 378 454 392 454 q 356 445 363 454 q 346 425 350 436 l 271 231 m 544 722 q 490 731 511 722 q 468 779 468 740 q 491 824 468 815 q 547 832 514 832 q 599 822 578 832 q 619 779 619 813 q 599 731 619 740 q 544 722 579 722 m 290 722 q 235 731 257 722 q 214 779 214 740 q 237 824 214 815 q 293 832 260 832 q 344 822 325 832 q 364 779 364 813 q 344 732 364 742 q 290 722 324 722 z "},"Ạ":{"ha":846,"x_min":4,"x_max":831,"o":"m 4 0 l 225 531 q 289 615 247 585 q 419 644 331 644 q 539 617 493 644 q 608 531 585 589 l 831 0 l 583 0 l 524 143 l 235 143 l 179 0 l 4 0 m 271 231 l 482 231 l 407 425 q 397 445 403 436 q 378 454 392 454 q 356 445 363 454 q 346 425 350 436 l 271 231 m 418 -222 q 365 -218 388 -222 q 328 -200 342 -214 q 315 -156 315 -186 q 346 -99 315 -110 q 421 -87 376 -87 q 492 -99 465 -87 q 518 -156 518 -111 q 506 -200 518 -186 q 471 -218 493 -214 q 418 -222 449 -222 z "},"À":{"ha":846,"x_min":4,"x_max":831,"o":"m 4 0 l 225 531 q 289 615 247 585 q 419 644 331 644 q 539 617 493 644 q 608 531 585 589 l 831 0 l 583 0 l 524 143 l 235 143 l 179 0 l 4 0 m 271 231 l 482 231 l 407 425 q 397 445 403 436 q 378 454 392 454 q 356 445 363 454 q 346 425 350 436 l 271 231 m 419 724 l 253 825 l 346 881 l 506 724 l 419 724 z "},"Ả":{"ha":846,"x_min":4,"x_max":831,"o":"m 4 0 l 225 531 q 289 615 247 585 q 419 644 331 644 q 539 617 493 644 q 608 531 585 589 l 831 0 l 583 0 l 524 143 l 235 143 l 179 0 l 4 0 m 271 231 l 482 231 l 407 425 q 397 445 403 436 q 378 454 392 454 q 356 445 363 454 q 346 425 350 436 l 271 231 m 382 724 l 382 740 q 390 763 382 756 q 409 775 399 771 q 427 785 419 779 q 435 804 435 792 l 435 817 q 429 842 435 835 q 410 850 424 850 q 385 821 388 850 l 314 832 q 343 889 318 869 q 417 908 368 908 q 499 890 471 908 q 526 822 526 871 l 526 818 q 518 781 526 793 q 497 763 510 769 q 476 751 485 757 q 468 732 468 744 l 468 724 l 382 724 z "},"Ȃ":{"ha":846,"x_min":4,"x_max":831,"o":"m 4 0 l 225 531 q 289 615 247 585 q 419 644 331 644 q 539 617 493 644 q 608 531 585 589 l 831 0 l 583 0 l 524 143 l 235 143 l 179 0 l 4 0 m 271 231 l 482 231 l 407 425 q 397 445 403 436 q 378 454 392 454 q 356 445 363 454 q 346 425 350 436 l 271 231 m 250 722 l 250 732 q 268 828 250 796 q 324 870 286 860 q 418 881 361 881 q 512 869 475 881 q 566 827 549 858 q 583 732 583 796 l 583 722 l 506 722 l 506 731 q 499 767 506 750 q 474 793 493 783 q 417 803 456 803 q 361 793 379 803 q 337 767 343 783 q 329 731 331 751 l 329 722 l 250 722 z "},"Ā":{"ha":846,"x_min":4,"x_max":831,"o":"m 4 0 l 225 531 q 289 615 247 585 q 419 644 331 644 q 539 617 493 644 q 608 531 585 589 l 831 0 l 583 0 l 524 143 l 235 143 l 179 0 l 4 0 m 271 231 l 482 231 l 407 425 q 397 445 403 436 q 378 454 392 454 q 356 445 363 454 q 346 425 350 436 l 271 231 m 222 724 l 222 804 l 611 804 l 611 724 l 222 724 z "},"Ą":{"ha":846,"x_min":4,"x_max":831,"o":"m 4 0 l 225 531 q 289 615 247 585 q 419 644 331 644 q 539 617 493 644 q 608 531 585 589 l 831 0 l 583 0 l 524 143 l 235 143 l 179 0 l 4 0 m 271 231 l 482 231 l 407 425 q 397 445 403 436 q 378 454 392 454 q 356 445 363 454 q 346 425 350 436 l 271 231 m 672 -256 q 589 -243 618 -256 q 549 -206 560 -231 q 538 -146 538 -181 q 551 -88 538 -114 q 585 -42 565 -62 q 628 -7 606 -21 q 667 14 650 7 l 761 14 q 728 -3 750 10 q 684 -35 707 -17 q 645 -76 661 -54 q 629 -118 629 -97 q 652 -168 629 -158 q 710 -178 675 -178 q 749 -177 738 -178 q 765 -176 761 -176 q 772 -175 769 -175 q 766 -221 772 -203 q 738 -247 760 -239 q 672 -256 717 -256 z "},"Å":{"ha":846,"x_min":4,"x_max":831,"o":"m 4 0 l 225 531 q 289 615 247 585 q 419 644 331 644 q 539 617 493 644 q 608 531 585 589 l 831 0 l 583 0 l 524 143 l 235 143 l 179 0 l 4 0 m 271 231 l 482 231 l 407 425 q 397 445 403 436 q 378 454 392 454 q 356 445 363 454 q 346 425 350 436 l 271 231 m 417 725 q 344 731 375 725 q 298 757 314 738 q 282 814 282 776 q 298 868 282 850 q 345 892 314 886 q 419 897 376 897 q 494 892 464 897 q 542 868 525 886 q 558 814 558 850 q 542 757 558 776 q 494 731 525 738 q 417 725 463 725 m 419 781 q 463 787 449 781 q 478 811 478 793 q 463 837 478 831 q 419 843 449 843 q 376 837 390 843 q 361 811 361 831 q 375 787 361 793 q 419 781 389 781 z "},"Ǻ":{"ha":846,"x_min":4,"x_max":831,"o":"m 4 0 l 225 531 q 289 615 247 585 q 419 644 331 644 q 539 617 493 644 q 608 531 585 589 l 831 0 l 583 0 l 524 143 l 235 143 l 179 0 l 4 0 m 271 231 l 482 231 l 407 425 q 397 445 403 436 q 378 454 392 454 q 356 445 363 454 q 346 425 350 436 l 271 231 m 417 725 q 344 731 375 725 q 298 757 314 738 q 282 814 282 776 q 298 868 282 850 q 345 892 314 886 q 419 897 376 897 q 494 892 464 897 q 542 868 525 886 q 558 814 558 850 q 542 757 558 776 q 494 731 525 738 q 417 725 463 725 m 419 781 q 463 787 449 781 q 478 811 478 793 q 463 837 478 831 q 419 843 449 843 q 376 837 390 843 q 361 811 361 831 q 375 787 361 793 q 419 781 389 781 m 349 943 l 508 1100 l 601 1044 l 433 943 l 349 943 z "},"Ã":{"ha":846,"x_min":4,"x_max":831,"o":"m 4 0 l 225 531 q 289 615 247 585 q 419 644 331 644 q 539 617 493 644 q 608 531 585 589 l 831 0 l 583 0 l 524 143 l 235 143 l 179 0 l 4 0 m 271 231 l 482 231 l 407 425 q 397 445 403 436 q 378 454 392 454 q 356 445 363 454 q 346 425 350 436 l 271 231 m 496 725 q 443 738 468 724 q 393 768 418 753 q 340 781 368 783 q 298 765 314 781 q 276 740 282 749 l 239 772 q 246 788 239 774 q 266 821 253 803 q 298 853 279 839 q 340 868 317 868 q 394 855 368 869 q 444 826 419 840 q 494 811 469 811 q 542 828 525 811 q 565 858 558 846 l 603 828 q 595 812 603 828 q 574 776 588 796 q 542 740 561 756 q 496 725 522 725 z "},"B":{"ha":897,"x_min":74,"x_max":842,"o":"m 565 -3 q 340 -3 435 -3 q 182 -3 246 -3 q 74 0 118 -3 l 74 575 q 91 627 74 615 q 139 639 108 639 q 241 640 199 639 q 314 641 283 640 q 372 642 344 642 q 432 642 400 642 q 517 641 471 642 q 605 640 564 640 q 664 639 646 640 q 779 597 740 633 q 818 483 818 561 q 799 397 818 428 q 753 352 781 365 q 696 338 725 339 q 759 331 732 338 q 804 308 786 324 q 832 261 822 292 q 842 185 842 231 q 826 85 842 122 q 776 30 810 49 q 690 4 743 11 q 565 -3 638 -3 m 492 106 q 542 107 519 106 q 580 116 564 108 q 605 142 596 124 q 614 194 614 161 q 594 260 614 242 q 514 278 575 278 l 321 278 q 288 303 294 278 q 282 379 282 329 l 507 379 q 549 385 531 379 q 578 409 568 390 q 589 467 589 428 q 574 525 589 506 q 524 546 558 544 q 483 547 506 547 q 438 547 460 547 q 385 547 411 547 q 339 547 360 547 q 312 538 322 547 q 301 508 301 528 l 301 106 q 337 106 324 106 q 365 106 350 106 q 409 106 381 106 q 492 106 438 106 z "},"C":{"ha":843,"x_min":43,"x_max":803,"o":"m 43 319 q 65 480 43 417 q 140 579 88 543 q 281 631 193 615 q 500 646 369 646 q 605 642 556 646 q 708 631 654 639 q 785 603 767 624 q 803 546 803 582 l 803 475 q 709 500 763 490 q 603 515 656 510 q 510 519 550 519 q 376 506 428 519 q 300 449 324 492 q 276 318 276 406 q 300 192 276 235 q 379 133 324 149 q 526 118 435 118 q 609 123 565 118 q 701 136 653 128 q 803 157 749 144 l 803 92 q 783 37 803 58 q 704 7 764 15 q 599 -4 651 -1 q 492 -7 547 -7 q 273 8 360 -7 q 135 58 186 22 q 64 158 85 94 q 43 319 43 221 z "},"Ć":{"ha":843,"x_min":43,"x_max":803,"o":"m 43 319 q 65 480 43 417 q 140 579 88 543 q 281 631 193 615 q 500 646 369 646 q 605 642 556 646 q 708 631 654 639 q 785 603 767 624 q 803 546 803 582 l 803 475 q 709 500 763 490 q 603 515 656 510 q 510 519 550 519 q 376 506 428 519 q 300 449 324 492 q 276 318 276 406 q 300 192 276 235 q 379 133 324 149 q 526 118 435 118 q 609 123 565 118 q 701 136 653 128 q 803 157 749 144 l 803 92 q 783 37 803 58 q 704 7 764 15 q 599 -4 651 -1 q 492 -7 547 -7 q 273 8 360 -7 q 135 58 186 22 q 64 158 85 94 q 43 319 43 221 m 406 724 l 565 881 l 658 825 l 490 724 l 406 724 z "},"Č":{"ha":843,"x_min":43,"x_max":803,"o":"m 299 881 l 382 881 l 474 807 l 560 881 l 650 881 l 501 724 l 444 724 l 299 881 m 43 319 q 65 480 43 417 q 140 579 88 543 q 281 631 193 615 q 500 646 369 646 q 605 642 556 646 q 708 631 654 639 q 785 603 767 624 q 803 546 803 582 l 803 475 q 709 500 763 490 q 603 515 656 510 q 510 519 550 519 q 376 506 428 519 q 300 449 324 492 q 276 318 276 406 q 300 192 276 235 q 379 133 324 149 q 526 118 435 118 q 609 123 565 118 q 701 136 653 128 q 803 157 749 144 l 803 92 q 783 37 803 58 q 704 7 764 15 q 599 -4 651 -1 q 492 -7 547 -7 q 273 8 360 -7 q 135 58 186 22 q 64 158 85 94 q 43 319 43 221 z "},"Ç":{"ha":843,"x_min":43,"x_max":803,"o":"m 43 319 q 65 480 43 417 q 140 579 88 543 q 281 631 193 615 q 500 646 369 646 q 605 642 556 646 q 708 631 654 639 q 785 603 767 624 q 803 546 803 582 l 803 475 q 709 500 763 490 q 603 515 656 510 q 510 519 550 519 q 376 506 428 519 q 300 449 324 492 q 276 318 276 406 q 300 192 276 235 q 379 133 324 149 q 526 118 435 118 q 609 123 565 118 q 701 136 653 128 q 803 157 749 144 l 803 92 q 783 37 803 58 q 704 7 764 15 q 599 -4 651 -1 q 492 -7 547 -7 q 273 8 360 -7 q 135 58 186 22 q 64 158 85 94 q 43 319 43 221 m 422 -249 q 360 -239 374 -249 q 347 -199 347 -229 q 368 -199 351 -199 q 417 -199 385 -199 q 468 -192 454 -199 q 482 -169 482 -186 q 469 -142 482 -147 q 417 -136 456 -136 l 357 -136 q 352 -129 356 -136 q 352 -109 349 -122 q 369 -78 356 -96 q 390 -56 379 -68 q 415 -33 401 -44 q 441 -12 428 -21 q 465 1 454 -3 l 526 1 l 451 -90 q 542 -94 513 -89 q 582 -116 572 -99 q 592 -171 592 -133 q 578 -225 592 -208 q 528 -245 564 -242 q 422 -249 492 -249 z "},"Ĉ":{"ha":843,"x_min":43,"x_max":803,"o":"m 43 319 q 65 480 43 417 q 140 579 88 543 q 281 631 193 615 q 500 646 369 646 q 605 642 556 646 q 708 631 654 639 q 785 603 767 624 q 803 546 803 582 l 803 475 q 709 500 763 490 q 603 515 656 510 q 510 519 550 519 q 376 506 428 519 q 300 449 324 492 q 276 318 276 406 q 300 192 276 235 q 379 133 324 149 q 526 118 435 118 q 609 123 565 118 q 701 136 653 128 q 803 157 749 144 l 803 92 q 783 37 803 58 q 704 7 764 15 q 599 -4 651 -1 q 492 -7 547 -7 q 273 8 360 -7 q 135 58 186 22 q 64 158 85 94 q 43 319 43 221 m 299 724 l 444 881 l 501 881 l 650 724 l 560 724 l 472 797 l 382 724 l 299 724 z "},"Ċ":{"ha":843,"x_min":43,"x_max":803,"o":"m 43 319 q 65 480 43 417 q 140 579 88 543 q 281 631 193 615 q 500 646 369 646 q 605 642 556 646 q 708 631 654 639 q 785 603 767 624 q 803 546 803 582 l 803 475 q 709 500 763 490 q 603 515 656 510 q 510 519 550 519 q 376 506 428 519 q 300 449 324 492 q 276 318 276 406 q 300 192 276 235 q 379 133 324 149 q 526 118 435 118 q 609 123 565 118 q 701 136 653 128 q 803 157 749 144 l 803 92 q 783 37 803 58 q 704 7 764 15 q 599 -4 651 -1 q 492 -7 547 -7 q 273 8 360 -7 q 135 58 186 22 q 64 158 85 94 q 43 319 43 221 m 475 721 q 420 728 442 721 q 399 772 399 736 q 422 815 399 807 q 478 824 444 824 q 529 815 510 824 q 549 772 549 806 q 528 728 549 736 q 475 721 508 721 z "},"D":{"ha":908,"x_min":74,"x_max":867,"o":"m 867 317 q 844 152 867 215 q 773 56 821 89 q 651 10 725 22 q 475 -1 578 -1 q 356 -1 413 -1 q 249 -1 299 -1 q 155 0 199 0 q 74 0 111 0 l 74 547 q 93 617 74 596 q 165 639 113 638 q 244 640 201 639 q 330 640 286 640 q 417 640 374 640 q 499 640 461 640 q 667 626 597 639 q 781 578 736 613 q 846 481 825 544 q 867 317 867 418 m 301 115 q 334 115 315 115 q 374 115 353 115 q 417 114 396 114 q 453 114 438 114 q 536 122 501 114 q 592 153 571 131 q 622 215 613 175 q 632 317 632 256 q 615 449 632 404 q 558 509 597 493 q 447 525 518 525 q 405 525 431 525 q 354 524 379 525 q 311 522 329 524 q 304 506 307 515 q 301 478 301 496 l 301 115 z "},"Ď":{"ha":908,"x_min":74,"x_max":867,"o":"m 293 881 l 376 881 l 468 807 l 554 881 l 644 881 l 496 724 l 439 724 l 293 881 m 867 317 q 844 152 867 215 q 773 56 821 89 q 651 10 725 22 q 475 -1 578 -1 q 356 -1 413 -1 q 249 -1 299 -1 q 155 0 199 0 q 74 0 111 0 l 74 547 q 93 617 74 596 q 165 639 113 638 q 244 640 201 639 q 330 640 286 640 q 417 640 374 640 q 499 640 461 640 q 667 626 597 639 q 781 578 736 613 q 846 481 825 544 q 867 317 867 418 m 301 115 q 334 115 315 115 q 374 115 353 115 q 417 114 396 114 q 453 114 438 114 q 536 122 501 114 q 592 153 571 131 q 622 215 613 175 q 632 317 632 256 q 615 449 632 404 q 558 509 597 493 q 447 525 518 525 q 405 525 431 525 q 354 524 379 525 q 311 522 329 524 q 304 506 307 515 q 301 478 301 496 l 301 115 z "},"Đ":{"ha":908,"x_min":6,"x_max":867,"o":"m 867 317 q 844 152 867 215 q 773 56 821 89 q 651 10 725 22 q 475 -1 578 -1 q 356 -1 413 -1 q 249 -1 299 -1 q 155 0 199 0 q 74 0 111 0 l 74 547 q 93 617 74 596 q 165 639 113 638 q 244 640 201 639 q 330 640 286 640 q 417 640 374 640 q 499 640 461 640 q 667 626 597 639 q 781 578 736 613 q 846 481 825 544 q 867 317 867 418 m 301 115 q 334 115 315 115 q 374 115 353 115 q 417 114 396 114 q 453 114 438 114 q 536 122 501 114 q 592 153 571 131 q 622 215 613 175 q 632 317 632 256 q 615 449 632 404 q 558 509 597 493 q 447 525 518 525 q 405 525 431 525 q 354 524 379 525 q 311 522 329 524 q 304 506 307 515 q 301 478 301 496 l 301 115 m 6 343 l 460 343 l 460 276 l 6 276 l 6 343 z "},"∆":{"ha":810,"x_min":51,"x_max":758,"o":"m 758 0 l 51 0 l 399 781 l 758 0 m 553 104 q 507 215 531 157 q 459 332 483 272 q 411 449 435 392 q 365 560 388 507 l 167 104 l 553 104 z "},"ǅ":{"ha":1554,"x_min":74,"x_max":1535,"o":"m 1058 824 l 1142 824 l 1233 728 l 1321 824 l 1410 824 l 1261 639 l 1204 639 l 1058 824 m 867 317 q 844 152 867 215 q 773 56 821 89 q 651 10 725 22 q 475 -1 578 -1 q 356 -1 413 -1 q 249 -1 299 -1 q 155 0 199 0 q 74 0 111 0 l 74 547 q 93 617 74 596 q 165 639 113 638 q 244 640 201 639 q 330 640 286 640 q 417 640 374 640 q 499 640 461 640 q 667 626 597 639 q 781 578 736 613 q 846 481 825 544 q 867 317 867 418 m 301 115 q 334 115 315 115 q 374 115 353 115 q 417 114 396 114 q 453 114 438 114 q 536 122 501 114 q 592 153 571 131 q 622 215 613 175 q 632 317 632 256 q 615 449 632 404 q 558 509 597 493 q 447 525 518 525 q 405 525 431 525 q 354 524 379 525 q 311 522 329 524 q 304 506 307 515 q 301 478 301 496 l 301 115 m 1199 110 l 1531 110 l 1533 65 q 1518 14 1535 28 q 1463 0 1501 0 l 935 0 l 935 101 l 1238 444 l 947 444 l 947 496 q 963 539 947 524 q 999 554 978 554 l 1519 554 q 1515 501 1526 531 q 1483 442 1503 471 q 1443 390 1463 413 l 1199 110 z "},"E":{"ha":840,"x_min":81,"x_max":797,"o":"m 81 0 l 81 567 q 96 625 81 611 q 156 639 111 639 l 797 639 l 797 519 l 308 519 l 308 386 l 753 386 l 753 268 l 308 268 l 308 119 l 797 119 l 797 0 l 81 0 z "},"É":{"ha":840,"x_min":81,"x_max":797,"o":"m 81 0 l 81 567 q 96 625 81 611 q 156 639 111 639 l 797 639 l 797 519 l 308 519 l 308 386 l 753 386 l 753 268 l 308 268 l 308 119 l 797 119 l 797 0 l 81 0 m 368 724 l 528 881 l 621 825 l 453 724 l 368 724 z "},"Ĕ":{"ha":840,"x_min":81,"x_max":797,"o":"m 81 0 l 81 567 q 96 625 81 611 q 156 639 111 639 l 797 639 l 797 519 l 308 519 l 308 386 l 753 386 l 753 268 l 308 268 l 308 119 l 797 119 l 797 0 l 81 0 m 438 722 q 343 732 381 722 q 288 774 306 742 q 269 869 269 807 l 269 881 l 349 881 l 349 872 q 355 835 349 853 q 380 808 361 818 q 436 799 399 799 q 494 808 475 799 q 519 835 513 818 q 525 872 525 851 l 525 881 l 603 881 l 603 869 q 585 775 603 807 q 531 733 568 743 q 438 722 494 722 z "},"Ě":{"ha":840,"x_min":81,"x_max":797,"o":"m 261 881 l 346 881 l 436 807 l 522 881 l 613 881 l 465 724 l 407 724 l 261 881 m 81 0 l 81 567 q 96 625 81 611 q 156 639 111 639 l 797 639 l 797 519 l 308 519 l 308 386 l 753 386 l 753 268 l 308 268 l 308 119 l 797 119 l 797 0 l 81 0 z "},"Ê":{"ha":840,"x_min":81,"x_max":797,"o":"m 81 0 l 81 567 q 96 625 81 611 q 156 639 111 639 l 797 639 l 797 519 l 308 519 l 308 386 l 753 386 l 753 268 l 308 268 l 308 119 l 797 119 l 797 0 l 81 0 m 263 724 l 408 881 l 465 881 l 614 724 l 524 724 l 436 797 l 346 724 l 263 724 z "},"Ế":{"ha":840,"x_min":81,"x_max":832,"o":"m 81 0 l 81 567 q 96 625 81 611 q 156 639 111 639 l 797 639 l 797 519 l 308 519 l 308 386 l 753 386 l 753 268 l 308 268 l 308 119 l 797 119 l 797 0 l 81 0 m 263 724 l 408 881 l 465 881 l 614 724 l 524 724 l 436 797 l 346 724 l 263 724 m 579 858 l 739 1015 l 832 960 l 664 858 l 579 858 z "},"Ệ":{"ha":840,"x_min":81,"x_max":797,"o":"m 81 0 l 81 567 q 96 625 81 611 q 156 639 111 639 l 797 639 l 797 519 l 308 519 l 308 386 l 753 386 l 753 268 l 308 268 l 308 119 l 797 119 l 797 0 l 81 0 m 438 -222 q 384 -218 407 -222 q 348 -200 361 -214 q 335 -156 335 -186 q 365 -99 335 -110 q 440 -87 396 -87 q 511 -99 485 -87 q 538 -156 538 -111 q 525 -200 538 -186 q 490 -218 513 -214 q 438 -222 468 -222 m 263 724 l 408 881 l 465 881 l 614 724 l 524 724 l 436 797 l 346 724 l 263 724 z "},"Ề":{"ha":840,"x_min":81,"x_max":797,"o":"m 81 0 l 81 567 q 96 625 81 611 q 156 639 111 639 l 797 639 l 797 519 l 308 519 l 308 386 l 753 386 l 753 268 l 308 268 l 308 119 l 797 119 l 797 0 l 81 0 m 263 724 l 408 881 l 465 881 l 614 724 l 524 724 l 436 797 l 346 724 l 263 724 m 651 858 l 485 960 l 578 1015 l 738 858 l 651 858 z "},"Ể":{"ha":840,"x_min":81,"x_max":797,"o":"m 81 0 l 81 567 q 96 625 81 611 q 156 639 111 639 l 797 639 l 797 519 l 308 519 l 308 386 l 753 386 l 753 268 l 308 268 l 308 119 l 797 119 l 797 0 l 81 0 m 263 724 l 408 881 l 465 881 l 614 724 l 524 724 l 436 797 l 346 724 l 263 724 m 563 860 l 563 876 q 571 899 563 892 q 590 911 579 907 q 608 922 600 915 q 615 940 615 928 l 615 953 q 610 978 615 971 q 590 986 604 986 q 565 957 568 986 l 494 968 q 524 1025 499 1006 q 597 1044 549 1044 q 679 1026 651 1044 q 707 958 707 1007 l 707 954 q 699 917 707 929 q 678 899 690 906 q 657 887 665 893 q 649 868 649 881 l 649 860 l 563 860 z "},"Ễ":{"ha":840,"x_min":81,"x_max":797,"o":"m 81 0 l 81 567 q 96 625 81 611 q 156 639 111 639 l 797 639 l 797 519 l 308 519 l 308 386 l 753 386 l 753 268 l 308 268 l 308 119 l 797 119 l 797 0 l 81 0 m 263 724 l 408 881 l 465 881 l 614 724 l 524 724 l 436 797 l 346 724 l 263 724 m 519 907 q 467 920 492 906 q 417 950 442 935 q 364 963 392 965 q 322 947 338 963 q 300 922 306 931 l 263 954 q 269 970 263 956 q 290 1003 276 985 q 322 1035 303 1021 q 364 1050 340 1050 q 417 1037 392 1051 q 468 1008 443 1022 q 518 993 493 993 q 565 1010 549 993 q 589 1040 582 1028 l 626 1010 q 619 994 626 1010 q 598 958 611 978 q 565 922 585 938 q 519 907 546 907 z "},"Ȅ":{"ha":840,"x_min":81,"x_max":797,"o":"m 81 0 l 81 567 q 96 625 81 611 q 156 639 111 639 l 797 639 l 797 519 l 308 519 l 308 386 l 753 386 l 753 268 l 308 268 l 308 119 l 797 119 l 797 0 l 81 0 m 343 724 l 175 849 l 283 903 l 428 724 l 343 724 m 494 724 l 361 882 l 469 935 l 571 724 l 494 724 z "},"Ë":{"ha":840,"x_min":81,"x_max":797,"o":"m 81 0 l 81 567 q 96 625 81 611 q 156 639 111 639 l 797 639 l 797 519 l 308 519 l 308 386 l 753 386 l 753 268 l 308 268 l 308 119 l 797 119 l 797 0 l 81 0 m 564 722 q 509 731 531 722 q 488 779 488 740 q 510 824 488 815 q 567 832 533 832 q 618 822 597 832 q 639 779 639 813 q 619 731 639 740 q 564 722 599 722 m 310 722 q 255 731 276 722 q 233 779 233 740 q 256 824 233 815 q 313 832 279 832 q 364 822 344 832 q 383 779 383 813 q 363 732 383 742 q 310 722 343 722 z "},"Ė":{"ha":840,"x_min":81,"x_max":797,"o":"m 81 0 l 81 567 q 96 625 81 611 q 156 639 111 639 l 797 639 l 797 519 l 308 519 l 308 386 l 753 386 l 753 268 l 308 268 l 308 119 l 797 119 l 797 0 l 81 0 m 438 721 q 383 728 404 721 q 361 772 361 736 q 384 815 361 807 q 440 824 407 824 q 492 815 472 824 q 511 772 511 806 q 491 728 511 736 q 438 721 471 721 z "},"Ẹ":{"ha":840,"x_min":81,"x_max":797,"o":"m 81 0 l 81 567 q 96 625 81 611 q 156 639 111 639 l 797 639 l 797 519 l 308 519 l 308 386 l 753 386 l 753 268 l 308 268 l 308 119 l 797 119 l 797 0 l 81 0 m 438 -222 q 384 -218 407 -222 q 348 -200 361 -214 q 335 -156 335 -186 q 365 -99 335 -110 q 440 -87 396 -87 q 511 -99 485 -87 q 538 -156 538 -111 q 525 -200 538 -186 q 490 -218 513 -214 q 438 -222 468 -222 z "},"È":{"ha":840,"x_min":81,"x_max":797,"o":"m 81 0 l 81 567 q 96 625 81 611 q 156 639 111 639 l 797 639 l 797 519 l 308 519 l 308 386 l 753 386 l 753 268 l 308 268 l 308 119 l 797 119 l 797 0 l 81 0 m 440 724 l 274 825 l 367 881 l 526 724 l 440 724 z "},"Ẻ":{"ha":840,"x_min":81,"x_max":797,"o":"m 81 0 l 81 567 q 96 625 81 611 q 156 639 111 639 l 797 639 l 797 519 l 308 519 l 308 386 l 753 386 l 753 268 l 308 268 l 308 119 l 797 119 l 797 0 l 81 0 m 401 724 l 401 740 q 410 763 401 756 q 428 775 418 771 q 447 785 439 779 q 454 804 454 792 l 454 817 q 449 842 454 835 q 429 850 443 850 q 404 821 407 850 l 333 832 q 363 889 338 869 q 436 908 388 908 q 518 890 490 908 q 546 822 546 871 l 546 818 q 538 781 546 793 q 517 763 529 769 q 496 751 504 757 q 488 732 488 744 l 488 724 l 401 724 z "},"Ȇ":{"ha":840,"x_min":81,"x_max":797,"o":"m 81 0 l 81 567 q 96 625 81 611 q 156 639 111 639 l 797 639 l 797 519 l 308 519 l 308 386 l 753 386 l 753 268 l 308 268 l 308 119 l 797 119 l 797 0 l 81 0 m 269 722 l 269 732 q 288 828 269 796 q 343 870 306 860 q 438 881 381 881 q 531 869 494 881 q 585 827 568 858 q 603 732 603 796 l 603 722 l 525 722 l 525 731 q 519 767 525 750 q 494 793 513 783 q 436 803 475 803 q 381 793 399 803 q 356 767 363 783 q 349 731 350 751 l 349 722 l 269 722 z "},"Ē":{"ha":840,"x_min":81,"x_max":797,"o":"m 81 0 l 81 567 q 96 625 81 611 q 156 639 111 639 l 797 639 l 797 519 l 308 519 l 308 386 l 753 386 l 753 268 l 308 268 l 308 119 l 797 119 l 797 0 l 81 0 m 243 724 l 243 804 l 632 804 l 632 724 l 243 724 z "},"Ŋ":{"ha":939,"x_min":81,"x_max":858,"o":"m 81 0 q 85 22 83 4 q 86 61 86 39 q 86 311 86 186 q 86 561 86 436 q 106 624 86 610 q 178 639 126 639 q 279 639 229 639 q 381 639 329 639 q 536 431 458 535 q 692 222 614 326 q 692 431 692 326 q 692 639 692 535 q 774 639 732 639 q 858 639 817 639 q 855 622 856 636 q 854 590 854 607 q 854 558 854 572 q 854 244 854 401 q 854 -68 854 88 q 853 -120 854 -92 q 850 -167 853 -149 q 817 -231 843 -207 q 756 -265 792 -254 q 682 -276 719 -275 q 610 -278 642 -278 q 546 -274 578 -278 q 474 -268 514 -271 q 474 -201 474 -235 q 474 -135 474 -168 q 519 -148 489 -140 q 569 -156 550 -156 q 613 -139 601 -156 q 625 -94 625 -122 q 625 -48 625 -71 q 625 -3 625 -25 q 597 -3 611 -3 q 568 -3 582 -3 l 250 426 q 250 214 250 321 q 250 0 250 107 q 165 0 207 0 q 81 0 124 0 z "},"Ę":{"ha":840,"x_min":81,"x_max":797,"o":"m 81 0 l 81 567 q 96 625 81 611 q 156 639 111 639 l 797 639 l 797 519 l 308 519 l 308 386 l 753 386 l 753 268 l 308 268 l 308 119 l 797 119 l 797 0 l 81 0 m 646 -256 q 563 -243 592 -256 q 522 -206 533 -231 q 511 -146 511 -181 q 525 -88 511 -114 q 559 -42 539 -62 q 601 -7 579 -21 q 640 14 624 7 l 735 14 q 702 -3 724 10 q 658 -35 681 -17 q 619 -76 635 -54 q 603 -118 603 -97 q 626 -168 603 -158 q 683 -178 649 -178 q 723 -177 711 -178 q 739 -176 735 -176 q 746 -175 743 -175 q 740 -221 746 -203 q 712 -247 733 -239 q 646 -256 690 -256 z "},"Ð":{"ha":908,"x_min":6,"x_max":867,"o":"m 867 317 q 844 152 867 215 q 773 56 821 89 q 651 10 725 22 q 475 -1 578 -1 q 356 -1 413 -1 q 249 -1 299 -1 q 155 0 199 0 q 74 0 111 0 l 74 547 q 93 617 74 596 q 165 639 113 638 q 244 640 201 639 q 330 640 286 640 q 417 640 374 640 q 499 640 461 640 q 667 626 597 639 q 781 578 736 613 q 846 481 825 544 q 867 317 867 418 m 301 115 q 334 115 315 115 q 374 115 353 115 q 417 114 396 114 q 453 114 438 114 q 536 122 501 114 q 592 153 571 131 q 622 215 613 175 q 632 317 632 256 q 615 449 632 404 q 558 509 597 493 q 447 525 518 525 q 405 525 431 525 q 354 524 379 525 q 311 522 329 524 q 304 506 307 515 q 301 478 301 496 l 301 115 m 6 343 l 460 343 l 460 276 l 6 276 l 6 343 z "},"Ẽ":{"ha":840,"x_min":81,"x_max":797,"o":"m 81 0 l 81 567 q 96 625 81 611 q 156 639 111 639 l 797 639 l 797 519 l 308 519 l 308 386 l 753 386 l 753 268 l 308 268 l 308 119 l 797 119 l 797 0 l 81 0 m 517 725 q 464 738 489 724 q 414 768 439 753 q 361 781 389 783 q 319 765 335 781 q 297 740 303 749 l 260 772 q 267 788 260 774 q 287 821 274 803 q 319 853 300 839 q 361 868 338 868 q 415 855 389 869 q 465 826 440 840 q 515 811 490 811 q 563 828 546 811 q 586 858 579 846 l 624 828 q 616 812 624 828 q 595 776 608 796 q 563 740 582 756 q 517 725 543 725 z "},"€":{"ha":867,"x_min":22,"x_max":825,"o":"m 94 315 q 126 494 94 428 q 215 592 158 560 q 349 633 271 624 q 518 643 428 643 q 627 640 576 643 q 732 629 678 636 q 807 601 789 621 q 825 543 825 581 l 825 474 q 731 499 785 489 q 623 513 676 508 q 528 518 569 518 q 404 504 451 518 q 335 447 357 490 q 313 317 313 404 q 335 190 313 233 q 408 131 357 146 q 544 117 460 117 q 629 121 585 117 q 723 134 674 125 q 825 154 772 143 l 825 90 q 806 34 825 56 q 726 6 788 13 q 621 -6 675 -3 q 510 -10 567 -10 q 326 3 404 -10 q 196 49 247 15 q 119 148 144 83 q 94 315 94 213 m 46 403 l 647 403 l 629 343 l 28 343 l 46 403 m 40 288 l 638 288 l 619 228 l 22 228 l 40 288 z "},"F":{"ha":832,"x_min":81,"x_max":799,"o":"m 81 0 l 81 554 q 84 604 81 586 q 103 631 88 622 q 156 639 118 639 l 799 639 l 799 519 l 310 519 l 310 386 l 754 386 l 754 268 l 310 268 l 310 0 l 81 0 z "},"G":{"ha":899,"x_min":43,"x_max":858,"o":"m 453 -7 q 265 6 343 -7 q 138 55 188 19 q 66 153 89 90 q 43 317 43 217 q 73 491 43 425 q 158 590 103 557 q 289 635 213 624 q 457 646 365 646 q 636 642 558 646 q 751 631 714 639 q 807 609 790 624 q 828 576 824 594 q 833 540 833 558 l 833 486 q 793 504 825 497 q 719 516 761 511 q 632 524 676 521 q 551 527 588 526 q 494 528 514 528 q 367 512 414 528 q 298 451 319 496 q 276 317 276 406 q 297 190 276 233 q 358 129 317 146 q 467 113 400 113 q 569 123 532 113 q 621 160 606 133 q 638 229 636 186 q 638 251 638 242 q 638 265 638 260 l 401 265 q 407 337 401 311 q 434 374 413 363 q 504 385 456 385 l 858 385 l 857 232 q 841 121 857 167 q 781 47 825 75 q 658 6 738 19 q 453 -7 578 -7 z "},"Ğ":{"ha":899,"x_min":43,"x_max":858,"o":"m 453 -7 q 265 6 343 -7 q 138 55 188 19 q 66 153 89 90 q 43 317 43 217 q 73 491 43 425 q 158 590 103 557 q 289 635 213 624 q 457 646 365 646 q 636 642 558 646 q 751 631 714 639 q 807 609 790 624 q 828 576 824 594 q 833 540 833 558 l 833 486 q 793 504 825 497 q 719 516 761 511 q 632 524 676 521 q 551 527 588 526 q 494 528 514 528 q 367 512 414 528 q 298 451 319 496 q 276 317 276 406 q 297 190 276 233 q 358 129 317 146 q 467 113 400 113 q 569 123 532 113 q 621 160 606 133 q 638 229 636 186 q 638 251 638 242 q 638 265 638 260 l 401 265 q 407 337 401 311 q 434 374 413 363 q 504 385 456 385 l 858 385 l 857 232 q 841 121 857 167 q 781 47 825 75 q 658 6 738 19 q 453 -7 578 -7 m 457 722 q 363 732 400 722 q 307 774 325 742 q 289 869 289 807 l 289 881 l 368 881 l 368 872 q 374 835 368 853 q 399 808 381 818 q 456 799 418 799 q 513 808 494 799 q 538 835 532 818 q 544 872 544 851 l 544 881 l 622 881 l 622 869 q 605 775 622 807 q 551 733 588 743 q 457 722 514 722 z "},"Ǧ":{"ha":899,"x_min":43,"x_max":858,"o":"m 281 881 l 364 881 l 456 807 l 542 881 l 632 881 l 483 724 l 426 724 l 281 881 m 453 -7 q 265 6 343 -7 q 138 55 188 19 q 66 153 89 90 q 43 317 43 217 q 73 491 43 425 q 158 590 103 557 q 289 635 213 624 q 457 646 365 646 q 636 642 558 646 q 751 631 714 639 q 807 609 790 624 q 828 576 824 594 q 833 540 833 558 l 833 486 q 793 504 825 497 q 719 516 761 511 q 632 524 676 521 q 551 527 588 526 q 494 528 514 528 q 367 512 414 528 q 298 451 319 496 q 276 317 276 406 q 297 190 276 233 q 358 129 317 146 q 467 113 400 113 q 569 123 532 113 q 621 160 606 133 q 638 229 636 186 q 638 251 638 242 q 638 265 638 260 l 401 265 q 407 337 401 311 q 434 374 413 363 q 504 385 456 385 l 858 385 l 857 232 q 841 121 857 167 q 781 47 825 75 q 658 6 738 19 q 453 -7 578 -7 z "},"Ģ":{"ha":899,"x_min":43,"x_max":858,"o":"m 453 -7 q 265 6 343 -7 q 138 55 188 19 q 66 153 89 90 q 43 317 43 217 q 73 491 43 425 q 158 590 103 557 q 289 635 213 624 q 457 646 365 646 q 636 642 558 646 q 751 631 714 639 q 807 609 790 624 q 828 576 824 594 q 833 540 833 558 l 833 486 q 793 504 825 497 q 719 516 761 511 q 632 524 676 521 q 551 527 588 526 q 494 528 514 528 q 367 512 414 528 q 298 451 319 496 q 276 317 276 406 q 297 190 276 233 q 358 129 317 146 q 467 113 400 113 q 569 123 532 113 q 621 160 606 133 q 638 229 636 186 q 638 251 638 242 q 638 265 638 260 l 401 265 q 407 337 401 311 q 434 374 413 363 q 504 385 456 385 l 858 385 l 857 232 q 841 121 857 167 q 781 47 825 75 q 658 6 738 19 q 453 -7 578 -7 m 367 -354 q 392 -304 382 -325 q 413 -263 403 -283 q 435 -218 424 -243 q 425 -217 431 -218 q 414 -217 419 -217 q 381 -201 396 -214 q 365 -154 365 -189 q 392 -99 365 -110 q 464 -87 418 -87 q 500 -92 483 -87 q 528 -110 517 -96 q 539 -154 539 -125 q 526 -223 539 -186 q 494 -294 514 -260 q 454 -354 475 -328 l 367 -354 z "},"Ĝ":{"ha":899,"x_min":43,"x_max":858,"o":"m 453 -7 q 265 6 343 -7 q 138 55 188 19 q 66 153 89 90 q 43 317 43 217 q 73 491 43 425 q 158 590 103 557 q 289 635 213 624 q 457 646 365 646 q 636 642 558 646 q 751 631 714 639 q 807 609 790 624 q 828 576 824 594 q 833 540 833 558 l 833 486 q 793 504 825 497 q 719 516 761 511 q 632 524 676 521 q 551 527 588 526 q 494 528 514 528 q 367 512 414 528 q 298 451 319 496 q 276 317 276 406 q 297 190 276 233 q 358 129 317 146 q 467 113 400 113 q 569 123 532 113 q 621 160 606 133 q 638 229 636 186 q 638 251 638 242 q 638 265 638 260 l 401 265 q 407 337 401 311 q 434 374 413 363 q 504 385 456 385 l 858 385 l 857 232 q 841 121 857 167 q 781 47 825 75 q 658 6 738 19 q 453 -7 578 -7 m 281 724 l 426 881 l 483 881 l 632 724 l 542 724 l 454 797 l 364 724 l 281 724 z "},"Ġ":{"ha":899,"x_min":43,"x_max":858,"o":"m 453 -7 q 265 6 343 -7 q 138 55 188 19 q 66 153 89 90 q 43 317 43 217 q 73 491 43 425 q 158 590 103 557 q 289 635 213 624 q 457 646 365 646 q 636 642 558 646 q 751 631 714 639 q 807 609 790 624 q 828 576 824 594 q 833 540 833 558 l 833 486 q 793 504 825 497 q 719 516 761 511 q 632 524 676 521 q 551 527 588 526 q 494 528 514 528 q 367 512 414 528 q 298 451 319 496 q 276 317 276 406 q 297 190 276 233 q 358 129 317 146 q 467 113 400 113 q 569 123 532 113 q 621 160 606 133 q 638 229 636 186 q 638 251 638 242 q 638 265 638 260 l 401 265 q 407 337 401 311 q 434 374 413 363 q 504 385 456 385 l 858 385 l 857 232 q 841 121 857 167 q 781 47 825 75 q 658 6 738 19 q 453 -7 578 -7 m 457 721 q 402 728 424 721 q 381 772 381 736 q 403 815 381 807 q 460 824 426 824 q 511 815 492 824 q 531 772 531 806 q 510 728 531 736 q 457 721 490 721 z "},"ẞ":{"ha":1089,"x_min":190,"x_max":997,"o":"m 190 -36 q 190 67 190 24 q 190 151 190 111 q 190 242 190 192 q 190 364 190 292 q 190 546 190 436 q 217 624 192 593 q 291 673 242 656 q 411 697 340 690 q 572 704 482 704 q 731 699 658 704 q 855 678 803 693 q 934 635 907 663 q 960 563 961 607 q 940 513 960 533 q 895 482 921 493 q 847 465 869 471 q 818 458 824 460 q 767 445 792 451 q 721 430 742 439 q 688 408 700 421 q 675 381 675 396 q 697 345 675 351 q 758 339 719 339 q 801 339 774 339 q 846 339 829 339 q 932 321 899 339 q 981 267 965 303 q 997 179 997 232 q 965 60 997 100 q 881 6 932 19 q 772 -7 829 -7 q 683 -6 728 -7 q 595 -2 638 -6 q 518 12 553 1 q 461 42 483 22 l 451 119 q 515 99 475 107 q 601 89 556 92 q 681 86 646 86 q 752 93 725 86 q 791 117 779 100 q 803 163 803 133 q 785 210 803 197 q 728 222 768 222 q 698 222 715 222 q 640 222 681 222 q 549 232 589 222 q 486 268 508 242 q 464 340 464 294 q 485 408 464 378 q 542 461 506 438 q 626 503 579 485 q 726 535 674 521 q 709 585 726 567 q 666 611 692 603 q 615 622 640 619 q 574 625 589 625 q 515 619 546 625 q 458 601 485 614 q 415 563 432 588 q 399 497 399 538 l 399 -36 l 190 -36 z "},"H":{"ha":931,"x_min":81,"x_max":850,"o":"m 81 0 l 81 575 q 98 628 81 617 q 157 639 115 639 l 308 639 l 308 390 l 622 390 l 622 639 l 850 639 l 850 72 q 836 15 850 29 q 772 0 822 0 l 622 0 l 622 272 l 308 272 l 308 0 l 81 0 z "},"Ħ":{"ha":931,"x_min":31,"x_max":899,"o":"m 81 0 l 81 575 q 98 628 81 617 q 157 639 115 639 l 308 639 l 308 390 l 622 390 l 622 639 l 850 639 l 850 72 q 836 15 850 29 q 772 0 822 0 l 622 0 l 622 272 l 308 272 l 308 0 l 81 0 m 32 546 l 900 546 l 900 488 l 32 488 l 32 546 z "},"Ĥ":{"ha":931,"x_min":81,"x_max":850,"o":"m 81 0 l 81 575 q 98 628 81 617 q 157 639 115 639 l 308 639 l 308 390 l 622 390 l 622 639 l 850 639 l 850 72 q 836 15 850 29 q 772 0 822 0 l 622 0 l 622 272 l 308 272 l 308 0 l 81 0 m 290 724 l 436 881 l 493 881 l 642 724 l 551 724 l 464 797 l 374 724 l 290 724 z "},"I":{"ha":390,"x_min":81,"x_max":308,"o":"m 81 0 q 81 283 81 142 q 81 567 81 425 q 84 606 81 590 q 103 631 88 622 q 156 639 119 639 l 308 639 l 308 0 l 81 0 z "},"Ĳ":{"ha":881,"x_min":81,"x_max":806,"o":"m 81 0 q 81 283 81 142 q 81 567 81 425 q 84 606 81 590 q 103 631 88 622 q 156 639 119 639 l 308 639 l 308 0 l 81 0 m 807 207 q 807 154 807 182 q 803 108 807 126 q 770 43 796 67 q 709 10 744 19 q 635 -3 674 0 q 563 -3 594 -4 q 500 0 532 -3 q 426 7 468 3 l 426 139 q 473 126 442 133 q 524 119 504 119 q 566 136 554 119 q 578 181 578 153 l 578 639 l 732 639 q 787 629 771 639 q 805 601 803 619 q 807 554 807 582 l 807 207 z "},"Í":{"ha":390,"x_min":81,"x_max":379,"o":"m 81 0 q 81 283 81 142 q 81 567 81 425 q 84 606 81 590 q 103 631 88 622 q 156 639 119 639 l 308 639 l 308 0 l 81 0 m 126 724 l 286 881 l 379 825 l 211 724 l 126 724 z "},"Ĭ":{"ha":390,"x_min":28,"x_max":361,"o":"m 81 0 q 81 283 81 142 q 81 567 81 425 q 84 606 81 590 q 103 631 88 622 q 156 639 119 639 l 308 639 l 308 0 l 81 0 m 196 722 q 101 732 139 722 q 46 774 64 742 q 28 869 28 807 l 28 881 l 107 881 l 107 872 q 113 835 107 853 q 138 808 119 818 q 194 799 157 799 q 252 808 233 799 q 277 835 271 818 q 283 872 283 851 l 283 881 l 361 881 l 361 869 q 344 775 361 807 q 290 733 326 743 q 196 722 253 722 z "},"Î":{"ha":390,"x_min":19,"x_max":371,"o":"m 81 0 q 81 283 81 142 q 81 567 81 425 q 84 606 81 590 q 103 631 88 622 q 156 639 119 639 l 308 639 l 308 0 l 81 0 m 19 724 l 165 881 l 222 881 l 371 724 l 281 724 l 193 797 l 103 724 l 19 724 z "},"Ȉ":{"ha":390,"x_min":-67,"x_max":329,"o":"m 81 0 q 81 283 81 142 q 81 567 81 425 q 84 606 81 590 q 103 631 88 622 q 156 639 119 639 l 308 639 l 308 0 l 81 0 m 101 724 l -67 849 l 42 903 l 186 724 l 101 724 m 253 724 l 119 882 l 228 935 l 329 724 l 253 724 z "},"Ï":{"ha":390,"x_min":-8,"x_max":397,"o":"m 81 0 q 81 283 81 142 q 81 567 81 425 q 84 606 81 590 q 103 631 88 622 q 156 639 119 639 l 308 639 l 308 0 l 81 0 m 322 722 q 267 731 289 722 q 246 779 246 740 q 269 824 246 815 q 325 832 292 832 q 376 822 356 832 q 397 779 397 813 q 377 731 397 740 q 322 722 357 722 m 68 722 q 13 731 35 722 q -8 779 -8 740 q 15 824 -8 815 q 71 832 38 832 q 122 822 103 832 q 142 779 142 813 q 122 732 142 742 q 68 722 101 722 z "},"İ":{"ha":390,"x_min":81,"x_max":308,"o":"m 81 0 q 81 283 81 142 q 81 567 81 425 q 84 606 81 590 q 103 631 88 622 q 156 639 119 639 l 308 639 l 308 0 l 81 0 m 196 721 q 141 728 163 721 q 119 772 119 736 q 142 815 119 807 q 199 824 165 824 q 250 815 231 824 q 269 772 269 806 q 249 728 269 736 q 196 721 229 721 z "},"Ị":{"ha":390,"x_min":81,"x_max":308,"o":"m 81 0 q 81 283 81 142 q 81 567 81 425 q 84 606 81 590 q 103 631 88 622 q 156 639 119 639 l 308 639 l 308 0 l 81 0 m 196 -222 q 142 -218 165 -222 q 106 -200 119 -214 q 93 -156 93 -186 q 124 -99 93 -110 q 199 -87 154 -87 q 269 -99 243 -87 q 296 -156 296 -111 q 283 -200 296 -186 q 249 -218 271 -214 q 196 -222 226 -222 z "},"Ì":{"ha":390,"x_min":31,"x_max":308,"o":"m 81 0 q 81 283 81 142 q 81 567 81 425 q 84 606 81 590 q 103 631 88 622 q 156 639 119 639 l 308 639 l 308 0 l 81 0 m 197 724 l 31 825 l 124 881 l 283 724 l 197 724 z "},"Ỉ":{"ha":390,"x_min":81,"x_max":308,"o":"m 81 0 q 81 283 81 142 q 81 567 81 425 q 84 606 81 590 q 103 631 88 622 q 156 639 119 639 l 308 639 l 308 0 l 81 0 m 160 724 l 160 740 q 168 763 160 756 q 187 775 176 771 q 205 785 197 779 q 213 804 213 792 l 213 817 q 207 842 213 835 q 188 850 201 850 q 163 821 165 850 l 92 832 q 121 889 96 869 q 194 908 146 908 q 276 890 249 908 q 304 822 304 871 l 304 818 q 296 781 304 793 q 275 763 288 769 q 254 751 263 757 q 246 732 246 744 l 246 724 l 160 724 z "},"Ȋ":{"ha":390,"x_min":28,"x_max":361,"o":"m 81 0 q 81 283 81 142 q 81 567 81 425 q 84 606 81 590 q 103 631 88 622 q 156 639 119 639 l 308 639 l 308 0 l 81 0 m 28 722 l 28 732 q 46 828 28 796 q 101 870 64 860 q 196 881 139 881 q 290 869 253 881 q 344 827 326 858 q 361 732 361 796 l 361 722 l 283 722 l 283 731 q 277 767 283 750 q 252 793 271 783 q 194 803 233 803 q 139 793 157 803 q 115 767 121 783 q 107 731 108 751 l 107 722 l 28 722 z "},"Ī":{"ha":390,"x_min":0,"x_max":389,"o":"m 81 0 q 81 283 81 142 q 81 567 81 425 q 84 606 81 590 q 103 631 88 622 q 156 639 119 639 l 308 639 l 308 0 l 81 0 m 0 724 l 0 804 l 389 804 l 389 724 l 0 724 z "},"Į":{"ha":390,"x_min":38,"x_max":308,"o":"m 81 0 q 81 283 81 142 q 81 567 81 425 q 84 606 81 590 q 103 631 88 622 q 156 639 119 639 l 308 639 l 308 0 l 81 0 m 172 -256 q 89 -243 118 -256 q 49 -206 60 -231 q 38 -146 38 -181 q 51 -88 38 -114 q 85 -42 65 -62 q 128 -7 106 -21 q 167 14 150 7 l 261 14 q 228 -3 250 10 q 184 -35 207 -17 q 145 -76 161 -54 q 129 -118 129 -97 q 152 -168 129 -158 q 210 -178 175 -178 q 249 -177 238 -178 q 265 -176 261 -176 q 272 -175 269 -175 q 266 -221 272 -203 q 238 -247 260 -239 q 172 -256 217 -256 z "},"Ĩ":{"ha":390,"x_min":17,"x_max":381,"o":"m 81 0 q 81 283 81 142 q 81 567 81 425 q 84 606 81 590 q 103 631 88 622 q 156 639 119 639 l 308 639 l 308 0 l 81 0 m 274 725 q 221 738 246 724 q 171 768 196 753 q 118 781 146 783 q 76 765 92 781 q 54 740 60 749 l 17 772 q 24 788 17 774 q 44 821 31 803 q 76 853 57 839 q 118 868 94 868 q 172 855 146 869 q 222 826 197 840 q 272 811 247 811 q 319 828 303 811 q 343 858 336 846 l 381 828 q 373 812 381 828 q 352 776 365 796 q 319 740 339 756 q 274 725 300 725 z "},"J":{"ha":490,"x_min":36,"x_max":417,"o":"m 417 207 q 417 154 417 182 q 413 108 417 126 q 380 43 406 67 q 319 10 354 19 q 244 -3 283 0 q 173 -3 204 -4 q 110 0 142 -3 q 36 7 78 3 l 36 139 q 83 126 51 133 q 133 119 114 119 q 176 136 164 119 q 188 181 188 153 l 188 639 l 342 639 q 397 629 381 639 q 415 601 413 619 q 417 554 417 582 l 417 207 z "},"Ĵ":{"ha":490,"x_min":36,"x_max":468,"o":"m 417 207 q 417 154 417 182 q 413 108 417 126 q 380 43 406 67 q 319 10 354 19 q 244 -3 283 0 q 173 -3 204 -4 q 110 0 142 -3 q 36 7 78 3 l 36 139 q 83 126 51 133 q 133 119 114 119 q 176 136 164 119 q 188 181 188 153 l 188 639 l 342 639 q 397 629 381 639 q 415 601 413 619 q 417 554 417 582 l 417 207 m 118 724 l 264 881 l 321 881 l 469 724 l 379 724 l 292 797 l 201 724 l 118 724 z "},"K":{"ha":867,"x_min":81,"x_max":856,"o":"m 706 -18 q 631 -10 665 -18 q 567 19 596 -1 q 542 42 557 28 q 508 73 526 56 q 472 108 490 90 q 436 143 453 126 q 406 172 419 160 q 377 200 389 190 q 347 221 365 210 l 308 231 l 308 0 l 81 0 l 81 569 q 85 607 81 592 q 103 631 89 622 q 154 639 118 639 q 231 639 193 639 q 308 639 269 639 q 308 588 308 618 q 308 526 308 558 q 308 463 308 493 q 308 414 308 433 l 347 422 q 369 434 360 426 q 392 454 378 442 q 438 501 408 474 q 498 556 467 528 q 551 604 529 585 q 622 638 583 629 q 713 646 660 646 q 779 642 753 646 q 835 633 806 639 q 817 618 832 632 q 785 588 803 604 q 758 563 768 572 q 653 483 708 525 q 545 400 597 442 q 451 319 493 358 l 453 383 q 535 315 489 354 q 633 231 581 276 q 742 139 686 186 q 856 49 799 92 q 828 24 849 39 q 778 -5 808 8 q 706 -18 747 -18 z "},"Ķ":{"ha":867,"x_min":81,"x_max":856,"o":"m 706 -18 q 631 -10 665 -18 q 567 19 596 -1 q 542 42 557 28 q 508 73 526 56 q 472 108 490 90 q 436 143 453 126 q 406 172 419 160 q 377 200 389 190 q 347 221 365 210 l 308 231 l 308 0 l 81 0 l 81 569 q 85 607 81 592 q 103 631 89 622 q 154 639 118 639 q 231 639 193 639 q 308 639 269 639 q 308 588 308 618 q 308 526 308 558 q 308 463 308 493 q 308 414 308 433 l 347 422 q 369 434 360 426 q 392 454 378 442 q 438 501 408 474 q 498 556 467 528 q 551 604 529 585 q 622 638 583 629 q 713 646 660 646 q 779 642 753 646 q 835 633 806 639 q 817 618 832 632 q 785 588 803 604 q 758 563 768 572 q 653 483 708 525 q 545 400 597 442 q 451 319 493 358 l 453 383 q 535 315 489 354 q 633 231 581 276 q 742 139 686 186 q 856 49 799 92 q 828 24 849 39 q 778 -5 808 8 q 706 -18 747 -18 m 357 -354 q 383 -304 372 -325 q 403 -263 393 -283 q 425 -218 414 -243 q 415 -217 421 -218 q 404 -217 410 -217 q 371 -201 386 -214 q 356 -154 356 -189 q 382 -99 356 -110 q 454 -87 408 -87 q 490 -92 474 -87 q 518 -110 507 -96 q 529 -154 529 -125 q 517 -223 529 -186 q 485 -294 504 -260 q 444 -354 465 -328 l 357 -354 z "},"L":{"ha":732,"x_min":81,"x_max":718,"o":"m 308 639 l 308 119 l 718 119 l 718 0 l 81 0 l 81 564 q 84 606 81 589 q 103 631 88 622 q 156 639 118 639 l 308 639 z "},"Ǉ":{"ha":1222,"x_min":81,"x_max":1149,"o":"m 308 639 l 308 119 l 718 119 l 718 0 l 81 0 l 81 564 q 84 606 81 589 q 103 631 88 622 q 156 639 118 639 l 308 639 m 1149 207 q 1149 154 1149 182 q 1144 108 1149 126 q 1112 43 1138 67 q 1051 10 1086 19 q 976 -3 1015 0 q 905 -3 936 -4 q 842 0 874 -3 q 768 7 810 3 l 768 139 q 815 126 783 133 q 865 119 846 119 q 908 136 896 119 q 919 181 919 153 l 919 639 l 1074 639 q 1128 629 1113 639 q 1147 601 1144 619 q 1149 554 1149 582 l 1149 207 z "},"Ĺ":{"ha":732,"x_min":81,"x_max":718,"o":"m 308 639 l 308 119 l 718 119 l 718 0 l 81 0 l 81 564 q 84 606 81 589 q 103 631 88 622 q 156 639 118 639 l 308 639 m 175 724 l 335 881 l 428 825 l 260 724 l 175 724 z "},"Ľ":{"ha":732,"x_min":81,"x_max":718,"o":"m 308 639 l 308 119 l 718 119 l 718 0 l 81 0 l 81 564 q 84 606 81 589 q 103 631 88 622 q 156 639 118 639 l 308 639 m 481 432 l 469 639 l 563 639 l 556 432 l 481 432 z "},"Ļ":{"ha":732,"x_min":81,"x_max":718,"o":"m 308 639 l 308 119 l 718 119 l 718 0 l 81 0 l 81 564 q 84 606 81 589 q 103 631 88 622 q 156 639 118 639 l 308 639 m 299 -354 q 324 -304 314 -325 q 345 -263 335 -283 q 367 -218 356 -243 q 357 -217 363 -218 q 346 -217 351 -217 q 313 -201 328 -214 q 297 -154 297 -189 q 324 -99 297 -110 q 396 -87 350 -87 q 432 -92 415 -87 q 460 -110 449 -96 q 471 -154 471 -125 q 458 -223 471 -186 q 426 -294 446 -260 q 386 -354 407 -328 l 299 -354 z "},"Ŀ":{"ha":749,"x_min":81,"x_max":718,"o":"m 308 639 l 308 119 l 718 119 l 718 0 l 81 0 l 81 564 q 84 606 81 589 q 103 631 88 622 q 156 639 118 639 l 308 639 m 436 321 q 467 376 436 365 q 542 388 499 388 q 614 376 588 388 q 640 321 640 364 q 627 275 640 289 q 592 257 614 261 q 539 253 569 253 q 487 257 510 253 q 450 275 464 261 q 436 321 436 289 z "},"Ł":{"ha":751,"x_min":-19,"x_max":721,"o":"m 426 335 l 443 279 l 3 128 l -19 183 l 426 335 m 311 639 l 311 119 l 721 119 l 721 0 l 83 0 l 83 564 q 87 606 83 589 q 106 631 90 622 q 160 639 122 639 l 311 639 z "},"M":{"ha":1013,"x_min":81,"x_max":932,"o":"m 81 0 l 81 568 q 97 627 81 615 q 167 639 114 639 l 340 639 l 503 276 l 506 263 l 508 264 l 511 278 l 668 639 l 853 639 q 917 625 903 639 q 932 568 932 611 l 932 71 q 925 22 932 36 q 900 3 918 7 q 847 0 882 0 l 704 0 l 704 394 l 694 356 l 540 0 l 403 0 l 250 351 l 242 390 l 242 0 l 81 0 z "},"N":{"ha":933,"x_min":81,"x_max":853,"o":"m 81 0 l 81 561 q 94 624 81 610 q 160 639 108 639 l 375 639 l 678 231 l 686 199 l 686 639 l 853 639 q 849 622 850 636 q 849 590 849 607 q 849 558 849 572 l 849 68 q 829 11 849 22 q 757 0 810 0 l 561 0 l 251 417 l 244 451 l 244 0 l 81 0 z "},"Ǌ":{"ha":1424,"x_min":81,"x_max":1350,"o":"m 81 0 l 81 561 q 94 624 81 610 q 160 639 108 639 l 375 639 l 678 231 l 686 199 l 686 639 l 853 639 q 849 622 850 636 q 849 590 849 607 q 849 558 849 572 l 849 68 q 829 11 849 22 q 757 0 810 0 l 561 0 l 251 417 l 244 451 l 244 0 l 81 0 m 1350 207 q 1350 154 1350 182 q 1346 108 1350 126 q 1313 43 1339 67 q 1252 10 1288 19 q 1178 -3 1217 0 q 1106 -3 1138 -4 q 1043 0 1075 -3 q 969 7 1011 3 l 969 139 q 1016 126 985 133 q 1067 119 1047 119 q 1109 136 1097 119 q 1121 181 1121 153 l 1121 639 l 1275 639 q 1330 629 1314 639 q 1348 601 1346 619 q 1350 554 1350 582 l 1350 207 z "},"Ń":{"ha":933,"x_min":81,"x_max":853,"o":"m 81 0 l 81 561 q 94 624 81 610 q 160 639 108 639 l 375 639 l 678 231 l 686 199 l 686 639 l 853 639 q 849 622 850 636 q 849 590 849 607 q 849 558 849 572 l 849 68 q 829 11 849 22 q 757 0 810 0 l 561 0 l 251 417 l 244 451 l 244 0 l 81 0 m 399 724 l 558 881 l 651 825 l 483 724 l 399 724 z "},"Ň":{"ha":933,"x_min":81,"x_max":853,"o":"m 292 881 l 375 881 l 467 807 l 553 881 l 643 881 l 494 724 l 438 724 l 292 881 m 81 0 l 81 561 q 94 624 81 610 q 160 639 108 639 l 375 639 l 678 231 l 686 199 l 686 639 l 853 639 q 849 622 850 636 q 849 590 849 607 q 849 558 849 572 l 849 68 q 829 11 849 22 q 757 0 810 0 l 561 0 l 251 417 l 244 451 l 244 0 l 81 0 z "},"Ņ":{"ha":933,"x_min":81,"x_max":853,"o":"m 81 0 l 81 561 q 94 624 81 610 q 160 639 108 639 l 375 639 l 678 231 l 686 199 l 686 639 l 853 639 q 849 622 850 636 q 849 590 849 607 q 849 558 849 572 l 849 68 q 829 11 849 22 q 757 0 810 0 l 561 0 l 251 417 l 244 451 l 244 0 l 81 0 m 378 -354 q 403 -304 393 -325 q 424 -263 414 -283 q 446 -218 435 -243 q 436 -217 442 -218 q 425 -217 431 -217 q 392 -201 407 -214 q 376 -154 376 -189 q 403 -99 376 -110 q 475 -87 429 -87 q 511 -92 494 -87 q 539 -110 528 -96 q 550 -154 550 -125 q 538 -223 550 -186 q 506 -294 525 -260 q 465 -354 486 -328 l 378 -354 z "},"Ñ":{"ha":933,"x_min":81,"x_max":853,"o":"m 81 0 l 81 561 q 94 624 81 610 q 160 639 108 639 l 375 639 l 678 231 l 686 199 l 686 639 l 853 639 q 849 622 850 636 q 849 590 849 607 q 849 558 849 572 l 849 68 q 829 11 849 22 q 757 0 810 0 l 561 0 l 251 417 l 244 451 l 244 0 l 81 0 m 546 725 q 493 738 518 724 q 443 768 468 753 q 390 781 418 783 q 348 765 364 781 q 326 740 332 749 l 289 772 q 296 788 289 774 q 316 821 303 803 q 348 853 329 839 q 390 868 367 868 q 444 855 418 869 q 494 826 469 840 q 544 811 519 811 q 592 828 575 811 q 615 858 608 846 l 653 828 q 645 812 653 828 q 624 776 638 796 q 592 740 611 756 q 546 725 572 725 z "},"O":{"ha":911,"x_min":43,"x_max":868,"o":"m 454 -10 q 265 6 343 -10 q 138 58 188 21 q 66 158 89 94 q 43 319 43 222 q 67 483 43 419 q 141 583 90 546 q 270 635 192 619 q 458 650 349 650 q 646 635 568 650 q 773 583 724 619 q 845 482 822 546 q 868 319 868 418 q 844 157 868 221 q 771 56 821 93 q 642 5 721 19 q 454 -10 564 -10 m 456 108 q 535 117 501 108 q 591 150 569 126 q 623 215 613 174 q 633 319 633 256 q 623 426 633 385 q 591 490 613 467 q 535 522 569 513 q 456 531 501 531 q 374 522 408 531 q 319 490 340 513 q 288 426 299 467 q 276 319 276 385 q 288 215 276 256 q 319 150 299 174 q 374 117 340 126 q 456 108 408 108 z "},"Œ":{"ha":1435,"x_min":43,"x_max":1403,"o":"m 454 -10 q 265 6 343 -10 q 138 58 188 21 q 66 158 89 94 q 43 319 43 222 q 67 483 43 419 q 141 583 90 546 q 270 635 192 619 q 458 650 349 650 q 646 635 568 650 q 773 583 724 619 q 845 482 822 546 q 868 319 868 418 q 844 157 868 221 q 771 56 821 93 q 642 5 721 19 q 454 -10 564 -10 m 456 108 q 535 117 501 108 q 591 150 569 126 q 623 215 613 174 q 633 319 633 256 q 623 426 633 385 q 591 490 613 467 q 535 522 569 513 q 456 531 501 531 q 374 522 408 531 q 319 490 340 513 q 288 426 299 467 q 276 319 276 385 q 288 215 276 256 q 319 150 299 174 q 374 117 340 126 q 456 108 408 108 m 686 0 l 686 567 q 701 625 686 611 q 761 639 717 639 l 1403 639 l 1403 519 l 914 519 l 914 386 l 1358 386 l 1358 268 l 914 268 l 914 119 l 1403 119 l 1403 0 l 686 0 z "},"Ó":{"ha":911,"x_min":43,"x_max":868,"o":"m 454 -10 q 265 6 343 -10 q 138 58 188 21 q 66 158 89 94 q 43 319 43 222 q 67 483 43 419 q 141 583 90 546 q 270 635 192 619 q 458 650 349 650 q 646 635 568 650 q 773 583 724 619 q 845 482 822 546 q 868 319 868 418 q 844 157 868 221 q 771 56 821 93 q 642 5 721 19 q 454 -10 564 -10 m 456 108 q 535 117 501 108 q 591 150 569 126 q 623 215 613 174 q 633 319 633 256 q 623 426 633 385 q 591 490 613 467 q 535 522 569 513 q 456 531 501 531 q 374 522 408 531 q 319 490 340 513 q 288 426 299 467 q 276 319 276 385 q 288 215 276 256 q 319 150 299 174 q 374 117 340 126 q 456 108 408 108 m 388 724 l 547 881 l 640 825 l 472 724 l 388 724 z "},"Ŏ":{"ha":911,"x_min":43,"x_max":868,"o":"m 454 -10 q 265 6 343 -10 q 138 58 188 21 q 66 158 89 94 q 43 319 43 222 q 67 483 43 419 q 141 583 90 546 q 270 635 192 619 q 458 650 349 650 q 646 635 568 650 q 773 583 724 619 q 845 482 822 546 q 868 319 868 418 q 844 157 868 221 q 771 56 821 93 q 642 5 721 19 q 454 -10 564 -10 m 456 108 q 535 117 501 108 q 591 150 569 126 q 623 215 613 174 q 633 319 633 256 q 623 426 633 385 q 591 490 613 467 q 535 522 569 513 q 456 531 501 531 q 374 522 408 531 q 319 490 340 513 q 288 426 299 467 q 276 319 276 385 q 288 215 276 256 q 319 150 299 174 q 374 117 340 126 q 456 108 408 108 m 457 722 q 363 732 400 722 q 307 774 325 742 q 289 869 289 807 l 289 881 l 368 881 l 368 872 q 374 835 368 853 q 399 808 381 818 q 456 799 418 799 q 513 808 494 799 q 538 835 532 818 q 544 872 544 851 l 544 881 l 622 881 l 622 869 q 605 775 622 807 q 551 733 588 743 q 457 722 514 722 z "},"Ô":{"ha":911,"x_min":43,"x_max":868,"o":"m 454 -10 q 265 6 343 -10 q 138 58 188 21 q 66 158 89 94 q 43 319 43 222 q 67 483 43 419 q 141 583 90 546 q 270 635 192 619 q 458 650 349 650 q 646 635 568 650 q 773 583 724 619 q 845 482 822 546 q 868 319 868 418 q 844 157 868 221 q 771 56 821 93 q 642 5 721 19 q 454 -10 564 -10 m 456 108 q 535 117 501 108 q 591 150 569 126 q 623 215 613 174 q 633 319 633 256 q 623 426 633 385 q 591 490 613 467 q 535 522 569 513 q 456 531 501 531 q 374 522 408 531 q 319 490 340 513 q 288 426 299 467 q 276 319 276 385 q 288 215 276 256 q 319 150 299 174 q 374 117 340 126 q 456 108 408 108 m 281 724 l 426 881 l 483 881 l 632 724 l 542 724 l 454 797 l 364 724 l 281 724 z "},"Ố":{"ha":911,"x_min":43,"x_max":868,"o":"m 454 -10 q 265 6 343 -10 q 138 58 188 21 q 66 158 89 94 q 43 319 43 222 q 67 483 43 419 q 141 583 90 546 q 270 635 192 619 q 458 650 349 650 q 646 635 568 650 q 773 583 724 619 q 845 482 822 546 q 868 319 868 418 q 844 157 868 221 q 771 56 821 93 q 642 5 721 19 q 454 -10 564 -10 m 456 108 q 535 117 501 108 q 591 150 569 126 q 623 215 613 174 q 633 319 633 256 q 623 426 633 385 q 591 490 613 467 q 535 522 569 513 q 456 531 501 531 q 374 522 408 531 q 319 490 340 513 q 288 426 299 467 q 276 319 276 385 q 288 215 276 256 q 319 150 299 174 q 374 117 340 126 q 456 108 408 108 m 281 724 l 426 881 l 483 881 l 632 724 l 542 724 l 454 797 l 364 724 l 281 724 m 599 858 l 758 1015 l 851 960 l 683 858 l 599 858 z "},"Ộ":{"ha":911,"x_min":43,"x_max":868,"o":"m 454 -10 q 265 6 343 -10 q 138 58 188 21 q 66 158 89 94 q 43 319 43 222 q 67 483 43 419 q 141 583 90 546 q 270 635 192 619 q 458 650 349 650 q 646 635 568 650 q 773 583 724 619 q 845 482 822 546 q 868 319 868 418 q 844 157 868 221 q 771 56 821 93 q 642 5 721 19 q 454 -10 564 -10 m 456 108 q 535 117 501 108 q 591 150 569 126 q 623 215 613 174 q 633 319 633 256 q 623 426 633 385 q 591 490 613 467 q 535 522 569 513 q 456 531 501 531 q 374 522 408 531 q 319 490 340 513 q 288 426 299 467 q 276 319 276 385 q 288 215 276 256 q 319 150 299 174 q 374 117 340 126 q 456 108 408 108 m 457 -222 q 403 -218 426 -222 q 367 -200 381 -214 q 354 -156 354 -186 q 385 -99 354 -110 q 460 -87 415 -87 q 531 -99 504 -87 q 557 -156 557 -111 q 544 -200 557 -186 q 510 -218 532 -214 q 457 -222 488 -222 m 281 724 l 426 881 l 483 881 l 632 724 l 542 724 l 454 797 l 364 724 l 281 724 z "},"Ồ":{"ha":911,"x_min":43,"x_max":868,"o":"m 454 -10 q 265 6 343 -10 q 138 58 188 21 q 66 158 89 94 q 43 319 43 222 q 67 483 43 419 q 141 583 90 546 q 270 635 192 619 q 458 650 349 650 q 646 635 568 650 q 773 583 724 619 q 845 482 822 546 q 868 319 868 418 q 844 157 868 221 q 771 56 821 93 q 642 5 721 19 q 454 -10 564 -10 m 456 108 q 535 117 501 108 q 591 150 569 126 q 623 215 613 174 q 633 319 633 256 q 623 426 633 385 q 591 490 613 467 q 535 522 569 513 q 456 531 501 531 q 374 522 408 531 q 319 490 340 513 q 288 426 299 467 q 276 319 276 385 q 288 215 276 256 q 319 150 299 174 q 374 117 340 126 q 456 108 408 108 m 281 724 l 426 881 l 483 881 l 632 724 l 542 724 l 454 797 l 364 724 l 281 724 m 669 858 l 503 960 l 596 1015 l 756 858 l 669 858 z "},"Ổ":{"ha":911,"x_min":43,"x_max":868,"o":"m 454 -10 q 265 6 343 -10 q 138 58 188 21 q 66 158 89 94 q 43 319 43 222 q 67 483 43 419 q 141 583 90 546 q 270 635 192 619 q 458 650 349 650 q 646 635 568 650 q 773 583 724 619 q 845 482 822 546 q 868 319 868 418 q 844 157 868 221 q 771 56 821 93 q 642 5 721 19 q 454 -10 564 -10 m 456 108 q 535 117 501 108 q 591 150 569 126 q 623 215 613 174 q 633 319 633 256 q 623 426 633 385 q 591 490 613 467 q 535 522 569 513 q 456 531 501 531 q 374 522 408 531 q 319 490 340 513 q 288 426 299 467 q 276 319 276 385 q 288 215 276 256 q 319 150 299 174 q 374 117 340 126 q 456 108 408 108 m 281 724 l 426 881 l 483 881 l 632 724 l 542 724 l 454 797 l 364 724 l 281 724 m 582 860 l 582 876 q 590 899 582 892 q 609 911 599 907 q 627 922 619 915 q 635 940 635 928 l 635 953 q 629 978 635 971 q 610 986 624 986 q 585 957 588 986 l 514 968 q 543 1025 518 1006 q 617 1044 568 1044 q 699 1026 671 1044 q 726 958 726 1007 l 726 954 q 718 917 726 929 q 697 899 710 906 q 676 887 685 893 q 668 868 668 881 l 668 860 l 582 860 z "},"Ỗ":{"ha":911,"x_min":43,"x_max":868,"o":"m 454 -10 q 265 6 343 -10 q 138 58 188 21 q 66 158 89 94 q 43 319 43 222 q 67 483 43 419 q 141 583 90 546 q 270 635 192 619 q 458 650 349 650 q 646 635 568 650 q 773 583 724 619 q 845 482 822 546 q 868 319 868 418 q 844 157 868 221 q 771 56 821 93 q 642 5 721 19 q 454 -10 564 -10 m 456 108 q 535 117 501 108 q 591 150 569 126 q 623 215 613 174 q 633 319 633 256 q 623 426 633 385 q 591 490 613 467 q 535 522 569 513 q 456 531 501 531 q 374 522 408 531 q 319 490 340 513 q 288 426 299 467 q 276 319 276 385 q 288 215 276 256 q 319 150 299 174 q 374 117 340 126 q 456 108 408 108 m 281 724 l 426 881 l 483 881 l 632 724 l 542 724 l 454 797 l 364 724 l 281 724 m 539 907 q 486 920 511 906 q 436 950 461 935 q 383 963 411 965 q 341 947 357 963 q 319 922 325 931 l 282 954 q 289 970 282 956 q 309 1003 296 985 q 341 1035 322 1021 q 383 1050 360 1050 q 437 1037 411 1051 q 488 1008 463 1022 q 538 993 513 993 q 585 1010 568 993 q 608 1040 601 1028 l 646 1010 q 638 994 646 1010 q 617 958 631 978 q 585 922 604 938 q 539 907 565 907 z "},"Ȍ":{"ha":911,"x_min":43,"x_max":868,"o":"m 454 -10 q 265 6 343 -10 q 138 58 188 21 q 66 158 89 94 q 43 319 43 222 q 67 483 43 419 q 141 583 90 546 q 270 635 192 619 q 458 650 349 650 q 646 635 568 650 q 773 583 724 619 q 845 482 822 546 q 868 319 868 418 q 844 157 868 221 q 771 56 821 93 q 642 5 721 19 q 454 -10 564 -10 m 456 108 q 535 117 501 108 q 591 150 569 126 q 623 215 613 174 q 633 319 633 256 q 623 426 633 385 q 591 490 613 467 q 535 522 569 513 q 456 531 501 531 q 374 522 408 531 q 319 490 340 513 q 288 426 299 467 q 276 319 276 385 q 288 215 276 256 q 319 150 299 174 q 374 117 340 126 q 456 108 408 108 m 363 724 l 194 849 l 303 903 l 447 724 l 363 724 m 514 724 l 381 882 l 489 935 l 590 724 l 514 724 z "},"Ö":{"ha":911,"x_min":43,"x_max":868,"o":"m 454 -10 q 265 6 343 -10 q 138 58 188 21 q 66 158 89 94 q 43 319 43 222 q 67 483 43 419 q 141 583 90 546 q 270 635 192 619 q 458 650 349 650 q 646 635 568 650 q 773 583 724 619 q 845 482 822 546 q 868 319 868 418 q 844 157 868 221 q 771 56 821 93 q 642 5 721 19 q 454 -10 564 -10 m 456 108 q 535 117 501 108 q 591 150 569 126 q 623 215 613 174 q 633 319 633 256 q 623 426 633 385 q 591 490 613 467 q 535 522 569 513 q 456 531 501 531 q 374 522 408 531 q 319 490 340 513 q 288 426 299 467 q 276 319 276 385 q 288 215 276 256 q 319 150 299 174 q 374 117 340 126 q 456 108 408 108 m 583 722 q 528 731 550 722 q 507 779 507 740 q 530 824 507 815 q 586 832 553 832 q 638 822 617 832 q 658 779 658 813 q 638 731 658 740 q 583 722 618 722 m 329 722 q 274 731 296 722 q 253 779 253 740 q 276 824 253 815 q 332 832 299 832 q 383 822 364 832 q 403 779 403 813 q 383 732 403 742 q 329 722 363 722 z "},"Ȫ":{"ha":911,"x_min":43,"x_max":868,"o":"m 454 -10 q 265 6 343 -10 q 138 58 188 21 q 66 158 89 94 q 43 319 43 222 q 67 483 43 419 q 141 583 90 546 q 270 635 192 619 q 458 650 349 650 q 646 635 568 650 q 773 583 724 619 q 845 482 822 546 q 868 319 868 418 q 844 157 868 221 q 771 56 821 93 q 642 5 721 19 q 454 -10 564 -10 m 456 108 q 535 117 501 108 q 591 150 569 126 q 623 215 613 174 q 633 319 633 256 q 623 426 633 385 q 591 490 613 467 q 535 522 569 513 q 456 531 501 531 q 374 522 408 531 q 319 490 340 513 q 288 426 299 467 q 276 319 276 385 q 288 215 276 256 q 319 150 299 174 q 374 117 340 126 q 456 108 408 108 m 583 722 q 528 731 550 722 q 507 779 507 740 q 530 824 507 815 q 586 832 553 832 q 638 822 617 832 q 658 779 658 813 q 638 731 658 740 q 583 722 618 722 m 329 722 q 274 731 296 722 q 253 779 253 740 q 276 824 253 815 q 332 832 299 832 q 383 822 364 832 q 403 779 403 813 q 383 732 403 742 q 329 722 363 722 m 261 910 l 261 990 l 650 990 l 650 910 l 261 910 z "},"Ȱ":{"ha":911,"x_min":43,"x_max":868,"o":"m 454 -10 q 265 6 343 -10 q 138 58 188 21 q 66 158 89 94 q 43 319 43 222 q 67 483 43 419 q 141 583 90 546 q 270 635 192 619 q 458 650 349 650 q 646 635 568 650 q 773 583 724 619 q 845 482 822 546 q 868 319 868 418 q 844 157 868 221 q 771 56 821 93 q 642 5 721 19 q 454 -10 564 -10 m 456 108 q 535 117 501 108 q 591 150 569 126 q 623 215 613 174 q 633 319 633 256 q 623 426 633 385 q 591 490 613 467 q 535 522 569 513 q 456 531 501 531 q 374 522 408 531 q 319 490 340 513 q 288 426 299 467 q 276 319 276 385 q 288 215 276 256 q 319 150 299 174 q 374 117 340 126 q 456 108 408 108 m 457 721 q 402 728 424 721 q 381 772 381 736 q 403 815 381 807 q 460 824 426 824 q 511 815 492 824 q 531 772 531 806 q 510 728 531 736 q 457 721 490 721 m 261 911 l 261 992 l 650 992 l 650 911 l 261 911 z "},"Ọ":{"ha":911,"x_min":43,"x_max":868,"o":"m 454 -10 q 265 6 343 -10 q 138 58 188 21 q 66 158 89 94 q 43 319 43 222 q 67 483 43 419 q 141 583 90 546 q 270 635 192 619 q 458 650 349 650 q 646 635 568 650 q 773 583 724 619 q 845 482 822 546 q 868 319 868 418 q 844 157 868 221 q 771 56 821 93 q 642 5 721 19 q 454 -10 564 -10 m 456 108 q 535 117 501 108 q 591 150 569 126 q 623 215 613 174 q 633 319 633 256 q 623 426 633 385 q 591 490 613 467 q 535 522 569 513 q 456 531 501 531 q 374 522 408 531 q 319 490 340 513 q 288 426 299 467 q 276 319 276 385 q 288 215 276 256 q 319 150 299 174 q 374 117 340 126 q 456 108 408 108 m 457 -222 q 403 -218 426 -222 q 367 -200 381 -214 q 354 -156 354 -186 q 385 -99 354 -110 q 460 -87 415 -87 q 531 -99 504 -87 q 557 -156 557 -111 q 544 -200 557 -186 q 510 -218 532 -214 q 457 -222 488 -222 z "},"Ò":{"ha":911,"x_min":43,"x_max":868,"o":"m 454 -10 q 265 6 343 -10 q 138 58 188 21 q 66 158 89 94 q 43 319 43 222 q 67 483 43 419 q 141 583 90 546 q 270 635 192 619 q 458 650 349 650 q 646 635 568 650 q 773 583 724 619 q 845 482 822 546 q 868 319 868 418 q 844 157 868 221 q 771 56 821 93 q 642 5 721 19 q 454 -10 564 -10 m 456 108 q 535 117 501 108 q 591 150 569 126 q 623 215 613 174 q 633 319 633 256 q 623 426 633 385 q 591 490 613 467 q 535 522 569 513 q 456 531 501 531 q 374 522 408 531 q 319 490 340 513 q 288 426 299 467 q 276 319 276 385 q 288 215 276 256 q 319 150 299 174 q 374 117 340 126 q 456 108 408 108 m 458 724 l 292 825 l 385 881 l 544 724 l 458 724 z "},"Ỏ":{"ha":911,"x_min":43,"x_max":868,"o":"m 454 -10 q 265 6 343 -10 q 138 58 188 21 q 66 158 89 94 q 43 319 43 222 q 67 483 43 419 q 141 583 90 546 q 270 635 192 619 q 458 650 349 650 q 646 635 568 650 q 773 583 724 619 q 845 482 822 546 q 868 319 868 418 q 844 157 868 221 q 771 56 821 93 q 642 5 721 19 q 454 -10 564 -10 m 456 108 q 535 117 501 108 q 591 150 569 126 q 623 215 613 174 q 633 319 633 256 q 623 426 633 385 q 591 490 613 467 q 535 522 569 513 q 456 531 501 531 q 374 522 408 531 q 319 490 340 513 q 288 426 299 467 q 276 319 276 385 q 288 215 276 256 q 319 150 299 174 q 374 117 340 126 q 456 108 408 108 m 421 724 l 421 740 q 429 763 421 756 q 448 775 438 771 q 466 785 458 779 q 474 804 474 792 l 474 817 q 468 842 474 835 q 449 850 463 850 q 424 821 426 850 l 353 832 q 382 889 357 869 q 456 908 407 908 q 538 890 510 908 q 565 822 565 871 l 565 818 q 557 781 565 793 q 536 763 549 769 q 515 751 524 757 q 507 732 507 744 l 507 724 l 421 724 z "},"Ơ":{"ha":911,"x_min":43,"x_max":868,"o":"m 454 -10 q 265 6 343 -10 q 138 58 188 21 q 66 158 89 94 q 43 319 43 222 q 67 483 43 419 q 141 583 90 546 q 270 635 192 619 q 458 650 349 650 q 646 635 568 650 q 773 583 724 619 q 845 482 822 546 q 868 319 868 418 q 844 157 868 221 q 771 56 821 93 q 642 5 721 19 q 454 -10 564 -10 m 456 108 q 535 117 501 108 q 591 150 569 126 q 623 215 613 174 q 633 319 633 256 q 623 426 633 385 q 591 490 613 467 q 535 522 569 513 q 456 531 501 531 q 374 522 408 531 q 319 490 340 513 q 288 426 299 467 q 276 319 276 385 q 288 215 276 256 q 319 150 299 174 q 374 117 340 126 q 456 108 408 108 m 629 569 l 626 639 l 656 639 q 689 648 676 639 q 707 672 701 657 q 713 704 713 686 l 713 733 l 817 733 l 817 706 q 769 600 817 632 q 629 569 722 568 z "},"Ớ":{"ha":911,"x_min":43,"x_max":868,"o":"m 454 -10 q 265 6 343 -10 q 138 58 188 21 q 66 158 89 94 q 43 319 43 222 q 67 483 43 419 q 141 583 90 546 q 270 635 192 619 q 458 650 349 650 q 646 635 568 650 q 773 583 724 619 q 845 482 822 546 q 868 319 868 418 q 844 157 868 221 q 771 56 821 93 q 642 5 721 19 q 454 -10 564 -10 m 456 108 q 535 117 501 108 q 591 150 569 126 q 623 215 613 174 q 633 319 633 256 q 623 426 633 385 q 591 490 613 467 q 535 522 569 513 q 456 531 501 531 q 374 522 408 531 q 319 490 340 513 q 288 426 299 467 q 276 319 276 385 q 288 215 276 256 q 319 150 299 174 q 374 117 340 126 q 456 108 408 108 m 629 569 l 626 639 l 656 639 q 689 648 676 639 q 707 672 701 657 q 713 704 713 686 l 713 733 l 817 733 l 817 706 q 769 600 817 632 q 629 569 722 568 m 388 724 l 547 881 l 640 825 l 472 724 l 388 724 z "},"Ợ":{"ha":911,"x_min":43,"x_max":868,"o":"m 454 -10 q 265 6 343 -10 q 138 58 188 21 q 66 158 89 94 q 43 319 43 222 q 67 483 43 419 q 141 583 90 546 q 270 635 192 619 q 458 650 349 650 q 646 635 568 650 q 773 583 724 619 q 845 482 822 546 q 868 319 868 418 q 844 157 868 221 q 771 56 821 93 q 642 5 721 19 q 454 -10 564 -10 m 456 108 q 535 117 501 108 q 591 150 569 126 q 623 215 613 174 q 633 319 633 256 q 623 426 633 385 q 591 490 613 467 q 535 522 569 513 q 456 531 501 531 q 374 522 408 531 q 319 490 340 513 q 288 426 299 467 q 276 319 276 385 q 288 215 276 256 q 319 150 299 174 q 374 117 340 126 q 456 108 408 108 m 629 569 l 626 639 l 656 639 q 689 648 676 639 q 707 672 701 657 q 713 704 713 686 l 713 733 l 817 733 l 817 706 q 769 600 817 632 q 629 569 722 568 m 457 -222 q 403 -218 426 -222 q 367 -200 381 -214 q 354 -156 354 -186 q 385 -99 354 -110 q 460 -87 415 -87 q 531 -99 504 -87 q 557 -156 557 -111 q 544 -200 557 -186 q 510 -218 532 -214 q 457 -222 488 -222 z "},"Ờ":{"ha":911,"x_min":43,"x_max":868,"o":"m 454 -10 q 265 6 343 -10 q 138 58 188 21 q 66 158 89 94 q 43 319 43 222 q 67 483 43 419 q 141 583 90 546 q 270 635 192 619 q 458 650 349 650 q 646 635 568 650 q 773 583 724 619 q 845 482 822 546 q 868 319 868 418 q 844 157 868 221 q 771 56 821 93 q 642 5 721 19 q 454 -10 564 -10 m 456 108 q 535 117 501 108 q 591 150 569 126 q 623 215 613 174 q 633 319 633 256 q 623 426 633 385 q 591 490 613 467 q 535 522 569 513 q 456 531 501 531 q 374 522 408 531 q 319 490 340 513 q 288 426 299 467 q 276 319 276 385 q 288 215 276 256 q 319 150 299 174 q 374 117 340 126 q 456 108 408 108 m 629 569 l 626 639 l 656 639 q 689 648 676 639 q 707 672 701 657 q 713 704 713 686 l 713 733 l 817 733 l 817 706 q 769 600 817 632 q 629 569 722 568 m 458 724 l 292 825 l 385 881 l 544 724 l 458 724 z "},"Ở":{"ha":911,"x_min":43,"x_max":868,"o":"m 454 -10 q 265 6 343 -10 q 138 58 188 21 q 66 158 89 94 q 43 319 43 222 q 67 483 43 419 q 141 583 90 546 q 270 635 192 619 q 458 650 349 650 q 646 635 568 650 q 773 583 724 619 q 845 482 822 546 q 868 319 868 418 q 844 157 868 221 q 771 56 821 93 q 642 5 721 19 q 454 -10 564 -10 m 456 108 q 535 117 501 108 q 591 150 569 126 q 623 215 613 174 q 633 319 633 256 q 623 426 633 385 q 591 490 613 467 q 535 522 569 513 q 456 531 501 531 q 374 522 408 531 q 319 490 340 513 q 288 426 299 467 q 276 319 276 385 q 288 215 276 256 q 319 150 299 174 q 374 117 340 126 q 456 108 408 108 m 629 569 l 626 639 l 656 639 q 689 648 676 639 q 707 672 701 657 q 713 704 713 686 l 713 733 l 817 733 l 817 706 q 769 600 817 632 q 629 569 722 568 m 421 724 l 421 740 q 429 763 421 756 q 448 775 438 771 q 466 785 458 779 q 474 804 474 792 l 474 817 q 468 842 474 835 q 449 850 463 850 q 424 821 426 850 l 353 832 q 382 889 357 869 q 456 908 407 908 q 538 890 510 908 q 565 822 565 871 l 565 818 q 557 781 565 793 q 536 763 549 769 q 515 751 524 757 q 507 732 507 744 l 507 724 l 421 724 z "},"Ỡ":{"ha":911,"x_min":43,"x_max":868,"o":"m 454 -10 q 265 6 343 -10 q 138 58 188 21 q 66 158 89 94 q 43 319 43 222 q 67 483 43 419 q 141 583 90 546 q 270 635 192 619 q 458 650 349 650 q 646 635 568 650 q 773 583 724 619 q 845 482 822 546 q 868 319 868 418 q 844 157 868 221 q 771 56 821 93 q 642 5 721 19 q 454 -10 564 -10 m 456 108 q 535 117 501 108 q 591 150 569 126 q 623 215 613 174 q 633 319 633 256 q 623 426 633 385 q 591 490 613 467 q 535 522 569 513 q 456 531 501 531 q 374 522 408 531 q 319 490 340 513 q 288 426 299 467 q 276 319 276 385 q 288 215 276 256 q 319 150 299 174 q 374 117 340 126 q 456 108 408 108 m 629 569 l 626 639 l 656 639 q 689 648 676 639 q 707 672 701 657 q 713 704 713 686 l 713 733 l 817 733 l 817 706 q 769 600 817 632 q 629 569 722 568 m 535 725 q 482 738 507 724 q 432 768 457 753 q 379 781 407 783 q 337 765 353 781 q 315 740 321 749 l 278 772 q 285 788 278 774 q 305 821 292 803 q 337 853 318 839 q 379 868 356 868 q 433 855 407 869 q 483 826 458 840 q 533 811 508 811 q 581 828 564 811 q 604 858 597 846 l 642 828 q 634 812 642 828 q 613 776 626 796 q 581 740 600 756 q 535 725 561 725 z "},"Ő":{"ha":911,"x_min":43,"x_max":868,"o":"m 454 -10 q 265 6 343 -10 q 138 58 188 21 q 66 158 89 94 q 43 319 43 222 q 67 483 43 419 q 141 583 90 546 q 270 635 192 619 q 458 650 349 650 q 646 635 568 650 q 773 583 724 619 q 845 482 822 546 q 868 319 868 418 q 844 157 868 221 q 771 56 821 93 q 642 5 721 19 q 454 -10 564 -10 m 456 108 q 535 117 501 108 q 591 150 569 126 q 623 215 613 174 q 633 319 633 256 q 623 426 633 385 q 591 490 613 467 q 535 522 569 513 q 456 531 501 531 q 374 522 408 531 q 319 490 340 513 q 288 426 299 467 q 276 319 276 385 q 288 215 276 256 q 319 150 299 174 q 374 117 340 126 q 456 108 408 108 m 511 724 l 565 881 l 683 879 l 599 724 l 511 724 m 325 724 l 381 881 l 497 879 l 413 724 l 325 724 z "},"Ȏ":{"ha":911,"x_min":43,"x_max":868,"o":"m 454 -10 q 265 6 343 -10 q 138 58 188 21 q 66 158 89 94 q 43 319 43 222 q 67 483 43 419 q 141 583 90 546 q 270 635 192 619 q 458 650 349 650 q 646 635 568 650 q 773 583 724 619 q 845 482 822 546 q 868 319 868 418 q 844 157 868 221 q 771 56 821 93 q 642 5 721 19 q 454 -10 564 -10 m 456 108 q 535 117 501 108 q 591 150 569 126 q 623 215 613 174 q 633 319 633 256 q 623 426 633 385 q 591 490 613 467 q 535 522 569 513 q 456 531 501 531 q 374 522 408 531 q 319 490 340 513 q 288 426 299 467 q 276 319 276 385 q 288 215 276 256 q 319 150 299 174 q 374 117 340 126 q 456 108 408 108 m 289 722 l 289 732 q 307 828 289 796 q 363 870 325 860 q 457 881 400 881 q 551 869 514 881 q 605 827 588 858 q 622 732 622 796 l 622 722 l 544 722 l 544 731 q 538 767 544 750 q 513 793 532 783 q 456 803 494 803 q 400 793 418 803 q 376 767 382 783 q 368 731 369 751 l 368 722 l 289 722 z "},"Ō":{"ha":911,"x_min":43,"x_max":868,"o":"m 454 -10 q 265 6 343 -10 q 138 58 188 21 q 66 158 89 94 q 43 319 43 222 q 67 483 43 419 q 141 583 90 546 q 270 635 192 619 q 458 650 349 650 q 646 635 568 650 q 773 583 724 619 q 845 482 822 546 q 868 319 868 418 q 844 157 868 221 q 771 56 821 93 q 642 5 721 19 q 454 -10 564 -10 m 456 108 q 535 117 501 108 q 591 150 569 126 q 623 215 613 174 q 633 319 633 256 q 623 426 633 385 q 591 490 613 467 q 535 522 569 513 q 456 531 501 531 q 374 522 408 531 q 319 490 340 513 q 288 426 299 467 q 276 319 276 385 q 288 215 276 256 q 319 150 299 174 q 374 117 340 126 q 456 108 408 108 m 261 724 l 261 804 l 650 804 l 650 724 l 261 724 z "},"Ω":{"ha":946,"x_min":57,"x_max":889,"o":"m 100 0 q 79 32 90 15 q 57 64 68 49 q 178 52 118 57 q 297 42 238 47 q 233 112 265 72 q 174 199 201 151 q 132 301 147 247 q 117 415 117 356 q 156 556 117 497 q 276 646 196 614 q 474 678 356 678 q 672 646 593 678 q 792 556 751 614 q 832 415 832 497 q 815 301 832 356 q 772 199 799 247 q 713 112 746 151 q 647 42 679 72 q 767 52 707 47 q 889 64 828 57 q 869 32 879 49 q 846 0 858 15 q 687 0 767 0 q 528 0 607 0 q 602 69 575 29 q 643 156 629 110 q 661 250 657 203 q 665 339 665 297 q 653 426 665 383 q 618 502 642 468 q 558 556 594 536 q 474 576 522 576 q 389 556 425 576 q 330 502 353 536 q 295 426 307 468 q 283 339 283 383 q 288 250 283 297 q 306 156 292 203 q 347 69 319 110 q 424 0 375 28 q 263 0 343 0 q 100 0 182 0 z "},"Ǫ":{"ha":911,"x_min":43,"x_max":868,"o":"m 454 -10 q 265 6 343 -10 q 138 58 188 21 q 66 158 89 94 q 43 319 43 222 q 67 483 43 419 q 141 583 90 546 q 270 635 192 619 q 458 650 349 650 q 646 635 568 650 q 773 583 724 619 q 845 482 822 546 q 868 319 868 418 q 844 157 868 221 q 771 56 821 93 q 642 5 721 19 q 454 -10 564 -10 m 456 108 q 535 117 501 108 q 591 150 569 126 q 623 215 613 174 q 633 319 633 256 q 623 426 633 385 q 591 490 613 467 q 535 522 569 513 q 456 531 501 531 q 374 522 408 531 q 319 490 340 513 q 288 426 299 467 q 276 319 276 385 q 288 215 276 256 q 319 150 299 174 q 374 117 340 126 q 456 108 408 108 m 472 -256 q 389 -243 418 -256 q 349 -206 360 -231 q 338 -146 338 -181 q 351 -88 338 -114 q 385 -42 365 -62 q 428 -7 406 -21 q 467 14 450 7 l 561 14 q 528 -3 550 10 q 484 -35 507 -17 q 445 -76 461 -54 q 429 -118 429 -97 q 452 -168 429 -158 q 510 -178 475 -178 q 549 -177 538 -178 q 565 -176 561 -176 q 572 -175 569 -175 q 566 -221 572 -203 q 538 -247 560 -239 q 472 -256 517 -256 z "},"Ø":{"ha":899,"x_min":38,"x_max":863,"o":"m 38 319 q 72 501 38 435 q 165 600 106 568 q 300 641 224 632 q 460 650 376 650 q 617 640 544 650 q 744 597 689 629 q 831 499 800 565 q 863 319 863 432 q 828 138 863 204 q 735 40 794 71 q 600 -1 676 8 q 440 -10 524 -10 q 281 0 354 -10 q 153 42 207 10 q 68 142 99 75 q 38 319 38 208 m 636 318 q 624 431 636 389 q 587 494 611 472 q 528 524 563 517 q 450 531 493 531 q 370 524 406 531 q 311 494 335 517 q 274 431 288 472 q 261 318 261 389 q 274 206 261 249 q 311 141 288 163 q 370 113 335 119 q 450 106 406 106 q 528 113 493 106 q 587 141 563 119 q 624 206 611 163 q 636 318 636 249 m 240 -118 l 565 729 l 629 729 l 301 -118 l 240 -118 z "},"Ǿ":{"ha":899,"x_min":38,"x_max":863,"o":"m 38 319 q 72 501 38 435 q 165 600 106 568 q 300 641 224 632 q 460 650 376 650 q 617 640 544 650 q 744 597 689 629 q 831 499 800 565 q 863 319 863 432 q 828 138 863 204 q 735 40 794 71 q 600 -1 676 8 q 440 -10 524 -10 q 281 0 354 -10 q 153 42 207 10 q 68 142 99 75 q 38 319 38 208 m 636 318 q 624 431 636 389 q 587 494 611 472 q 528 524 563 517 q 450 531 493 531 q 370 524 406 531 q 311 494 335 517 q 274 431 288 472 q 261 318 261 389 q 274 206 261 249 q 311 141 288 163 q 370 113 335 119 q 450 106 406 106 q 528 113 493 106 q 587 141 563 119 q 624 206 611 163 q 636 318 636 249 m 240 -118 l 565 729 l 629 729 l 301 -118 l 240 -118 m 382 724 l 542 881 l 635 825 l 467 724 l 382 724 z "},"Õ":{"ha":911,"x_min":43,"x_max":868,"o":"m 454 -10 q 265 6 343 -10 q 138 58 188 21 q 66 158 89 94 q 43 319 43 222 q 67 483 43 419 q 141 583 90 546 q 270 635 192 619 q 458 650 349 650 q 646 635 568 650 q 773 583 724 619 q 845 482 822 546 q 868 319 868 418 q 844 157 868 221 q 771 56 821 93 q 642 5 721 19 q 454 -10 564 -10 m 456 108 q 535 117 501 108 q 591 150 569 126 q 623 215 613 174 q 633 319 633 256 q 623 426 633 385 q 591 490 613 467 q 535 522 569 513 q 456 531 501 531 q 374 522 408 531 q 319 490 340 513 q 288 426 299 467 q 276 319 276 385 q 288 215 276 256 q 319 150 299 174 q 374 117 340 126 q 456 108 408 108 m 535 725 q 482 738 507 724 q 432 768 457 753 q 379 781 407 783 q 337 765 353 781 q 315 740 321 749 l 278 772 q 285 788 278 774 q 305 821 292 803 q 337 853 318 839 q 379 868 356 868 q 433 855 407 869 q 483 826 458 840 q 533 811 508 811 q 581 828 564 811 q 604 858 597 846 l 642 828 q 634 812 642 828 q 613 776 626 796 q 581 740 600 756 q 535 725 561 725 z "},"Ȭ":{"ha":911,"x_min":43,"x_max":868,"o":"m 454 -10 q 265 6 343 -10 q 138 58 188 21 q 66 158 89 94 q 43 319 43 222 q 67 483 43 419 q 141 583 90 546 q 270 635 192 619 q 458 650 349 650 q 646 635 568 650 q 773 583 724 619 q 845 482 822 546 q 868 319 868 418 q 844 157 868 221 q 771 56 821 93 q 642 5 721 19 q 454 -10 564 -10 m 456 108 q 535 117 501 108 q 591 150 569 126 q 623 215 613 174 q 633 319 633 256 q 623 426 633 385 q 591 490 613 467 q 535 522 569 513 q 456 531 501 531 q 374 522 408 531 q 319 490 340 513 q 288 426 299 467 q 276 319 276 385 q 288 215 276 256 q 319 150 299 174 q 374 117 340 126 q 456 108 408 108 m 535 725 q 482 738 507 724 q 432 768 457 753 q 379 781 407 783 q 337 765 353 781 q 315 740 321 749 l 278 772 q 285 788 278 774 q 305 821 292 803 q 337 853 318 839 q 379 868 356 868 q 433 855 407 869 q 483 826 458 840 q 533 811 508 811 q 581 828 564 811 q 604 858 597 846 l 642 828 q 634 812 642 828 q 613 776 626 796 q 581 740 600 756 q 535 725 561 725 m 261 918 l 261 999 l 650 999 l 650 918 l 261 918 z "},"P":{"ha":874,"x_min":74,"x_max":836,"o":"m 75 0 q 74 269 75 135 q 74 539 74 404 q 92 615 74 592 q 165 639 110 639 q 315 640 238 639 q 468 640 392 640 q 615 639 544 639 q 728 619 679 638 q 807 556 778 600 q 836 435 836 511 q 809 301 836 351 q 733 228 782 250 q 621 207 685 207 q 449 208 538 208 q 278 208 360 208 q 278 284 278 260 q 285 316 278 308 q 310 324 292 324 q 375 324 339 324 q 450 324 411 324 q 524 324 489 324 q 567 334 549 324 q 595 368 585 344 q 606 429 606 392 q 590 495 606 474 q 538 519 574 517 q 465 521 500 521 q 394 521 429 521 q 329 519 360 521 q 311 513 321 519 q 301 494 301 506 q 301 248 301 371 q 301 0 301 125 l 75 0 z "},"Q":{"ha":913,"x_min":43,"x_max":868,"o":"m 454 -10 q 265 6 343 -10 q 138 58 188 21 q 66 158 89 94 q 43 319 43 222 q 67 483 43 419 q 141 583 90 546 q 270 635 192 619 q 458 650 349 650 q 646 635 568 650 q 773 583 724 619 q 845 482 822 546 q 868 319 868 418 q 844 157 868 221 q 771 56 821 93 q 642 5 721 19 q 454 -10 564 -10 m 456 108 q 535 117 501 108 q 591 150 569 126 q 623 215 613 174 q 633 319 633 256 q 623 426 633 385 q 591 490 613 467 q 535 522 569 513 q 456 531 501 531 q 374 522 408 531 q 319 490 340 513 q 288 426 299 467 q 276 319 276 385 q 288 215 276 256 q 319 150 299 174 q 374 117 340 126 q 456 108 408 108 m 763 -122 q 706 -109 735 -122 q 646 -65 678 -96 q 609 -24 631 -50 q 562 32 588 1 q 509 94 536 63 q 456 151 482 125 q 407 196 429 178 q 430 226 414 217 q 463 235 446 235 q 505 227 486 235 q 551 196 524 219 q 610 144 581 172 q 667 88 639 117 q 725 31 696 58 q 786 -20 754 4 q 854 -62 818 -44 q 816 -108 839 -94 q 763 -122 793 -122 z "},"R":{"ha":908,"x_min":74,"x_max":860,"o":"m 483 215 q 456 215 483 215 q 388 215 429 215 q 301 214 346 214 l 301 0 l 74 0 l 74 554 q 92 617 74 594 q 165 639 110 639 q 228 640 186 639 q 324 640 269 640 q 435 641 378 640 q 546 641 493 642 q 638 640 599 640 q 696 638 678 639 q 808 592 771 631 q 846 468 846 554 q 834 355 846 390 q 796 300 822 319 q 769 289 786 293 q 732 285 753 285 l 732 279 q 753 279 742 279 q 774 278 765 279 q 837 238 826 268 q 847 174 847 207 l 847 51 q 853 13 847 25 q 860 0 858 1 l 690 0 q 634 11 654 0 q 614 58 614 22 l 614 150 q 595 204 614 193 q 529 215 576 215 l 483 215 m 301 324 q 348 323 317 324 q 417 322 379 322 q 485 322 454 322 q 531 322 517 322 q 590 344 564 322 q 615 425 615 365 q 601 490 615 467 q 553 517 586 514 q 501 521 533 521 q 433 521 468 521 q 368 520 397 521 q 325 519 339 519 q 312 515 322 519 q 301 494 301 511 l 301 324 z "},"Ŕ":{"ha":908,"x_min":74,"x_max":860,"o":"m 483 215 q 456 215 483 215 q 388 215 429 215 q 301 214 346 214 l 301 0 l 74 0 l 74 554 q 92 617 74 594 q 165 639 110 639 q 228 640 186 639 q 324 640 269 640 q 435 641 378 640 q 546 641 493 642 q 638 640 599 640 q 696 638 678 639 q 808 592 771 631 q 846 468 846 554 q 834 355 846 390 q 796 300 822 319 q 769 289 786 293 q 732 285 753 285 l 732 279 q 753 279 742 279 q 774 278 765 279 q 837 238 826 268 q 847 174 847 207 l 847 51 q 853 13 847 25 q 860 0 858 1 l 690 0 q 634 11 654 0 q 614 58 614 22 l 614 150 q 595 204 614 193 q 529 215 576 215 l 483 215 m 301 324 q 348 323 317 324 q 417 322 379 322 q 485 322 454 322 q 531 322 517 322 q 590 344 564 322 q 615 425 615 365 q 601 490 615 467 q 553 517 586 514 q 501 521 533 521 q 433 521 468 521 q 368 520 397 521 q 325 519 339 519 q 312 515 322 519 q 301 494 301 511 l 301 324 m 397 724 l 557 881 l 650 825 l 482 724 l 397 724 z "},"Ř":{"ha":908,"x_min":74,"x_max":860,"o":"m 290 881 l 374 881 l 465 807 l 551 881 l 642 881 l 493 724 l 436 724 l 290 881 m 483 215 q 456 215 483 215 q 388 215 429 215 q 301 214 346 214 l 301 0 l 74 0 l 74 554 q 92 617 74 594 q 165 639 110 639 q 228 640 186 639 q 324 640 269 640 q 435 641 378 640 q 546 641 493 642 q 638 640 599 640 q 696 638 678 639 q 808 592 771 631 q 846 468 846 554 q 834 355 846 390 q 796 300 822 319 q 769 289 786 293 q 732 285 753 285 l 732 279 q 753 279 742 279 q 774 278 765 279 q 837 238 826 268 q 847 174 847 207 l 847 51 q 853 13 847 25 q 860 0 858 1 l 690 0 q 634 11 654 0 q 614 58 614 22 l 614 150 q 595 204 614 193 q 529 215 576 215 l 483 215 m 301 324 q 348 323 317 324 q 417 322 379 322 q 485 322 454 322 q 531 322 517 322 q 590 344 564 322 q 615 425 615 365 q 601 490 615 467 q 553 517 586 514 q 501 521 533 521 q 433 521 468 521 q 368 520 397 521 q 325 519 339 519 q 312 515 322 519 q 301 494 301 511 l 301 324 z "},"Ŗ":{"ha":908,"x_min":74,"x_max":860,"o":"m 483 215 q 456 215 483 215 q 388 215 429 215 q 301 214 346 214 l 301 0 l 74 0 l 74 554 q 92 617 74 594 q 165 639 110 639 q 228 640 186 639 q 324 640 269 640 q 435 641 378 640 q 546 641 493 642 q 638 640 599 640 q 696 638 678 639 q 808 592 771 631 q 846 468 846 554 q 834 355 846 390 q 796 300 822 319 q 769 289 786 293 q 732 285 753 285 l 732 279 q 753 279 742 279 q 774 278 765 279 q 837 238 826 268 q 847 174 847 207 l 847 51 q 853 13 847 25 q 860 0 858 1 l 690 0 q 634 11 654 0 q 614 58 614 22 l 614 150 q 595 204 614 193 q 529 215 576 215 l 483 215 m 301 324 q 348 323 317 324 q 417 322 379 322 q 485 322 454 322 q 531 322 517 322 q 590 344 564 322 q 615 425 615 365 q 601 490 615 467 q 553 517 586 514 q 501 521 533 521 q 433 521 468 521 q 368 520 397 521 q 325 519 339 519 q 312 515 322 519 q 301 494 301 511 l 301 324 m 376 -354 q 402 -304 392 -325 q 423 -263 413 -283 q 444 -218 433 -243 q 435 -217 440 -218 q 424 -217 429 -217 q 390 -201 406 -214 q 375 -154 375 -189 q 401 -99 375 -110 q 474 -87 428 -87 q 510 -92 493 -87 q 538 -110 526 -96 q 549 -154 549 -125 q 536 -223 549 -186 q 504 -294 524 -260 q 464 -354 485 -328 l 376 -354 z "},"Ȑ":{"ha":908,"x_min":74,"x_max":860,"o":"m 483 215 q 456 215 483 215 q 388 215 429 215 q 301 214 346 214 l 301 0 l 74 0 l 74 554 q 92 617 74 594 q 165 639 110 639 q 228 640 186 639 q 324 640 269 640 q 435 641 378 640 q 546 641 493 642 q 638 640 599 640 q 696 638 678 639 q 808 592 771 631 q 846 468 846 554 q 834 355 846 390 q 796 300 822 319 q 769 289 786 293 q 732 285 753 285 l 732 279 q 753 279 742 279 q 774 278 765 279 q 837 238 826 268 q 847 174 847 207 l 847 51 q 853 13 847 25 q 860 0 858 1 l 690 0 q 634 11 654 0 q 614 58 614 22 l 614 150 q 595 204 614 193 q 529 215 576 215 l 483 215 m 301 324 q 348 323 317 324 q 417 322 379 322 q 485 322 454 322 q 531 322 517 322 q 590 344 564 322 q 615 425 615 365 q 601 490 615 467 q 553 517 586 514 q 501 521 533 521 q 433 521 468 521 q 368 520 397 521 q 325 519 339 519 q 312 515 322 519 q 301 494 301 511 l 301 324 m 372 724 l 204 849 l 313 903 l 457 724 l 372 724 m 524 724 l 390 882 l 499 935 l 600 724 l 524 724 z "},"Ȓ":{"ha":908,"x_min":74,"x_max":860,"o":"m 483 215 q 456 215 483 215 q 388 215 429 215 q 301 214 346 214 l 301 0 l 74 0 l 74 554 q 92 617 74 594 q 165 639 110 639 q 228 640 186 639 q 324 640 269 640 q 435 641 378 640 q 546 641 493 642 q 638 640 599 640 q 696 638 678 639 q 808 592 771 631 q 846 468 846 554 q 834 355 846 390 q 796 300 822 319 q 769 289 786 293 q 732 285 753 285 l 732 279 q 753 279 742 279 q 774 278 765 279 q 837 238 826 268 q 847 174 847 207 l 847 51 q 853 13 847 25 q 860 0 858 1 l 690 0 q 634 11 654 0 q 614 58 614 22 l 614 150 q 595 204 614 193 q 529 215 576 215 l 483 215 m 301 324 q 348 323 317 324 q 417 322 379 322 q 485 322 454 322 q 531 322 517 322 q 590 344 564 322 q 615 425 615 365 q 601 490 615 467 q 553 517 586 514 q 501 521 533 521 q 433 521 468 521 q 368 520 397 521 q 325 519 339 519 q 312 515 322 519 q 301 494 301 511 l 301 324 m 299 722 l 299 732 q 317 828 299 796 q 372 870 335 860 q 467 881 410 881 q 560 869 524 881 q 615 827 597 858 q 632 732 632 796 l 632 722 l 554 722 l 554 731 q 548 767 554 750 q 523 793 542 783 q 465 803 504 803 q 410 793 428 803 q 385 767 392 783 q 378 731 379 751 l 378 722 l 299 722 z "},"S":{"ha":853,"x_min":54,"x_max":801,"o":"m 54 151 q 143 128 89 136 q 256 119 197 121 q 358 118 314 118 q 401 118 375 118 q 443 119 426 118 q 507 127 481 119 q 547 151 533 135 q 560 199 560 168 q 539 247 560 235 q 475 258 518 258 q 440 258 460 258 q 389 258 419 258 q 310 258 358 258 q 220 263 265 258 q 139 283 175 267 q 81 334 103 299 q 60 432 60 369 q 85 549 60 507 q 158 613 111 592 q 269 639 204 633 q 411 644 333 644 q 513 643 458 644 q 616 639 568 642 q 690 629 664 636 q 763 604 738 626 q 789 549 789 582 q 789 530 789 543 q 789 504 789 517 q 789 490 789 492 q 748 506 778 500 q 678 515 718 513 q 601 519 639 518 q 533 521 563 521 l 408 521 q 345 515 371 521 q 307 493 319 508 q 294 450 294 478 q 303 415 294 428 q 329 396 311 401 q 376 390 347 390 q 513 390 461 390 q 579 390 564 390 q 696 379 646 390 q 774 329 746 368 q 801 210 801 290 q 771 88 801 133 q 687 22 740 43 q 563 -3 633 1 q 436 -7 496 -7 q 310 -7 376 -7 q 208 -2 254 -6 q 126 10 161 1 q 73 35 92 19 q 54 78 54 51 l 54 151 z "},"Ś":{"ha":853,"x_min":54,"x_max":801,"o":"m 54 151 q 143 128 89 136 q 256 119 197 121 q 358 118 314 118 q 401 118 375 118 q 443 119 426 118 q 507 127 481 119 q 547 151 533 135 q 560 199 560 168 q 539 247 560 235 q 475 258 518 258 q 440 258 460 258 q 389 258 419 258 q 310 258 358 258 q 220 263 265 258 q 139 283 175 267 q 81 334 103 299 q 60 432 60 369 q 85 549 60 507 q 158 613 111 592 q 269 639 204 633 q 411 644 333 644 q 513 643 458 644 q 616 639 568 642 q 690 629 664 636 q 763 604 738 626 q 789 549 789 582 q 789 530 789 543 q 789 504 789 517 q 789 490 789 492 q 748 506 778 500 q 678 515 718 513 q 601 519 639 518 q 533 521 563 521 l 408 521 q 345 515 371 521 q 307 493 319 508 q 294 450 294 478 q 303 415 294 428 q 329 396 311 401 q 376 390 347 390 q 513 390 461 390 q 579 390 564 390 q 696 379 646 390 q 774 329 746 368 q 801 210 801 290 q 771 88 801 133 q 687 22 740 43 q 563 -3 633 1 q 436 -7 496 -7 q 310 -7 376 -7 q 208 -2 254 -6 q 126 10 161 1 q 73 35 92 19 q 54 78 54 51 l 54 151 m 365 724 l 525 881 l 618 825 l 450 724 l 365 724 z "},"Š":{"ha":853,"x_min":54,"x_max":801,"o":"m 258 881 l 342 881 l 432 807 l 519 881 l 610 881 l 461 724 l 404 724 l 258 881 m 54 151 q 143 128 89 136 q 256 119 197 121 q 358 118 314 118 q 401 118 375 118 q 443 119 426 118 q 507 127 481 119 q 547 151 533 135 q 560 199 560 168 q 539 247 560 235 q 475 258 518 258 q 440 258 460 258 q 389 258 419 258 q 310 258 358 258 q 220 263 265 258 q 139 283 175 267 q 81 334 103 299 q 60 432 60 369 q 85 549 60 507 q 158 613 111 592 q 269 639 204 633 q 411 644 333 644 q 513 643 458 644 q 616 639 568 642 q 690 629 664 636 q 763 604 738 626 q 789 549 789 582 q 789 530 789 543 q 789 504 789 517 q 789 490 789 492 q 748 506 778 500 q 678 515 718 513 q 601 519 639 518 q 533 521 563 521 l 408 521 q 345 515 371 521 q 307 493 319 508 q 294 450 294 478 q 303 415 294 428 q 329 396 311 401 q 376 390 347 390 q 513 390 461 390 q 579 390 564 390 q 696 379 646 390 q 774 329 746 368 q 801 210 801 290 q 771 88 801 133 q 687 22 740 43 q 563 -3 633 1 q 436 -7 496 -7 q 310 -7 376 -7 q 208 -2 254 -6 q 126 10 161 1 q 73 35 92 19 q 54 78 54 51 l 54 151 z "},"Ş":{"ha":853,"x_min":54,"x_max":801,"o":"m 54 151 q 143 128 89 136 q 256 119 197 121 q 358 118 314 118 q 401 118 375 118 q 443 119 426 118 q 507 127 481 119 q 547 151 533 135 q 560 199 560 168 q 539 247 560 235 q 475 258 518 258 q 440 258 460 258 q 389 258 419 258 q 310 258 358 258 q 220 263 265 258 q 139 283 175 267 q 81 334 103 299 q 60 432 60 369 q 85 549 60 507 q 158 613 111 592 q 269 639 204 633 q 411 644 333 644 q 513 643 458 644 q 616 639 568 642 q 690 629 664 636 q 763 604 738 626 q 789 549 789 582 q 789 530 789 543 q 789 504 789 517 q 789 490 789 492 q 748 506 778 500 q 678 515 718 513 q 601 519 639 518 q 533 521 563 521 l 408 521 q 345 515 371 521 q 307 493 319 508 q 294 450 294 478 q 303 415 294 428 q 329 396 311 401 q 376 390 347 390 q 513 390 461 390 q 579 390 564 390 q 696 379 646 390 q 774 329 746 368 q 801 210 801 290 q 771 88 801 133 q 687 22 740 43 q 563 -3 633 1 q 436 -7 496 -7 q 310 -7 376 -7 q 208 -2 254 -6 q 126 10 161 1 q 73 35 92 19 q 54 78 54 51 l 54 151 m 382 -249 q 320 -239 333 -249 q 307 -199 307 -229 q 328 -199 311 -199 q 376 -199 344 -199 q 428 -192 414 -199 q 442 -169 442 -186 q 428 -142 442 -147 q 376 -136 415 -136 l 317 -136 q 312 -129 315 -136 q 312 -109 308 -122 q 329 -78 315 -96 q 350 -56 339 -68 q 374 -33 361 -44 q 401 -12 388 -21 q 425 1 414 -3 l 486 1 l 411 -90 q 502 -94 472 -89 q 542 -116 532 -99 q 551 -171 551 -133 q 538 -225 551 -208 q 488 -245 524 -242 q 382 -249 451 -249 z "},"Ə":{"ha":842,"x_min":64,"x_max":793,"o":"m 419 646 q 604 633 532 646 q 718 586 676 619 q 776 492 760 553 q 793 333 793 431 q 759 135 793 210 q 638 28 725 61 q 393 -6 550 -6 q 200 20 272 -6 q 96 100 128 46 q 64 238 64 154 q 72 315 64 289 q 103 351 79 342 q 174 361 126 361 l 611 361 q 596 305 611 328 q 539 282 581 282 l 311 282 q 289 274 300 282 q 278 247 278 267 q 305 150 278 183 q 404 117 332 117 q 497 135 464 117 q 541 200 529 154 q 553 329 553 246 q 538 444 553 406 q 484 497 524 483 q 368 510 444 510 q 311 509 346 510 q 238 507 276 508 q 162 503 199 506 q 99 498 125 500 q 65 494 74 496 l 65 524 q 73 572 65 546 q 101 610 81 597 q 208 640 131 633 q 419 646 286 646 z "},"Ŝ":{"ha":853,"x_min":54,"x_max":801,"o":"m 54 151 q 143 128 89 136 q 256 119 197 121 q 358 118 314 118 q 401 118 375 118 q 443 119 426 118 q 507 127 481 119 q 547 151 533 135 q 560 199 560 168 q 539 247 560 235 q 475 258 518 258 q 440 258 460 258 q 389 258 419 258 q 310 258 358 258 q 220 263 265 258 q 139 283 175 267 q 81 334 103 299 q 60 432 60 369 q 85 549 60 507 q 158 613 111 592 q 269 639 204 633 q 411 644 333 644 q 513 643 458 644 q 616 639 568 642 q 690 629 664 636 q 763 604 738 626 q 789 549 789 582 q 789 530 789 543 q 789 504 789 517 q 789 490 789 492 q 748 506 778 500 q 678 515 718 513 q 601 519 639 518 q 533 521 563 521 l 408 521 q 345 515 371 521 q 307 493 319 508 q 294 450 294 478 q 303 415 294 428 q 329 396 311 401 q 376 390 347 390 q 513 390 461 390 q 579 390 564 390 q 696 379 646 390 q 774 329 746 368 q 801 210 801 290 q 771 88 801 133 q 687 22 740 43 q 563 -3 633 1 q 436 -7 496 -7 q 310 -7 376 -7 q 208 -2 254 -6 q 126 10 161 1 q 73 35 92 19 q 54 78 54 51 l 54 151 m 258 724 l 404 881 l 461 881 l 610 724 l 519 724 l 432 797 l 342 724 l 258 724 z "},"Ș":{"ha":853,"x_min":54,"x_max":801,"o":"m 54 151 q 143 128 89 136 q 256 119 197 121 q 358 118 314 118 q 401 118 375 118 q 443 119 426 118 q 507 127 481 119 q 547 151 533 135 q 560 199 560 168 q 539 247 560 235 q 475 258 518 258 q 440 258 460 258 q 389 258 419 258 q 310 258 358 258 q 220 263 265 258 q 139 283 175 267 q 81 334 103 299 q 60 432 60 369 q 85 549 60 507 q 158 613 111 592 q 269 639 204 633 q 411 644 333 644 q 513 643 458 644 q 616 639 568 642 q 690 629 664 636 q 763 604 738 626 q 789 549 789 582 q 789 530 789 543 q 789 504 789 517 q 789 490 789 492 q 748 506 778 500 q 678 515 718 513 q 601 519 639 518 q 533 521 563 521 l 408 521 q 345 515 371 521 q 307 493 319 508 q 294 450 294 478 q 303 415 294 428 q 329 396 311 401 q 376 390 347 390 q 513 390 461 390 q 579 390 564 390 q 696 379 646 390 q 774 329 746 368 q 801 210 801 290 q 771 88 801 133 q 687 22 740 43 q 563 -3 633 1 q 436 -7 496 -7 q 310 -7 376 -7 q 208 -2 254 -6 q 126 10 161 1 q 73 35 92 19 q 54 78 54 51 l 54 151 m 339 -354 q 365 -304 354 -325 q 385 -263 375 -283 q 407 -218 396 -243 q 397 -217 403 -218 q 386 -217 392 -217 q 353 -201 368 -214 q 338 -154 338 -189 q 364 -99 338 -110 q 436 -87 390 -87 q 472 -92 456 -87 q 500 -110 489 -96 q 511 -154 511 -125 q 499 -223 511 -186 q 467 -294 486 -260 q 426 -354 447 -328 l 339 -354 z "},"T":{"ha":817,"x_min":25,"x_max":792,"o":"m 25 639 l 792 639 l 792 518 l 524 518 l 524 75 q 510 15 524 31 q 447 0 496 0 l 294 0 l 294 518 l 25 518 l 25 639 z "},"Ŧ":{"ha":813,"x_min":24,"x_max":789,"o":"m 128 388 l 293 388 l 293 518 l 24 518 l 24 639 l 789 639 l 789 518 l 522 518 l 522 388 l 694 388 l 694 326 l 522 326 l 522 75 q 508 15 522 31 q 446 0 494 0 l 293 0 l 293 326 l 128 326 l 128 388 z "},"Ť":{"ha":817,"x_min":25,"x_max":792,"o":"m 233 881 l 317 881 l 407 807 l 494 881 l 583 881 l 436 724 l 378 724 l 233 881 m 25 639 l 792 639 l 792 518 l 524 518 l 524 75 q 510 15 524 31 q 447 0 496 0 l 294 0 l 294 518 l 25 518 l 25 639 z "},"Ţ":{"ha":817,"x_min":25,"x_max":792,"o":"m 25 639 l 792 639 l 792 518 l 524 518 l 524 75 q 510 15 524 31 q 447 0 496 0 l 294 0 l 294 518 l 25 518 l 25 639 m 363 -249 q 301 -239 314 -249 q 288 -199 288 -229 q 308 -199 292 -199 q 357 -199 325 -199 q 408 -192 394 -199 q 422 -169 422 -186 q 409 -142 422 -147 q 357 -136 396 -136 l 297 -136 q 292 -129 296 -136 q 292 -109 289 -122 q 310 -78 296 -96 q 331 -56 319 -68 q 355 -33 342 -44 q 381 -12 368 -21 q 406 1 394 -3 l 467 1 l 392 -90 q 483 -94 453 -89 q 522 -116 513 -99 q 532 -171 532 -133 q 518 -225 532 -208 q 468 -245 504 -242 q 363 -249 432 -249 z "},"Ț":{"ha":817,"x_min":25,"x_max":792,"o":"m 25 639 l 792 639 l 792 518 l 524 518 l 524 75 q 510 15 524 31 q 447 0 496 0 l 294 0 l 294 518 l 25 518 l 25 639 m 319 -354 q 345 -304 335 -325 q 366 -263 356 -283 q 388 -218 376 -243 q 378 -217 383 -218 q 367 -217 372 -217 q 333 -201 349 -214 q 318 -154 318 -189 q 344 -99 318 -110 q 417 -87 371 -87 q 453 -92 436 -87 q 481 -110 469 -96 q 492 -154 492 -125 q 479 -223 492 -186 q 447 -294 467 -260 q 407 -354 428 -328 l 319 -354 z "},"Þ":{"ha":851,"x_min":43,"x_max":765,"o":"m 43 615 q 58 677 43 664 q 118 690 72 690 l 228 690 l 228 576 l 546 576 q 687 554 640 576 q 749 487 733 532 q 765 369 765 442 q 744 256 765 303 q 672 183 724 208 q 528 158 621 158 l 229 158 l 229 0 l 43 0 l 43 615 m 229 464 l 229 272 l 522 272 q 553 280 540 272 q 574 309 567 288 q 581 369 581 331 q 573 431 581 411 q 551 457 565 450 q 517 464 536 464 l 229 464 z "},"U":{"ha":894,"x_min":67,"x_max":828,"o":"m 828 317 q 819 174 828 235 q 774 74 810 114 q 660 16 738 35 q 444 -3 582 -3 q 260 10 332 -3 q 149 47 189 22 q 92 108 110 72 q 70 193 74 144 q 67 301 67 242 l 67 536 q 69 601 67 579 q 90 631 72 624 q 151 639 108 639 l 294 639 l 294 257 q 310 169 294 199 q 358 131 325 140 q 444 122 392 122 q 564 151 529 122 q 599 256 599 181 l 599 639 l 740 639 q 803 631 785 639 q 824 601 821 624 q 828 536 828 579 l 828 317 z "},"Ú":{"ha":894,"x_min":67,"x_max":828,"o":"m 828 317 q 819 174 828 235 q 774 74 810 114 q 660 16 738 35 q 444 -3 582 -3 q 260 10 332 -3 q 149 47 189 22 q 92 108 110 72 q 70 193 74 144 q 67 301 67 242 l 67 536 q 69 601 67 579 q 90 631 72 624 q 151 639 108 639 l 294 639 l 294 257 q 310 169 294 199 q 358 131 325 140 q 444 122 392 122 q 564 151 529 122 q 599 256 599 181 l 599 639 l 740 639 q 803 631 785 639 q 824 601 821 624 q 828 536 828 579 l 828 317 m 379 724 l 539 881 l 632 825 l 464 724 l 379 724 z "},"Ŭ":{"ha":894,"x_min":67,"x_max":828,"o":"m 828 317 q 819 174 828 235 q 774 74 810 114 q 660 16 738 35 q 444 -3 582 -3 q 260 10 332 -3 q 149 47 189 22 q 92 108 110 72 q 70 193 74 144 q 67 301 67 242 l 67 536 q 69 601 67 579 q 90 631 72 624 q 151 639 108 639 l 294 639 l 294 257 q 310 169 294 199 q 358 131 325 140 q 444 122 392 122 q 564 151 529 122 q 599 256 599 181 l 599 639 l 740 639 q 803 631 785 639 q 824 601 821 624 q 828 536 828 579 l 828 317 m 447 722 q 353 732 390 722 q 297 774 315 742 q 279 869 279 807 l 279 881 l 358 881 l 358 872 q 365 835 358 853 q 390 808 371 818 q 446 799 408 799 q 503 808 485 799 q 528 835 522 818 q 535 872 535 851 l 535 881 l 613 881 l 613 869 q 595 775 613 807 q 541 733 578 743 q 447 722 504 722 z "},"Û":{"ha":894,"x_min":67,"x_max":828,"o":"m 828 317 q 819 174 828 235 q 774 74 810 114 q 660 16 738 35 q 444 -3 582 -3 q 260 10 332 -3 q 149 47 189 22 q 92 108 110 72 q 70 193 74 144 q 67 301 67 242 l 67 536 q 69 601 67 579 q 90 631 72 624 q 151 639 108 639 l 294 639 l 294 257 q 310 169 294 199 q 358 131 325 140 q 444 122 392 122 q 564 151 529 122 q 599 256 599 181 l 599 639 l 740 639 q 803 631 785 639 q 824 601 821 624 q 828 536 828 579 l 828 317 m 272 724 l 418 881 l 475 881 l 624 724 l 533 724 l 446 797 l 356 724 l 272 724 z "},"Ȕ":{"ha":894,"x_min":67,"x_max":828,"o":"m 828 317 q 819 174 828 235 q 774 74 810 114 q 660 16 738 35 q 444 -3 582 -3 q 260 10 332 -3 q 149 47 189 22 q 92 108 110 72 q 70 193 74 144 q 67 301 67 242 l 67 536 q 69 601 67 579 q 90 631 72 624 q 151 639 108 639 l 294 639 l 294 257 q 310 169 294 199 q 358 131 325 140 q 444 122 392 122 q 564 151 529 122 q 599 256 599 181 l 599 639 l 740 639 q 803 631 785 639 q 824 601 821 624 q 828 536 828 579 l 828 317 m 354 724 l 186 849 l 294 903 l 439 724 l 354 724 m 506 724 l 372 882 l 481 935 l 582 724 l 506 724 z "},"Ü":{"ha":894,"x_min":67,"x_max":828,"o":"m 828 317 q 819 174 828 235 q 774 74 810 114 q 660 16 738 35 q 444 -3 582 -3 q 260 10 332 -3 q 149 47 189 22 q 92 108 110 72 q 70 193 74 144 q 67 301 67 242 l 67 536 q 69 601 67 579 q 90 631 72 624 q 151 639 108 639 l 294 639 l 294 257 q 310 169 294 199 q 358 131 325 140 q 444 122 392 122 q 564 151 529 122 q 599 256 599 181 l 599 639 l 740 639 q 803 631 785 639 q 824 601 821 624 q 828 536 828 579 l 828 317 m 574 722 q 519 731 540 722 q 497 779 497 740 q 520 824 497 815 q 576 832 543 832 q 628 822 607 832 q 649 779 649 813 q 628 731 649 740 q 574 722 608 722 m 319 722 q 265 731 286 722 q 243 779 243 740 q 266 824 243 815 q 322 832 289 832 q 374 822 354 832 q 393 779 393 813 q 373 732 393 742 q 319 722 353 722 z "},"Ụ":{"ha":894,"x_min":67,"x_max":828,"o":"m 828 317 q 819 174 828 235 q 774 74 810 114 q 660 16 738 35 q 444 -3 582 -3 q 260 10 332 -3 q 149 47 189 22 q 92 108 110 72 q 70 193 74 144 q 67 301 67 242 l 67 536 q 69 601 67 579 q 90 631 72 624 q 151 639 108 639 l 294 639 l 294 257 q 310 169 294 199 q 358 131 325 140 q 444 122 392 122 q 564 151 529 122 q 599 256 599 181 l 599 639 l 740 639 q 803 631 785 639 q 824 601 821 624 q 828 536 828 579 l 828 317 m 447 -222 q 394 -218 417 -222 q 358 -200 371 -214 q 344 -156 344 -186 q 375 -99 344 -110 q 450 -87 406 -87 q 521 -99 494 -87 q 547 -156 547 -111 q 535 -200 547 -186 q 500 -218 522 -214 q 447 -222 478 -222 z "},"Ù":{"ha":894,"x_min":67,"x_max":828,"o":"m 828 317 q 819 174 828 235 q 774 74 810 114 q 660 16 738 35 q 444 -3 582 -3 q 260 10 332 -3 q 149 47 189 22 q 92 108 110 72 q 70 193 74 144 q 67 301 67 242 l 67 536 q 69 601 67 579 q 90 631 72 624 q 151 639 108 639 l 294 639 l 294 257 q 310 169 294 199 q 358 131 325 140 q 444 122 392 122 q 564 151 529 122 q 599 256 599 181 l 599 639 l 740 639 q 803 631 785 639 q 824 601 821 624 q 828 536 828 579 l 828 317 m 450 724 l 283 825 l 376 881 l 536 724 l 450 724 z "},"Ủ":{"ha":894,"x_min":67,"x_max":828,"o":"m 828 317 q 819 174 828 235 q 774 74 810 114 q 660 16 738 35 q 444 -3 582 -3 q 260 10 332 -3 q 149 47 189 22 q 92 108 110 72 q 70 193 74 144 q 67 301 67 242 l 67 536 q 69 601 67 579 q 90 631 72 624 q 151 639 108 639 l 294 639 l 294 257 q 310 169 294 199 q 358 131 325 140 q 444 122 392 122 q 564 151 529 122 q 599 256 599 181 l 599 639 l 740 639 q 803 631 785 639 q 824 601 821 624 q 828 536 828 579 l 828 317 m 411 724 l 411 740 q 419 763 411 756 q 438 775 428 771 q 456 785 449 779 q 464 804 464 792 l 464 817 q 458 842 464 835 q 439 850 453 850 q 414 821 417 850 l 343 832 q 372 889 347 869 q 446 908 397 908 q 528 890 500 908 q 556 822 556 871 l 556 818 q 547 781 556 793 q 526 763 539 769 q 506 751 514 757 q 497 732 497 744 l 497 724 l 411 724 z "},"Ư":{"ha":894,"x_min":67,"x_max":906,"o":"m 828 317 q 819 174 828 235 q 774 74 810 114 q 660 16 738 35 q 444 -3 582 -3 q 260 10 332 -3 q 149 47 189 22 q 92 108 110 72 q 70 193 74 144 q 67 301 67 242 l 67 536 q 69 601 67 579 q 90 631 72 624 q 151 639 108 639 l 294 639 l 294 257 q 310 169 294 199 q 358 131 325 140 q 444 122 392 122 q 564 151 529 122 q 599 256 599 181 l 599 639 l 740 639 q 803 631 785 639 q 824 601 821 624 q 828 536 828 579 l 828 317 m 718 569 l 715 639 l 744 639 q 778 648 765 639 q 796 672 790 657 q 801 704 801 686 l 801 733 l 906 733 l 906 706 q 858 600 906 632 q 718 569 811 568 z "},"Ứ":{"ha":894,"x_min":67,"x_max":906,"o":"m 828 317 q 819 174 828 235 q 774 74 810 114 q 660 16 738 35 q 444 -3 582 -3 q 260 10 332 -3 q 149 47 189 22 q 92 108 110 72 q 70 193 74 144 q 67 301 67 242 l 67 536 q 69 601 67 579 q 90 631 72 624 q 151 639 108 639 l 294 639 l 294 257 q 310 169 294 199 q 358 131 325 140 q 444 122 392 122 q 564 151 529 122 q 599 256 599 181 l 599 639 l 740 639 q 803 631 785 639 q 824 601 821 624 q 828 536 828 579 l 828 317 m 718 569 l 715 639 l 744 639 q 778 648 765 639 q 796 672 790 657 q 801 704 801 686 l 801 733 l 906 733 l 906 706 q 858 600 906 632 q 718 569 811 568 m 379 724 l 539 881 l 632 825 l 464 724 l 379 724 z "},"Ự":{"ha":894,"x_min":67,"x_max":906,"o":"m 828 317 q 819 174 828 235 q 774 74 810 114 q 660 16 738 35 q 444 -3 582 -3 q 260 10 332 -3 q 149 47 189 22 q 92 108 110 72 q 70 193 74 144 q 67 301 67 242 l 67 536 q 69 601 67 579 q 90 631 72 624 q 151 639 108 639 l 294 639 l 294 257 q 310 169 294 199 q 358 131 325 140 q 444 122 392 122 q 564 151 529 122 q 599 256 599 181 l 599 639 l 740 639 q 803 631 785 639 q 824 601 821 624 q 828 536 828 579 l 828 317 m 718 569 l 715 639 l 744 639 q 778 648 765 639 q 796 672 790 657 q 801 704 801 686 l 801 733 l 906 733 l 906 706 q 858 600 906 632 q 718 569 811 568 m 447 -222 q 394 -218 417 -222 q 358 -200 371 -214 q 344 -156 344 -186 q 375 -99 344 -110 q 450 -87 406 -87 q 521 -99 494 -87 q 547 -156 547 -111 q 535 -200 547 -186 q 500 -218 522 -214 q 447 -222 478 -222 z "},"Ừ":{"ha":894,"x_min":67,"x_max":906,"o":"m 828 317 q 819 174 828 235 q 774 74 810 114 q 660 16 738 35 q 444 -3 582 -3 q 260 10 332 -3 q 149 47 189 22 q 92 108 110 72 q 70 193 74 144 q 67 301 67 242 l 67 536 q 69 601 67 579 q 90 631 72 624 q 151 639 108 639 l 294 639 l 294 257 q 310 169 294 199 q 358 131 325 140 q 444 122 392 122 q 564 151 529 122 q 599 256 599 181 l 599 639 l 740 639 q 803 631 785 639 q 824 601 821 624 q 828 536 828 579 l 828 317 m 718 569 l 715 639 l 744 639 q 778 648 765 639 q 796 672 790 657 q 801 704 801 686 l 801 733 l 906 733 l 906 706 q 858 600 906 632 q 718 569 811 568 m 450 724 l 283 825 l 376 881 l 536 724 l 450 724 z "},"Ử":{"ha":894,"x_min":67,"x_max":906,"o":"m 828 317 q 819 174 828 235 q 774 74 810 114 q 660 16 738 35 q 444 -3 582 -3 q 260 10 332 -3 q 149 47 189 22 q 92 108 110 72 q 70 193 74 144 q 67 301 67 242 l 67 536 q 69 601 67 579 q 90 631 72 624 q 151 639 108 639 l 294 639 l 294 257 q 310 169 294 199 q 358 131 325 140 q 444 122 392 122 q 564 151 529 122 q 599 256 599 181 l 599 639 l 740 639 q 803 631 785 639 q 824 601 821 624 q 828 536 828 579 l 828 317 m 718 569 l 715 639 l 744 639 q 778 648 765 639 q 796 672 790 657 q 801 704 801 686 l 801 733 l 906 733 l 906 706 q 858 600 906 632 q 718 569 811 568 m 411 724 l 411 740 q 419 763 411 756 q 438 775 428 771 q 456 785 449 779 q 464 804 464 792 l 464 817 q 458 842 464 835 q 439 850 453 850 q 414 821 417 850 l 343 832 q 372 889 347 869 q 446 908 397 908 q 528 890 500 908 q 556 822 556 871 l 556 818 q 547 781 556 793 q 526 763 539 769 q 506 751 514 757 q 497 732 497 744 l 497 724 l 411 724 z "},"Ữ":{"ha":894,"x_min":67,"x_max":906,"o":"m 828 317 q 819 174 828 235 q 774 74 810 114 q 660 16 738 35 q 444 -3 582 -3 q 260 10 332 -3 q 149 47 189 22 q 92 108 110 72 q 70 193 74 144 q 67 301 67 242 l 67 536 q 69 601 67 579 q 90 631 72 624 q 151 639 108 639 l 294 639 l 294 257 q 310 169 294 199 q 358 131 325 140 q 444 122 392 122 q 564 151 529 122 q 599 256 599 181 l 599 639 l 740 639 q 803 631 785 639 q 824 601 821 624 q 828 536 828 579 l 828 317 m 718 569 l 715 639 l 744 639 q 778 648 765 639 q 796 672 790 657 q 801 704 801 686 l 801 733 l 906 733 l 906 706 q 858 600 906 632 q 718 569 811 568 m 526 725 q 474 738 499 724 q 424 768 449 753 q 371 781 399 783 q 328 765 344 781 q 307 740 313 749 l 269 772 q 276 788 269 774 q 297 821 283 803 q 328 853 310 839 q 371 868 347 868 q 424 855 399 869 q 475 826 450 840 q 525 811 500 811 q 572 828 556 811 q 596 858 589 846 l 633 828 q 626 812 633 828 q 605 776 618 796 q 572 740 592 756 q 526 725 553 725 z "},"Ű":{"ha":894,"x_min":67,"x_max":828,"o":"m 828 317 q 819 174 828 235 q 774 74 810 114 q 660 16 738 35 q 444 -3 582 -3 q 260 10 332 -3 q 149 47 189 22 q 92 108 110 72 q 70 193 74 144 q 67 301 67 242 l 67 536 q 69 601 67 579 q 90 631 72 624 q 151 639 108 639 l 294 639 l 294 257 q 310 169 294 199 q 358 131 325 140 q 444 122 392 122 q 564 151 529 122 q 599 256 599 181 l 599 639 l 740 639 q 803 631 785 639 q 824 601 821 624 q 828 536 828 579 l 828 317 m 503 724 l 557 881 l 675 879 l 590 724 l 503 724 m 317 724 l 372 881 l 489 879 l 404 724 l 317 724 z "},"Ȗ":{"ha":894,"x_min":67,"x_max":828,"o":"m 828 317 q 819 174 828 235 q 774 74 810 114 q 660 16 738 35 q 444 -3 582 -3 q 260 10 332 -3 q 149 47 189 22 q 92 108 110 72 q 70 193 74 144 q 67 301 67 242 l 67 536 q 69 601 67 579 q 90 631 72 624 q 151 639 108 639 l 294 639 l 294 257 q 310 169 294 199 q 358 131 325 140 q 444 122 392 122 q 564 151 529 122 q 599 256 599 181 l 599 639 l 740 639 q 803 631 785 639 q 824 601 821 624 q 828 536 828 579 l 828 317 m 279 722 l 279 732 q 297 828 279 796 q 353 870 315 860 q 447 881 390 881 q 541 869 504 881 q 595 827 578 858 q 613 732 613 796 l 613 722 l 535 722 l 535 731 q 528 767 535 750 q 503 793 522 783 q 446 803 485 803 q 390 793 408 803 q 366 767 372 783 q 358 731 360 751 l 358 722 l 279 722 z "},"Ū":{"ha":894,"x_min":67,"x_max":828,"o":"m 828 317 q 819 174 828 235 q 774 74 810 114 q 660 16 738 35 q 444 -3 582 -3 q 260 10 332 -3 q 149 47 189 22 q 92 108 110 72 q 70 193 74 144 q 67 301 67 242 l 67 536 q 69 601 67 579 q 90 631 72 624 q 151 639 108 639 l 294 639 l 294 257 q 310 169 294 199 q 358 131 325 140 q 444 122 392 122 q 564 151 529 122 q 599 256 599 181 l 599 639 l 740 639 q 803 631 785 639 q 824 601 821 624 q 828 536 828 579 l 828 317 m 253 724 l 253 804 l 642 804 l 642 724 l 253 724 z "},"Ų":{"ha":894,"x_min":67,"x_max":828,"o":"m 828 317 q 819 174 828 235 q 774 74 810 114 q 660 16 738 35 q 444 -3 582 -3 q 260 10 332 -3 q 149 47 189 22 q 92 108 110 72 q 70 193 74 144 q 67 301 67 242 l 67 536 q 69 601 67 579 q 90 631 72 624 q 151 639 108 639 l 294 639 l 294 257 q 310 169 294 199 q 358 131 325 140 q 444 122 392 122 q 564 151 529 122 q 599 256 599 181 l 599 639 l 740 639 q 803 631 785 639 q 824 601 821 624 q 828 536 828 579 l 828 317 m 433 -256 q 350 -243 379 -256 q 310 -206 321 -231 q 299 -146 299 -181 q 313 -88 299 -114 q 347 -42 326 -62 q 389 -7 367 -21 q 428 14 411 7 l 522 14 q 490 -3 511 10 q 445 -35 468 -17 q 406 -76 422 -54 q 390 -118 390 -97 q 413 -168 390 -158 q 471 -178 436 -178 q 510 -177 499 -178 q 526 -176 522 -176 q 533 -175 531 -175 q 527 -221 533 -203 q 499 -247 521 -239 q 433 -256 478 -256 z "},"Ů":{"ha":894,"x_min":67,"x_max":828,"o":"m 828 317 q 819 174 828 235 q 774 74 810 114 q 660 16 738 35 q 444 -3 582 -3 q 260 10 332 -3 q 149 47 189 22 q 92 108 110 72 q 70 193 74 144 q 67 301 67 242 l 67 536 q 69 601 67 579 q 90 631 72 624 q 151 639 108 639 l 294 639 l 294 257 q 310 169 294 199 q 358 131 325 140 q 444 122 392 122 q 564 151 529 122 q 599 256 599 181 l 599 639 l 740 639 q 803 631 785 639 q 824 601 821 624 q 828 536 828 579 l 828 317 m 446 725 q 374 731 404 725 q 327 757 343 738 q 311 814 311 776 q 327 868 311 850 q 374 892 343 886 q 449 897 406 897 q 524 892 493 897 q 571 868 554 886 q 588 814 588 850 q 571 757 588 776 q 523 731 554 738 q 446 725 492 725 m 449 781 q 492 787 478 781 q 507 811 507 793 q 492 837 507 831 q 449 843 478 843 q 405 837 419 843 q 390 811 390 831 q 404 787 390 793 q 449 781 418 781 z "},"Ũ":{"ha":894,"x_min":67,"x_max":828,"o":"m 828 317 q 819 174 828 235 q 774 74 810 114 q 660 16 738 35 q 444 -3 582 -3 q 260 10 332 -3 q 149 47 189 22 q 92 108 110 72 q 70 193 74 144 q 67 301 67 242 l 67 536 q 69 601 67 579 q 90 631 72 624 q 151 639 108 639 l 294 639 l 294 257 q 310 169 294 199 q 358 131 325 140 q 444 122 392 122 q 564 151 529 122 q 599 256 599 181 l 599 639 l 740 639 q 803 631 785 639 q 824 601 821 624 q 828 536 828 579 l 828 317 m 526 725 q 474 738 499 724 q 424 768 449 753 q 371 781 399 783 q 328 765 344 781 q 307 740 313 749 l 269 772 q 276 788 269 774 q 297 821 283 803 q 328 853 310 839 q 371 868 347 868 q 424 855 399 869 q 475 826 450 840 q 525 811 500 811 q 572 828 556 811 q 596 858 589 846 l 633 828 q 626 812 633 828 q 605 776 618 796 q 572 740 592 756 q 526 725 553 725 z "},"V":{"ha":822,"x_min":18,"x_max":808,"o":"m 393 0 q 297 23 329 0 q 240 103 265 46 l 18 639 l 268 639 l 419 232 q 436 203 426 211 q 457 194 446 194 l 468 194 l 639 639 l 808 639 l 539 0 l 393 0 z "},"W":{"ha":1107,"x_min":40,"x_max":1065,"o":"m 265 0 q 196 14 224 0 q 151 53 168 28 q 129 114 135 79 l 40 639 l 250 638 l 318 224 q 328 192 322 201 q 351 183 335 183 l 372 183 l 475 639 l 693 639 l 810 183 l 833 183 q 851 191 846 183 q 858 213 857 199 l 908 639 l 1065 639 l 990 111 q 967 46 986 71 q 913 10 947 21 q 826 0 879 0 l 671 0 l 588 342 l 572 411 l 560 342 l 486 0 l 265 0 z "},"Ẃ":{"ha":1107,"x_min":40,"x_max":1065,"o":"m 265 0 q 196 14 224 0 q 151 53 168 28 q 129 114 135 79 l 40 639 l 250 638 l 318 224 q 328 192 322 201 q 351 183 335 183 l 372 183 l 475 639 l 693 639 l 810 183 l 833 183 q 851 191 846 183 q 858 213 857 199 l 908 639 l 1065 639 l 990 111 q 967 46 986 71 q 913 10 947 21 q 826 0 879 0 l 671 0 l 588 342 l 572 411 l 560 342 l 486 0 l 265 0 m 519 724 l 679 881 l 772 825 l 604 724 l 519 724 z "},"Ŵ":{"ha":1107,"x_min":40,"x_max":1065,"o":"m 265 0 q 196 14 224 0 q 151 53 168 28 q 129 114 135 79 l 40 639 l 250 638 l 318 224 q 328 192 322 201 q 351 183 335 183 l 372 183 l 475 639 l 693 639 l 810 183 l 833 183 q 851 191 846 183 q 858 213 857 199 l 908 639 l 1065 639 l 990 111 q 967 46 986 71 q 913 10 947 21 q 826 0 879 0 l 671 0 l 588 342 l 572 411 l 560 342 l 486 0 l 265 0 m 413 724 l 558 881 l 615 881 l 764 724 l 674 724 l 586 797 l 496 724 l 413 724 z "},"Ẅ":{"ha":1107,"x_min":40,"x_max":1065,"o":"m 265 0 q 196 14 224 0 q 151 53 168 28 q 129 114 135 79 l 40 639 l 250 638 l 318 224 q 328 192 322 201 q 351 183 335 183 l 372 183 l 475 639 l 693 639 l 810 183 l 833 183 q 851 191 846 183 q 858 213 857 199 l 908 639 l 1065 639 l 990 111 q 967 46 986 71 q 913 10 947 21 q 826 0 879 0 l 671 0 l 588 342 l 572 411 l 560 342 l 486 0 l 265 0 m 714 722 q 659 731 681 722 q 638 779 638 740 q 660 824 638 815 q 717 832 683 832 q 768 822 747 832 q 789 779 789 813 q 769 731 789 740 q 714 722 749 722 m 460 722 q 405 731 426 722 q 383 779 383 740 q 406 824 383 815 q 463 832 429 832 q 514 822 494 832 q 533 779 533 813 q 513 732 533 742 q 460 722 493 722 z "},"Ẁ":{"ha":1107,"x_min":40,"x_max":1065,"o":"m 265 0 q 196 14 224 0 q 151 53 168 28 q 129 114 135 79 l 40 639 l 250 638 l 318 224 q 328 192 322 201 q 351 183 335 183 l 372 183 l 475 639 l 693 639 l 810 183 l 833 183 q 851 191 846 183 q 858 213 857 199 l 908 639 l 1065 639 l 990 111 q 967 46 986 71 q 913 10 947 21 q 826 0 879 0 l 671 0 l 588 342 l 572 411 l 560 342 l 486 0 l 265 0 m 590 724 l 424 825 l 517 881 l 676 724 l 590 724 z "},"X":{"ha":846,"x_min":-6,"x_max":847,"o":"m 632 0 q 577 4 601 0 q 531 22 553 8 q 486 63 510 35 l 326 261 l 11 639 l 311 639 l 483 411 l 774 78 q 814 31 797 50 q 847 0 831 11 l 632 0 m 126 0 l -6 1 q 42 44 18 18 q 86 89 67 69 l 349 374 l 593 639 l 800 639 l 467 283 l 261 50 q 208 12 238 25 q 126 0 179 -1 z "},"Y":{"ha":824,"x_min":0,"x_max":829,"o":"m 301 0 l 301 254 l 29 604 l 0 639 l 317 639 l 474 407 l 624 639 l 829 639 l 792 600 l 529 254 l 529 83 q 522 31 531 49 q 491 6 513 13 q 429 0 469 0 l 301 0 z "},"Ý":{"ha":824,"x_min":0,"x_max":829,"o":"m 301 0 l 301 254 l 29 604 l 0 639 l 317 639 l 474 407 l 624 639 l 829 639 l 792 600 l 529 254 l 529 83 q 522 31 531 49 q 491 6 513 13 q 429 0 469 0 l 301 0 m 410 724 l 569 881 l 663 825 l 494 724 l 410 724 z "},"Ŷ":{"ha":824,"x_min":0,"x_max":829,"o":"m 301 0 l 301 254 l 29 604 l 0 639 l 317 639 l 474 407 l 624 639 l 829 639 l 792 600 l 529 254 l 529 83 q 522 31 531 49 q 491 6 513 13 q 429 0 469 0 l 301 0 m 304 724 l 450 881 l 507 881 l 656 724 l 565 724 l 478 797 l 388 724 l 304 724 z "},"Ÿ":{"ha":824,"x_min":0,"x_max":829,"o":"m 301 0 l 301 254 l 29 604 l 0 639 l 317 639 l 474 407 l 624 639 l 829 639 l 792 600 l 529 254 l 529 83 q 522 31 531 49 q 491 6 513 13 q 429 0 469 0 l 301 0 m 606 722 q 551 731 572 722 q 529 779 529 740 q 552 824 529 815 q 608 832 575 832 q 660 822 639 832 q 681 779 681 813 q 660 731 681 740 q 606 722 640 722 m 351 722 q 297 731 318 722 q 275 779 275 740 q 298 824 275 815 q 354 832 321 832 q 406 822 386 832 q 425 779 425 813 q 405 732 425 742 q 351 722 385 722 z "},"Ỵ":{"ha":824,"x_min":0,"x_max":829,"o":"m 301 0 l 301 254 l 29 604 l 0 639 l 317 639 l 474 407 l 624 639 l 829 639 l 792 600 l 529 254 l 529 83 q 522 31 531 49 q 491 6 513 13 q 429 0 469 0 l 301 0 m 419 -222 q 366 -218 389 -222 q 330 -200 343 -214 q 317 -156 317 -186 q 347 -99 317 -110 q 422 -87 378 -87 q 493 -99 467 -87 q 519 -156 519 -111 q 507 -200 519 -186 q 472 -218 494 -214 q 419 -222 450 -222 z "},"Ỳ":{"ha":824,"x_min":0,"x_max":829,"o":"m 301 0 l 301 254 l 29 604 l 0 639 l 317 639 l 474 407 l 624 639 l 829 639 l 792 600 l 529 254 l 529 83 q 522 31 531 49 q 491 6 513 13 q 429 0 469 0 l 301 0 m 482 724 l 315 825 l 408 881 l 568 724 l 482 724 z "},"Ỷ":{"ha":824,"x_min":0,"x_max":829,"o":"m 301 0 l 301 254 l 29 604 l 0 639 l 317 639 l 474 407 l 624 639 l 829 639 l 792 600 l 529 254 l 529 83 q 522 31 531 49 q 491 6 513 13 q 429 0 469 0 l 301 0 m 443 724 l 443 740 q 451 763 443 756 q 470 775 460 771 q 488 785 481 779 q 496 804 496 792 l 496 817 q 490 842 496 835 q 471 850 485 850 q 446 821 449 850 l 375 832 q 404 889 379 869 q 478 908 429 908 q 560 890 532 908 q 588 822 588 871 l 588 818 q 579 781 588 793 q 558 763 571 769 q 538 751 546 757 q 529 732 529 744 l 529 724 l 443 724 z "},"Ȳ":{"ha":824,"x_min":0,"x_max":829,"o":"m 301 0 l 301 254 l 29 604 l 0 639 l 317 639 l 474 407 l 624 639 l 829 639 l 792 600 l 529 254 l 529 83 q 522 31 531 49 q 491 6 513 13 q 429 0 469 0 l 301 0 m 285 724 l 285 804 l 674 804 l 674 724 l 285 724 z "},"Ỹ":{"ha":824,"x_min":0,"x_max":829,"o":"m 301 0 l 301 254 l 29 604 l 0 639 l 317 639 l 474 407 l 624 639 l 829 639 l 792 600 l 529 254 l 529 83 q 522 31 531 49 q 491 6 513 13 q 429 0 469 0 l 301 0 m 558 725 q 506 738 531 724 q 456 768 481 753 q 403 781 431 783 q 360 765 376 781 q 339 740 344 749 l 301 772 q 308 788 301 774 q 328 821 315 803 q 360 853 342 839 q 403 868 379 868 q 456 855 431 869 q 507 826 482 840 q 557 811 532 811 q 604 828 588 811 q 628 858 621 846 l 665 828 q 658 812 665 828 q 637 776 650 796 q 604 740 624 756 q 558 725 585 725 z "},"Z":{"ha":786,"x_min":19,"x_max":767,"o":"m 335 121 l 767 121 q 765 53 767 78 q 753 17 763 29 q 724 3 744 6 q 668 0 704 0 l 19 0 l 19 122 q 43 146 22 125 q 99 201 64 167 q 175 276 133 235 q 260 358 217 317 q 340 436 303 400 q 404 496 378 472 q 423 510 413 504 q 438 518 433 515 l 40 518 q 43 590 40 564 q 61 628 46 617 q 114 639 76 639 l 754 639 q 753 617 754 638 q 746 567 753 597 q 722 504 739 538 q 669 442 704 471 l 356 128 l 335 121 z "},"Ź":{"ha":786,"x_min":19,"x_max":767,"o":"m 335 121 l 767 121 q 765 53 767 78 q 753 17 763 29 q 724 3 744 6 q 668 0 704 0 l 19 0 l 19 122 q 43 146 22 125 q 99 201 64 167 q 175 276 133 235 q 260 358 217 317 q 340 436 303 400 q 404 496 378 472 q 423 510 413 504 q 438 518 433 515 l 40 518 q 43 590 40 564 q 61 628 46 617 q 114 639 76 639 l 754 639 q 753 617 754 638 q 746 567 753 597 q 722 504 739 538 q 669 442 704 471 l 356 128 l 335 121 m 325 724 l 485 881 l 578 825 l 410 724 l 325 724 z "},"Ž":{"ha":786,"x_min":19,"x_max":767,"o":"m 218 881 l 301 881 l 392 807 l 479 881 l 568 881 l 421 724 l 363 724 l 218 881 m 335 121 l 767 121 q 765 53 767 78 q 753 17 763 29 q 724 3 744 6 q 668 0 704 0 l 19 0 l 19 122 q 43 146 22 125 q 99 201 64 167 q 175 276 133 235 q 260 358 217 317 q 340 436 303 400 q 404 496 378 472 q 423 510 413 504 q 438 518 433 515 l 40 518 q 43 590 40 564 q 61 628 46 617 q 114 639 76 639 l 754 639 q 753 617 754 638 q 746 567 753 597 q 722 504 739 538 q 669 442 704 471 l 356 128 l 335 121 z "},"Ż":{"ha":786,"x_min":19,"x_max":767,"o":"m 335 121 l 767 121 q 765 53 767 78 q 753 17 763 29 q 724 3 744 6 q 668 0 704 0 l 19 0 l 19 122 q 43 146 22 125 q 99 201 64 167 q 175 276 133 235 q 260 358 217 317 q 340 436 303 400 q 404 496 378 472 q 423 510 413 504 q 438 518 433 515 l 40 518 q 43 590 40 564 q 61 628 46 617 q 114 639 76 639 l 754 639 q 753 617 754 638 q 746 567 753 597 q 722 504 739 538 q 669 442 704 471 l 356 128 l 335 121 m 394 721 q 340 728 361 721 q 318 772 318 736 q 341 815 318 807 q 397 824 364 824 q 449 815 429 824 q 468 772 468 806 q 448 728 468 736 q 394 721 428 721 z "},"a":{"ha":742,"x_min":47,"x_max":693,"o":"m 351 -7 q 194 -1 254 -7 q 102 24 135 6 q 58 75 69 42 q 47 161 47 108 q 61 269 47 232 q 110 319 75 306 q 203 333 144 333 q 283 333 238 333 q 372 331 328 332 q 448 326 415 329 q 493 319 481 322 q 485 388 493 363 q 461 426 478 413 q 417 443 444 439 q 349 447 389 447 q 252 446 300 447 q 159 440 204 444 q 76 431 114 436 l 76 469 q 93 525 76 507 q 139 549 110 543 q 234 558 171 556 q 371 561 297 561 q 527 551 464 561 q 626 517 590 542 q 678 442 663 492 q 693 311 693 393 l 693 35 q 583 3 671 14 q 351 -7 494 -7 m 350 79 q 416 81 389 79 q 463 88 443 83 q 493 97 482 92 l 493 253 q 451 260 478 257 q 396 264 424 263 q 353 265 368 265 q 299 260 319 265 q 269 235 278 254 q 260 175 260 215 q 267 119 260 140 q 293 88 274 97 q 350 79 313 79 z "},"á":{"ha":742,"x_min":47,"x_max":693,"o":"m 351 -7 q 194 -1 254 -7 q 102 24 135 6 q 58 75 69 42 q 47 161 47 108 q 61 269 47 232 q 110 319 75 306 q 203 333 144 333 q 283 333 238 333 q 372 331 328 332 q 448 326 415 329 q 493 319 481 322 q 485 388 493 363 q 461 426 478 413 q 417 443 444 439 q 349 447 389 447 q 252 446 300 447 q 159 440 204 444 q 76 431 114 436 l 76 469 q 93 525 76 507 q 139 549 110 543 q 234 558 171 556 q 371 561 297 561 q 527 551 464 561 q 626 517 590 542 q 678 442 663 492 q 693 311 693 393 l 693 35 q 583 3 671 14 q 351 -7 494 -7 m 350 79 q 416 81 389 79 q 463 88 443 83 q 493 97 482 92 l 493 253 q 451 260 478 257 q 396 264 424 263 q 353 265 368 265 q 299 260 319 265 q 269 235 278 254 q 260 175 260 215 q 267 119 260 140 q 293 88 274 97 q 350 79 313 79 m 313 639 l 501 818 l 596 764 l 397 639 l 313 639 z "},"ă":{"ha":742,"x_min":47,"x_max":693,"o":"m 351 -7 q 194 -1 254 -7 q 102 24 135 6 q 58 75 69 42 q 47 161 47 108 q 61 269 47 232 q 110 319 75 306 q 203 333 144 333 q 283 333 238 333 q 372 331 328 332 q 448 326 415 329 q 493 319 481 322 q 485 388 493 363 q 461 426 478 413 q 417 443 444 439 q 349 447 389 447 q 252 446 300 447 q 159 440 204 444 q 76 431 114 436 l 76 469 q 93 525 76 507 q 139 549 110 543 q 234 558 171 556 q 371 561 297 561 q 527 551 464 561 q 626 517 590 542 q 678 442 663 492 q 693 311 693 393 l 693 35 q 583 3 671 14 q 351 -7 494 -7 m 350 79 q 416 81 389 79 q 463 88 443 83 q 493 97 482 92 l 493 253 q 451 260 478 257 q 396 264 424 263 q 353 265 368 265 q 299 260 319 265 q 269 235 278 254 q 260 175 260 215 q 267 119 260 140 q 293 88 274 97 q 350 79 313 79 m 371 636 q 267 653 303 636 q 217 709 231 669 q 204 818 204 749 l 281 818 q 300 738 281 761 q 371 714 319 714 q 442 739 426 714 q 458 818 458 764 l 536 818 q 523 708 536 747 q 474 652 510 668 q 371 636 438 636 z "},"ắ":{"ha":742,"x_min":47,"x_max":693,"o":"m 351 -7 q 194 -1 254 -7 q 102 24 135 6 q 58 75 69 42 q 47 161 47 108 q 61 269 47 232 q 110 319 75 306 q 203 333 144 333 q 283 333 238 333 q 372 331 328 332 q 448 326 415 329 q 493 319 481 322 q 485 388 493 363 q 461 426 478 413 q 417 443 444 439 q 349 447 389 447 q 252 446 300 447 q 159 440 204 444 q 76 431 114 436 l 76 469 q 93 525 76 507 q 139 549 110 543 q 234 558 171 556 q 371 561 297 561 q 527 551 464 561 q 626 517 590 542 q 678 442 663 492 q 693 311 693 393 l 693 35 q 583 3 671 14 q 351 -7 494 -7 m 350 79 q 416 81 389 79 q 463 88 443 83 q 493 97 482 92 l 493 253 q 451 260 478 257 q 396 264 424 263 q 353 265 368 265 q 299 260 319 265 q 269 235 278 254 q 260 175 260 215 q 267 119 260 140 q 293 88 274 97 q 350 79 313 79 m 371 636 q 267 653 303 636 q 217 709 231 669 q 204 818 204 749 l 281 818 q 300 738 281 761 q 371 714 319 714 q 442 739 426 714 q 458 818 458 764 l 536 818 q 523 708 536 747 q 474 652 510 668 q 371 636 438 636 m 313 856 l 501 1035 l 596 981 l 397 856 l 313 856 z "},"ặ":{"ha":742,"x_min":47,"x_max":693,"o":"m 351 -7 q 194 -1 254 -7 q 102 24 135 6 q 58 75 69 42 q 47 161 47 108 q 61 269 47 232 q 110 319 75 306 q 203 333 144 333 q 283 333 238 333 q 372 331 328 332 q 448 326 415 329 q 493 319 481 322 q 485 388 493 363 q 461 426 478 413 q 417 443 444 439 q 349 447 389 447 q 252 446 300 447 q 159 440 204 444 q 76 431 114 436 l 76 469 q 93 525 76 507 q 139 549 110 543 q 234 558 171 556 q 371 561 297 561 q 527 551 464 561 q 626 517 590 542 q 678 442 663 492 q 693 311 693 393 l 693 35 q 583 3 671 14 q 351 -7 494 -7 m 350 79 q 416 81 389 79 q 463 88 443 83 q 493 97 482 92 l 493 253 q 451 260 478 257 q 396 264 424 263 q 353 265 368 265 q 299 260 319 265 q 269 235 278 254 q 260 175 260 215 q 267 119 260 140 q 293 88 274 97 q 350 79 313 79 m 371 -222 q 317 -218 340 -222 q 281 -200 294 -214 q 268 -156 268 -186 q 299 -99 268 -110 q 374 -87 329 -87 q 444 -99 418 -87 q 471 -156 471 -111 q 458 -200 471 -186 q 424 -218 446 -214 q 371 -222 401 -222 m 371 636 q 267 653 303 636 q 217 709 231 669 q 204 818 204 749 l 281 818 q 300 738 281 761 q 371 714 319 714 q 442 739 426 714 q 458 818 458 764 l 536 818 q 523 708 536 747 q 474 652 510 668 q 371 636 438 636 z "},"ằ":{"ha":742,"x_min":47,"x_max":693,"o":"m 351 -7 q 194 -1 254 -7 q 102 24 135 6 q 58 75 69 42 q 47 161 47 108 q 61 269 47 232 q 110 319 75 306 q 203 333 144 333 q 283 333 238 333 q 372 331 328 332 q 448 326 415 329 q 493 319 481 322 q 485 388 493 363 q 461 426 478 413 q 417 443 444 439 q 349 447 389 447 q 252 446 300 447 q 159 440 204 444 q 76 431 114 436 l 76 469 q 93 525 76 507 q 139 549 110 543 q 234 558 171 556 q 371 561 297 561 q 527 551 464 561 q 626 517 590 542 q 678 442 663 492 q 693 311 693 393 l 693 35 q 583 3 671 14 q 351 -7 494 -7 m 350 79 q 416 81 389 79 q 463 88 443 83 q 493 97 482 92 l 493 253 q 451 260 478 257 q 396 264 424 263 q 353 265 368 265 q 299 260 319 265 q 269 235 278 254 q 260 175 260 215 q 267 119 260 140 q 293 88 274 97 q 350 79 313 79 m 371 636 q 267 653 303 636 q 217 709 231 669 q 204 818 204 749 l 281 818 q 300 738 281 761 q 371 714 319 714 q 442 739 426 714 q 458 818 458 764 l 536 818 q 523 708 536 747 q 474 652 510 668 q 371 636 438 636 m 367 856 l 169 981 l 263 1035 l 453 856 l 367 856 z "},"ẳ":{"ha":742,"x_min":47,"x_max":693,"o":"m 351 -7 q 194 -1 254 -7 q 102 24 135 6 q 58 75 69 42 q 47 161 47 108 q 61 269 47 232 q 110 319 75 306 q 203 333 144 333 q 283 333 238 333 q 372 331 328 332 q 448 326 415 329 q 493 319 481 322 q 485 388 493 363 q 461 426 478 413 q 417 443 444 439 q 349 447 389 447 q 252 446 300 447 q 159 440 204 444 q 76 431 114 436 l 76 469 q 93 525 76 507 q 139 549 110 543 q 234 558 171 556 q 371 561 297 561 q 527 551 464 561 q 626 517 590 542 q 678 442 663 492 q 693 311 693 393 l 693 35 q 583 3 671 14 q 351 -7 494 -7 m 350 79 q 416 81 389 79 q 463 88 443 83 q 493 97 482 92 l 493 253 q 451 260 478 257 q 396 264 424 263 q 353 265 368 265 q 299 260 319 265 q 269 235 278 254 q 260 175 260 215 q 267 119 260 140 q 293 88 274 97 q 350 79 313 79 m 371 636 q 267 653 303 636 q 217 709 231 669 q 204 818 204 749 l 281 818 q 300 738 281 761 q 371 714 319 714 q 442 739 426 714 q 458 818 458 764 l 536 818 q 523 708 536 747 q 474 652 510 668 q 371 636 438 636 m 338 853 l 338 871 q 351 897 338 889 q 376 914 364 906 q 388 939 388 922 l 388 951 q 383 978 388 971 q 361 986 378 986 q 342 978 347 986 q 335 956 336 969 l 265 967 q 368 1044 272 1044 q 452 1026 424 1044 q 481 957 481 1007 l 481 953 q 466 908 481 922 q 437 886 451 894 q 422 863 422 878 l 422 853 l 338 853 z "},"ẵ":{"ha":742,"x_min":47,"x_max":693,"o":"m 351 -7 q 194 -1 254 -7 q 102 24 135 6 q 58 75 69 42 q 47 161 47 108 q 61 269 47 232 q 110 319 75 306 q 203 333 144 333 q 283 333 238 333 q 372 331 328 332 q 448 326 415 329 q 493 319 481 322 q 485 388 493 363 q 461 426 478 413 q 417 443 444 439 q 349 447 389 447 q 252 446 300 447 q 159 440 204 444 q 76 431 114 436 l 76 469 q 93 525 76 507 q 139 549 110 543 q 234 558 171 556 q 371 561 297 561 q 527 551 464 561 q 626 517 590 542 q 678 442 663 492 q 693 311 693 393 l 693 35 q 583 3 671 14 q 351 -7 494 -7 m 350 79 q 416 81 389 79 q 463 88 443 83 q 493 97 482 92 l 493 253 q 451 260 478 257 q 396 264 424 263 q 353 265 368 265 q 299 260 319 265 q 269 235 278 254 q 260 175 260 215 q 267 119 260 140 q 293 88 274 97 q 350 79 313 79 m 371 636 q 267 653 303 636 q 217 709 231 669 q 204 818 204 749 l 281 818 q 300 738 281 761 q 371 714 319 714 q 442 739 426 714 q 458 818 458 764 l 536 818 q 523 708 536 747 q 474 652 510 668 q 371 636 438 636 m 450 856 q 397 870 422 856 q 346 900 371 885 q 293 913 321 915 q 251 896 267 913 q 231 871 236 879 l 193 903 q 201 919 194 904 q 219 952 207 933 q 251 985 232 971 q 294 999 269 999 q 347 986 322 1001 q 397 956 372 971 q 447 942 422 942 q 495 960 478 942 q 519 990 513 978 l 557 961 q 549 944 557 960 q 528 908 542 928 q 495 872 515 888 q 450 856 475 856 z "},"â":{"ha":742,"x_min":47,"x_max":693,"o":"m 351 -7 q 194 -1 254 -7 q 102 24 135 6 q 58 75 69 42 q 47 161 47 108 q 61 269 47 232 q 110 319 75 306 q 203 333 144 333 q 283 333 238 333 q 372 331 328 332 q 448 326 415 329 q 493 319 481 322 q 485 388 493 363 q 461 426 478 413 q 417 443 444 439 q 349 447 389 447 q 252 446 300 447 q 159 440 204 444 q 76 431 114 436 l 76 469 q 93 525 76 507 q 139 549 110 543 q 234 558 171 556 q 371 561 297 561 q 527 551 464 561 q 626 517 590 542 q 678 442 663 492 q 693 311 693 393 l 693 35 q 583 3 671 14 q 351 -7 494 -7 m 350 79 q 416 81 389 79 q 463 88 443 83 q 493 97 482 92 l 493 253 q 451 260 478 257 q 396 264 424 263 q 353 265 368 265 q 299 260 319 265 q 269 235 278 254 q 260 175 260 215 q 267 119 260 140 q 293 88 274 97 q 350 79 313 79 m 193 639 l 340 824 l 397 824 l 546 639 l 456 639 l 368 735 l 278 639 l 193 639 z "},"ấ":{"ha":742,"x_min":47,"x_max":814,"o":"m 351 -7 q 194 -1 254 -7 q 102 24 135 6 q 58 75 69 42 q 47 161 47 108 q 61 269 47 232 q 110 319 75 306 q 203 333 144 333 q 283 333 238 333 q 372 331 328 332 q 448 326 415 329 q 493 319 481 322 q 485 388 493 363 q 461 426 478 413 q 417 443 444 439 q 349 447 389 447 q 252 446 300 447 q 159 440 204 444 q 76 431 114 436 l 76 469 q 93 525 76 507 q 139 549 110 543 q 234 558 171 556 q 371 561 297 561 q 527 551 464 561 q 626 517 590 542 q 678 442 663 492 q 693 311 693 393 l 693 35 q 583 3 671 14 q 351 -7 494 -7 m 350 79 q 416 81 389 79 q 463 88 443 83 q 493 97 482 92 l 493 253 q 451 260 478 257 q 396 264 424 263 q 353 265 368 265 q 299 260 319 265 q 269 235 278 254 q 260 175 260 215 q 267 119 260 140 q 293 88 274 97 q 350 79 313 79 m 193 639 l 340 824 l 397 824 l 546 639 l 456 639 l 368 735 l 278 639 l 193 639 m 531 774 l 719 953 l 814 899 l 615 774 l 531 774 z "},"ậ":{"ha":742,"x_min":47,"x_max":693,"o":"m 351 -7 q 194 -1 254 -7 q 102 24 135 6 q 58 75 69 42 q 47 161 47 108 q 61 269 47 232 q 110 319 75 306 q 203 333 144 333 q 283 333 238 333 q 372 331 328 332 q 448 326 415 329 q 493 319 481 322 q 485 388 493 363 q 461 426 478 413 q 417 443 444 439 q 349 447 389 447 q 252 446 300 447 q 159 440 204 444 q 76 431 114 436 l 76 469 q 93 525 76 507 q 139 549 110 543 q 234 558 171 556 q 371 561 297 561 q 527 551 464 561 q 626 517 590 542 q 678 442 663 492 q 693 311 693 393 l 693 35 q 583 3 671 14 q 351 -7 494 -7 m 350 79 q 416 81 389 79 q 463 88 443 83 q 493 97 482 92 l 493 253 q 451 260 478 257 q 396 264 424 263 q 353 265 368 265 q 299 260 319 265 q 269 235 278 254 q 260 175 260 215 q 267 119 260 140 q 293 88 274 97 q 350 79 313 79 m 371 -222 q 317 -218 340 -222 q 281 -200 294 -214 q 268 -156 268 -186 q 299 -99 268 -110 q 374 -87 329 -87 q 444 -99 418 -87 q 471 -156 471 -111 q 458 -200 471 -186 q 424 -218 446 -214 q 371 -222 401 -222 m 193 639 l 340 824 l 397 824 l 546 639 l 456 639 l 368 735 l 278 639 l 193 639 z "},"ầ":{"ha":742,"x_min":47,"x_max":693,"o":"m 351 -7 q 194 -1 254 -7 q 102 24 135 6 q 58 75 69 42 q 47 161 47 108 q 61 269 47 232 q 110 319 75 306 q 203 333 144 333 q 283 333 238 333 q 372 331 328 332 q 448 326 415 329 q 493 319 481 322 q 485 388 493 363 q 461 426 478 413 q 417 443 444 439 q 349 447 389 447 q 252 446 300 447 q 159 440 204 444 q 76 431 114 436 l 76 469 q 93 525 76 507 q 139 549 110 543 q 234 558 171 556 q 371 561 297 561 q 527 551 464 561 q 626 517 590 542 q 678 442 663 492 q 693 311 693 393 l 693 35 q 583 3 671 14 q 351 -7 494 -7 m 350 79 q 416 81 389 79 q 463 88 443 83 q 493 97 482 92 l 493 253 q 451 260 478 257 q 396 264 424 263 q 353 265 368 265 q 299 260 319 265 q 269 235 278 254 q 260 175 260 215 q 267 119 260 140 q 293 88 274 97 q 350 79 313 79 m 193 639 l 340 824 l 397 824 l 546 639 l 456 639 l 368 735 l 278 639 l 193 639 m 585 774 l 388 899 l 481 953 l 671 774 l 585 774 z "},"ẩ":{"ha":742,"x_min":47,"x_max":697,"o":"m 351 -7 q 194 -1 254 -7 q 102 24 135 6 q 58 75 69 42 q 47 161 47 108 q 61 269 47 232 q 110 319 75 306 q 203 333 144 333 q 283 333 238 333 q 372 331 328 332 q 448 326 415 329 q 493 319 481 322 q 485 388 493 363 q 461 426 478 413 q 417 443 444 439 q 349 447 389 447 q 252 446 300 447 q 159 440 204 444 q 76 431 114 436 l 76 469 q 93 525 76 507 q 139 549 110 543 q 234 558 171 556 q 371 561 297 561 q 527 551 464 561 q 626 517 590 542 q 678 442 663 492 q 693 311 693 393 l 693 35 q 583 3 671 14 q 351 -7 494 -7 m 350 79 q 416 81 389 79 q 463 88 443 83 q 493 97 482 92 l 493 253 q 451 260 478 257 q 396 264 424 263 q 353 265 368 265 q 299 260 319 265 q 269 235 278 254 q 260 175 260 215 q 267 119 260 140 q 293 88 274 97 q 350 79 313 79 m 193 639 l 340 824 l 397 824 l 546 639 l 456 639 l 368 735 l 278 639 l 193 639 m 556 771 l 556 789 q 569 815 556 807 q 594 832 582 824 q 606 857 606 840 l 606 869 q 601 897 606 889 q 579 904 596 904 q 560 896 565 904 q 553 874 554 888 l 483 885 q 586 963 490 963 q 670 944 642 963 q 699 875 699 925 l 699 871 q 684 826 699 840 q 655 804 669 813 q 640 781 640 796 l 640 771 l 556 771 z "},"ẫ":{"ha":742,"x_min":47,"x_max":693,"o":"m 351 -7 q 194 -1 254 -7 q 102 24 135 6 q 58 75 69 42 q 47 161 47 108 q 61 269 47 232 q 110 319 75 306 q 203 333 144 333 q 283 333 238 333 q 372 331 328 332 q 448 326 415 329 q 493 319 481 322 q 485 388 493 363 q 461 426 478 413 q 417 443 444 439 q 349 447 389 447 q 252 446 300 447 q 159 440 204 444 q 76 431 114 436 l 76 469 q 93 525 76 507 q 139 549 110 543 q 234 558 171 556 q 371 561 297 561 q 527 551 464 561 q 626 517 590 542 q 678 442 663 492 q 693 311 693 393 l 693 35 q 583 3 671 14 q 351 -7 494 -7 m 350 79 q 416 81 389 79 q 463 88 443 83 q 493 97 482 92 l 493 253 q 451 260 478 257 q 396 264 424 263 q 353 265 368 265 q 299 260 319 265 q 269 235 278 254 q 260 175 260 215 q 267 119 260 140 q 293 88 274 97 q 350 79 313 79 m 193 639 l 340 824 l 397 824 l 546 639 l 456 639 l 368 735 l 278 639 l 193 639 m 450 853 q 397 867 422 853 q 346 897 371 882 q 293 910 321 913 q 251 893 267 910 q 231 868 236 876 l 193 900 q 201 916 194 901 q 219 949 207 931 q 251 982 232 968 q 294 996 269 996 q 347 983 322 999 q 397 953 372 968 q 447 939 422 939 q 495 957 478 939 q 519 988 513 975 l 557 958 q 549 941 557 957 q 528 905 542 925 q 495 869 515 885 q 450 853 475 853 z "},"´":{"ha":332,"x_min":1,"x_max":285,"o":"m 1 639 l 190 818 l 285 764 l 86 639 l 1 639 z "},"́":{"ha":0,"x_min":1,"x_max":285,"o":"m 1 639 l 190 818 l 285 764 l 86 639 l 1 639 z "},"ȁ":{"ha":742,"x_min":47,"x_max":693,"o":"m 351 -7 q 194 -1 254 -7 q 102 24 135 6 q 58 75 69 42 q 47 161 47 108 q 61 269 47 232 q 110 319 75 306 q 203 333 144 333 q 283 333 238 333 q 372 331 328 332 q 448 326 415 329 q 493 319 481 322 q 485 388 493 363 q 461 426 478 413 q 417 443 444 439 q 349 447 389 447 q 252 446 300 447 q 159 440 204 444 q 76 431 114 436 l 76 469 q 93 525 76 507 q 139 549 110 543 q 234 558 171 556 q 371 561 297 561 q 527 551 464 561 q 626 517 590 542 q 678 442 663 492 q 693 311 693 393 l 693 35 q 583 3 671 14 q 351 -7 494 -7 m 350 79 q 416 81 389 79 q 463 88 443 83 q 493 97 482 92 l 493 253 q 451 260 478 257 q 396 264 424 263 q 353 265 368 265 q 299 260 319 265 q 269 235 278 254 q 260 175 260 215 q 267 119 260 140 q 293 88 274 97 q 350 79 313 79 m 276 639 l 108 764 l 217 818 l 361 639 l 276 639 m 428 639 l 294 797 l 403 850 l 504 639 l 428 639 z "},"ä":{"ha":742,"x_min":47,"x_max":693,"o":"m 351 -7 q 194 -1 254 -7 q 102 24 135 6 q 58 75 69 42 q 47 161 47 108 q 61 269 47 232 q 110 319 75 306 q 203 333 144 333 q 283 333 238 333 q 372 331 328 332 q 448 326 415 329 q 493 319 481 322 q 485 388 493 363 q 461 426 478 413 q 417 443 444 439 q 349 447 389 447 q 252 446 300 447 q 159 440 204 444 q 76 431 114 436 l 76 469 q 93 525 76 507 q 139 549 110 543 q 234 558 171 556 q 371 561 297 561 q 527 551 464 561 q 626 517 590 542 q 678 442 663 492 q 693 311 693 393 l 693 35 q 583 3 671 14 q 351 -7 494 -7 m 350 79 q 416 81 389 79 q 463 88 443 83 q 493 97 482 92 l 493 253 q 451 260 478 257 q 396 264 424 263 q 353 265 368 265 q 299 260 319 265 q 269 235 278 254 q 260 175 260 215 q 267 119 260 140 q 293 88 274 97 q 350 79 313 79 m 497 638 q 442 647 464 638 q 421 694 421 656 q 444 739 421 731 q 500 747 467 747 q 551 738 531 747 q 572 694 572 728 q 552 647 572 656 q 497 638 532 638 m 243 638 q 188 647 210 638 q 167 694 167 656 q 190 739 167 731 q 246 747 213 747 q 297 738 278 747 q 317 694 317 728 q 297 647 317 657 q 243 638 276 638 z "},"ạ":{"ha":742,"x_min":47,"x_max":693,"o":"m 351 -7 q 194 -1 254 -7 q 102 24 135 6 q 58 75 69 42 q 47 161 47 108 q 61 269 47 232 q 110 319 75 306 q 203 333 144 333 q 283 333 238 333 q 372 331 328 332 q 448 326 415 329 q 493 319 481 322 q 485 388 493 363 q 461 426 478 413 q 417 443 444 439 q 349 447 389 447 q 252 446 300 447 q 159 440 204 444 q 76 431 114 436 l 76 469 q 93 525 76 507 q 139 549 110 543 q 234 558 171 556 q 371 561 297 561 q 527 551 464 561 q 626 517 590 542 q 678 442 663 492 q 693 311 693 393 l 693 35 q 583 3 671 14 q 351 -7 494 -7 m 350 79 q 416 81 389 79 q 463 88 443 83 q 493 97 482 92 l 493 253 q 451 260 478 257 q 396 264 424 263 q 353 265 368 265 q 299 260 319 265 q 269 235 278 254 q 260 175 260 215 q 267 119 260 140 q 293 88 274 97 q 350 79 313 79 m 371 -222 q 317 -218 340 -222 q 281 -200 294 -214 q 268 -156 268 -186 q 299 -99 268 -110 q 374 -87 329 -87 q 444 -99 418 -87 q 471 -156 471 -111 q 458 -200 471 -186 q 424 -218 446 -214 q 371 -222 401 -222 z "},"æ":{"ha":1201,"x_min":47,"x_max":1128,"o":"m 351 -7 q 194 -1 254 -7 q 102 24 135 6 q 58 75 69 42 q 47 161 47 108 q 61 269 47 232 q 110 319 75 306 q 203 333 144 333 q 283 333 238 333 q 372 331 328 332 q 448 326 415 329 q 493 319 481 322 q 485 388 493 363 q 461 426 478 413 q 417 443 444 439 q 349 447 389 447 q 252 446 300 447 q 159 440 204 444 q 76 431 114 436 l 76 469 q 93 525 76 507 q 139 549 110 543 q 234 558 171 556 q 371 561 297 561 q 527 551 464 561 q 626 517 590 542 q 678 442 663 492 q 693 311 693 393 l 693 35 q 583 3 671 14 q 351 -7 494 -7 m 350 79 q 416 81 389 79 q 463 88 443 83 q 493 97 482 92 l 493 253 q 451 260 478 257 q 396 264 424 263 q 353 265 368 265 q 299 260 319 265 q 269 235 278 254 q 260 175 260 215 q 267 119 260 140 q 293 88 274 97 q 350 79 313 79 m 819 -8 q 660 3 722 -8 q 561 44 597 15 q 510 126 525 74 q 494 264 494 179 q 525 436 494 372 q 631 529 556 500 q 842 558 707 558 q 1010 536 947 558 q 1100 467 1072 514 q 1128 346 1128 419 l 1128 239 l 742 239 q 755 288 742 268 q 804 308 768 308 l 943 308 l 942 338 q 919 423 942 394 q 833 451 896 451 q 753 435 782 451 q 715 380 725 419 q 704 267 704 340 q 717 167 704 200 q 765 122 731 133 q 864 110 800 110 q 928 111 888 110 q 1010 115 968 113 q 1085 119 1053 117 q 1126 124 1118 121 l 1126 99 q 1120 58 1126 79 q 1096 22 1114 36 q 1003 -3 1071 3 q 819 -8 936 -8 z "},"ǽ":{"ha":1201,"x_min":47,"x_max":1128,"o":"m 351 -7 q 194 -1 254 -7 q 102 24 135 6 q 58 75 69 42 q 47 161 47 108 q 61 269 47 232 q 110 319 75 306 q 203 333 144 333 q 283 333 238 333 q 372 331 328 332 q 448 326 415 329 q 493 319 481 322 q 485 388 493 363 q 461 426 478 413 q 417 443 444 439 q 349 447 389 447 q 252 446 300 447 q 159 440 204 444 q 76 431 114 436 l 76 469 q 93 525 76 507 q 139 549 110 543 q 234 558 171 556 q 371 561 297 561 q 527 551 464 561 q 626 517 590 542 q 678 442 663 492 q 693 311 693 393 l 693 35 q 583 3 671 14 q 351 -7 494 -7 m 350 79 q 416 81 389 79 q 463 88 443 83 q 493 97 482 92 l 493 253 q 451 260 478 257 q 396 264 424 263 q 353 265 368 265 q 299 260 319 265 q 269 235 278 254 q 260 175 260 215 q 267 119 260 140 q 293 88 274 97 q 350 79 313 79 m 819 -8 q 660 3 722 -8 q 561 44 597 15 q 510 126 525 74 q 494 264 494 179 q 525 436 494 372 q 631 529 556 500 q 842 558 707 558 q 1010 536 947 558 q 1100 467 1072 514 q 1128 346 1128 419 l 1128 239 l 742 239 q 755 288 742 268 q 804 308 768 308 l 943 308 l 942 338 q 919 423 942 394 q 833 451 896 451 q 753 435 782 451 q 715 380 725 419 q 704 267 704 340 q 717 167 704 200 q 765 122 731 133 q 864 110 800 110 q 928 111 888 110 q 1010 115 968 113 q 1085 119 1053 117 q 1126 124 1118 121 l 1126 99 q 1120 58 1126 79 q 1096 22 1114 36 q 1003 -3 1071 3 q 819 -8 936 -8 m 544 639 l 733 818 l 828 764 l 629 639 l 544 639 z "},"à":{"ha":742,"x_min":47,"x_max":693,"o":"m 351 -7 q 194 -1 254 -7 q 102 24 135 6 q 58 75 69 42 q 47 161 47 108 q 61 269 47 232 q 110 319 75 306 q 203 333 144 333 q 283 333 238 333 q 372 331 328 332 q 448 326 415 329 q 493 319 481 322 q 485 388 493 363 q 461 426 478 413 q 417 443 444 439 q 349 447 389 447 q 252 446 300 447 q 159 440 204 444 q 76 431 114 436 l 76 469 q 93 525 76 507 q 139 549 110 543 q 234 558 171 556 q 371 561 297 561 q 527 551 464 561 q 626 517 590 542 q 678 442 663 492 q 693 311 693 393 l 693 35 q 583 3 671 14 q 351 -7 494 -7 m 350 79 q 416 81 389 79 q 463 88 443 83 q 493 97 482 92 l 493 253 q 451 260 478 257 q 396 264 424 263 q 353 265 368 265 q 299 260 319 265 q 269 235 278 254 q 260 175 260 215 q 267 119 260 140 q 293 88 274 97 q 350 79 313 79 m 367 639 l 169 764 l 263 818 l 453 639 l 367 639 z "},"ả":{"ha":742,"x_min":47,"x_max":693,"o":"m 351 -7 q 194 -1 254 -7 q 102 24 135 6 q 58 75 69 42 q 47 161 47 108 q 61 269 47 232 q 110 319 75 306 q 203 333 144 333 q 283 333 238 333 q 372 331 328 332 q 448 326 415 329 q 493 319 481 322 q 485 388 493 363 q 461 426 478 413 q 417 443 444 439 q 349 447 389 447 q 252 446 300 447 q 159 440 204 444 q 76 431 114 436 l 76 469 q 93 525 76 507 q 139 549 110 543 q 234 558 171 556 q 371 561 297 561 q 527 551 464 561 q 626 517 590 542 q 678 442 663 492 q 693 311 693 393 l 693 35 q 583 3 671 14 q 351 -7 494 -7 m 350 79 q 416 81 389 79 q 463 88 443 83 q 493 97 482 92 l 493 253 q 451 260 478 257 q 396 264 424 263 q 353 265 368 265 q 299 260 319 265 q 269 235 278 254 q 260 175 260 215 q 267 119 260 140 q 293 88 274 97 q 350 79 313 79 m 338 636 l 338 654 q 351 681 338 672 q 376 697 364 689 q 388 722 388 706 l 388 735 q 383 762 388 754 q 361 769 378 769 q 342 761 347 769 q 335 739 336 753 l 265 750 q 368 828 272 828 q 452 809 424 828 q 481 740 481 790 l 481 736 q 466 692 481 706 q 437 669 451 678 q 422 646 422 661 l 422 636 l 338 636 z "},"ȃ":{"ha":742,"x_min":47,"x_max":693,"o":"m 369 817 q 474 801 438 817 q 523 745 510 785 q 536 635 536 706 l 458 635 q 442 715 458 690 q 369 739 426 739 q 300 715 319 739 q 281 635 281 690 l 204 635 q 217 744 204 704 q 267 800 231 783 q 369 817 303 817 m 351 -7 q 194 -1 254 -7 q 102 24 135 6 q 58 75 69 42 q 47 161 47 108 q 61 269 47 232 q 110 319 75 306 q 203 333 144 333 q 283 333 238 333 q 372 331 328 332 q 448 326 415 329 q 493 319 481 322 q 485 388 493 363 q 461 426 478 413 q 417 443 444 439 q 349 447 389 447 q 252 446 300 447 q 159 440 204 444 q 76 431 114 436 l 76 469 q 93 525 76 507 q 139 549 110 543 q 234 558 171 556 q 371 561 297 561 q 527 551 464 561 q 626 517 590 542 q 678 442 663 492 q 693 311 693 393 l 693 35 q 583 3 671 14 q 351 -7 494 -7 m 350 79 q 416 81 389 79 q 463 88 443 83 q 493 97 482 92 l 493 253 q 451 260 478 257 q 396 264 424 263 q 353 265 368 265 q 299 260 319 265 q 269 235 278 254 q 260 175 260 215 q 267 119 260 140 q 293 88 274 97 q 350 79 313 79 z "},"ā":{"ha":742,"x_min":47,"x_max":693,"o":"m 351 -7 q 194 -1 254 -7 q 102 24 135 6 q 58 75 69 42 q 47 161 47 108 q 61 269 47 232 q 110 319 75 306 q 203 333 144 333 q 283 333 238 333 q 372 331 328 332 q 448 326 415 329 q 493 319 481 322 q 485 388 493 363 q 461 426 478 413 q 417 443 444 439 q 349 447 389 447 q 252 446 300 447 q 159 440 204 444 q 76 431 114 436 l 76 469 q 93 525 76 507 q 139 549 110 543 q 234 558 171 556 q 371 561 297 561 q 527 551 464 561 q 626 517 590 542 q 678 442 663 492 q 693 311 693 393 l 693 35 q 583 3 671 14 q 351 -7 494 -7 m 350 79 q 416 81 389 79 q 463 88 443 83 q 493 97 482 92 l 493 253 q 451 260 478 257 q 396 264 424 263 q 353 265 368 265 q 299 260 319 265 q 269 235 278 254 q 260 175 260 215 q 267 119 260 140 q 293 88 274 97 q 350 79 313 79 m 178 639 l 178 722 l 563 722 l 563 639 l 178 639 z "},"&":{"ha":917,"x_min":53,"x_max":872,"o":"m 872 -19 q 808 15 843 -4 q 735 56 772 33 q 685 19 718 31 q 601 1 651 7 q 461 -6 533 -4 q 322 -6 389 -8 q 206 1 256 -4 q 119 25 153 7 q 69 82 85 43 q 53 190 53 121 q 63 272 53 233 q 97 338 74 311 q 157 371 119 365 q 108 412 124 382 q 93 499 93 442 q 105 565 93 539 q 138 605 117 590 q 188 626 160 619 q 250 636 217 633 q 360 644 301 643 q 478 643 419 644 q 582 639 538 642 q 665 627 631 636 q 718 592 699 618 q 738 513 738 567 q 669 531 711 525 q 587 538 628 536 q 518 539 546 539 q 458 538 494 539 q 387 528 422 536 q 328 504 351 521 q 304 457 304 488 q 325 402 304 426 q 397 350 346 378 l 538 257 l 538 376 q 638 373 593 376 q 713 353 683 369 q 753 300 743 336 q 757 254 756 281 q 759 201 758 228 q 758 151 760 175 l 872 90 l 872 -19 m 319 294 q 305 269 310 285 q 298 238 300 254 q 296 207 296 221 q 311 133 296 156 q 361 101 326 110 q 392 99 375 100 q 427 98 410 97 q 458 101 444 99 q 488 107 472 103 q 518 122 504 111 q 536 157 532 133 q 428 226 482 192 q 319 294 374 261 z "},"ą":{"ha":742,"x_min":47,"x_max":693,"o":"m 351 -7 q 194 -1 254 -7 q 102 24 135 6 q 58 75 69 42 q 47 161 47 108 q 61 269 47 232 q 110 319 75 306 q 203 333 144 333 q 283 333 238 333 q 372 331 328 332 q 448 326 415 329 q 493 319 481 322 q 485 388 493 363 q 461 426 478 413 q 417 443 444 439 q 349 447 389 447 q 252 446 300 447 q 159 440 204 444 q 76 431 114 436 l 76 469 q 93 525 76 507 q 139 549 110 543 q 234 558 171 556 q 371 561 297 561 q 527 551 464 561 q 626 517 590 542 q 678 442 663 492 q 693 311 693 393 l 693 35 q 583 3 671 14 q 351 -7 494 -7 m 350 79 q 416 81 389 79 q 463 88 443 83 q 493 97 482 92 l 493 253 q 451 260 478 257 q 396 264 424 263 q 353 265 368 265 q 299 260 319 265 q 269 235 278 254 q 260 175 260 215 q 267 119 260 140 q 293 88 274 97 q 350 79 313 79 m 564 -256 q 481 -243 510 -256 q 440 -206 451 -231 q 429 -146 429 -181 q 443 -88 429 -114 q 477 -42 457 -62 q 519 -7 497 -21 q 558 14 542 7 l 653 14 q 620 -3 642 10 q 576 -35 599 -17 q 537 -76 553 -54 q 521 -118 521 -97 q 544 -168 521 -158 q 601 -178 567 -178 q 641 -177 629 -178 q 657 -176 653 -176 q 664 -175 661 -175 q 658 -221 664 -203 q 630 -247 651 -239 q 564 -256 608 -256 z "},"ʼ":{"ha":178,"x_min":0,"x_max":178,"o":"m 60 758 l 178 758 l 92 554 l 0 554 l 60 758 z "},"":{"ha":550,"x_min":72,"x_max":481,"o":"m 385 464 q 380 442 383 453 q 369 422 376 432 q 336 389 356 400 q 286 375 314 375 q 285 389 285 381 q 286 410 285 397 q 306 456 290 435 q 344 490 321 478 q 376 497 368 501 q 385 464 388 485 m 481 133 q 474 112 478 124 q 464 89 469 100 q 436 47 453 64 q 403 15 421 26 q 385 6 394 10 q 367 3 376 3 q 338 8 347 3 q 329 13 333 11 q 322 17 325 15 q 283 25 308 25 q 244 17 260 25 q 229 8 240 13 q 200 3 219 3 q 165 18 181 3 q 151 33 160 25 q 132 53 142 42 q 114 79 122 65 q 99 110 106 93 q 76 181 83 142 q 74 216 75 197 q 74 253 72 235 q 93 317 76 286 q 108 340 100 331 q 126 358 117 350 q 161 378 147 374 q 177 382 169 381 q 192 383 185 383 q 210 381 207 383 q 221 378 214 381 q 233 374 228 376 l 263 364 q 286 361 276 360 q 294 362 290 361 q 304 364 299 363 l 333 374 q 347 378 342 376 q 356 381 351 381 l 374 385 q 403 381 386 385 q 419 376 411 379 q 438 365 428 372 q 468 332 453 356 q 431 296 447 319 q 414 228 410 268 q 435 171 414 199 q 481 133 454 146 z "},"≈":{"ha":481,"x_min":54,"x_max":435,"o":"m 54 138 q 78 177 68 160 q 99 210 89 194 q 126 231 111 224 q 160 242 140 239 q 194 240 172 244 q 239 231 217 236 q 287 219 265 224 q 326 210 308 215 q 358 209 344 206 q 376 217 371 213 q 402 222 393 217 q 415 239 411 228 q 424 233 419 236 q 433 228 428 231 q 419 207 428 221 q 404 182 411 193 q 393 168 397 171 q 373 147 383 156 q 346 133 363 139 q 307 138 328 136 q 267 144 286 140 q 221 156 243 151 q 179 165 199 161 q 124 169 140 172 q 90 138 93 165 q 76 138 85 139 q 54 138 67 138 m 54 308 q 78 348 68 331 q 99 382 89 365 q 126 402 111 394 q 160 413 140 410 q 197 410 174 414 q 242 401 219 407 q 285 390 261 396 q 326 381 308 385 q 358 381 346 379 q 376 388 371 383 q 402 393 393 388 q 415 410 411 399 q 424 404 419 407 q 435 399 429 401 q 420 378 429 392 q 403 353 411 364 q 392 339 396 342 q 372 317 382 325 q 346 304 363 310 q 311 308 331 306 q 272 314 292 310 q 222 326 244 321 q 179 336 200 332 q 125 342 140 343 q 90 308 93 338 q 76 309 85 310 q 54 308 67 308 z "},"å":{"ha":742,"x_min":47,"x_max":693,"o":"m 351 -7 q 194 -1 254 -7 q 102 24 135 6 q 58 75 69 42 q 47 161 47 108 q 61 269 47 232 q 110 319 75 306 q 203 333 144 333 q 283 333 238 333 q 372 331 328 332 q 448 326 415 329 q 493 319 481 322 q 485 388 493 363 q 461 426 478 413 q 417 443 444 439 q 349 447 389 447 q 252 446 300 447 q 159 440 204 444 q 76 431 114 436 l 76 469 q 93 525 76 507 q 139 549 110 543 q 234 558 171 556 q 371 561 297 561 q 527 551 464 561 q 626 517 590 542 q 678 442 663 492 q 693 311 693 393 l 693 35 q 583 3 671 14 q 351 -7 494 -7 m 350 79 q 416 81 389 79 q 463 88 443 83 q 493 97 482 92 l 493 253 q 451 260 478 257 q 396 264 424 263 q 353 265 368 265 q 299 260 319 265 q 269 235 278 254 q 260 175 260 215 q 267 119 260 140 q 293 88 274 97 q 350 79 313 79 m 365 631 q 266 653 301 631 q 231 733 231 675 q 266 811 231 792 q 368 831 301 831 q 470 811 433 831 q 507 733 507 792 q 470 653 507 675 q 365 631 433 631 m 368 686 q 411 694 396 686 q 426 733 426 703 q 411 768 426 760 q 368 776 396 776 q 326 768 342 776 q 310 733 310 760 q 325 694 310 703 q 368 686 340 686 z "},"ǻ":{"ha":742,"x_min":47,"x_max":693,"o":"m 351 -7 q 194 -1 254 -7 q 102 24 135 6 q 58 75 69 42 q 47 161 47 108 q 61 269 47 232 q 110 319 75 306 q 203 333 144 333 q 283 333 238 333 q 372 331 328 332 q 448 326 415 329 q 493 319 481 322 q 485 388 493 363 q 461 426 478 413 q 417 443 444 439 q 349 447 389 447 q 252 446 300 447 q 159 440 204 444 q 76 431 114 436 l 76 469 q 93 525 76 507 q 139 549 110 543 q 234 558 171 556 q 371 561 297 561 q 527 551 464 561 q 626 517 590 542 q 678 442 663 492 q 693 311 693 393 l 693 35 q 583 3 671 14 q 351 -7 494 -7 m 350 79 q 416 81 389 79 q 463 88 443 83 q 493 97 482 92 l 493 253 q 451 260 478 257 q 396 264 424 263 q 353 265 368 265 q 299 260 319 265 q 269 235 278 254 q 260 175 260 215 q 267 119 260 140 q 293 88 274 97 q 350 79 313 79 m 365 631 q 266 653 301 631 q 231 733 231 675 q 266 811 231 792 q 368 831 301 831 q 470 811 433 831 q 507 733 507 792 q 470 653 507 675 q 365 631 433 631 m 368 686 q 411 694 396 686 q 426 733 426 703 q 411 768 426 760 q 368 776 396 776 q 326 768 342 776 q 310 733 310 760 q 325 694 310 703 q 368 686 340 686 m 311 872 l 500 1051 l 594 997 l 396 872 l 311 872 z "},"^":{"ha":553,"x_min":51,"x_max":501,"o":"m 139 318 l 51 318 l 226 639 l 325 639 l 501 318 l 408 318 l 278 535 l 139 318 z "},"~":{"ha":582,"x_min":54,"x_max":526,"o":"m 54 675 q 64 690 54 675 q 91 723 74 704 q 131 757 108 742 q 179 774 153 772 q 233 766 206 775 q 290 744 261 757 q 346 722 318 732 q 399 715 374 713 q 435 728 417 717 q 469 755 454 740 q 490 776 485 769 l 526 721 q 517 708 526 721 q 491 676 508 694 q 451 642 474 657 q 401 624 428 626 q 348 630 376 621 q 291 651 319 639 q 235 674 263 664 q 182 682 208 683 q 147 668 165 681 q 113 642 128 656 q 92 621 99 628 l 54 675 z "},"*":{"ha":711,"x_min":63,"x_max":663,"o":"m 488 133 l 363 340 l 238 133 l 139 204 l 299 386 l 63 440 l 100 557 l 324 460 l 301 703 l 424 703 l 401 461 l 625 557 l 663 440 l 426 386 l 586 206 l 488 133 z "},"@":{"ha":1113,"x_min":68,"x_max":1044,"o":"m 547 589 q 366 578 439 589 q 249 534 293 567 q 188 439 206 501 q 169 274 169 376 q 188 130 169 183 q 246 49 207 76 q 344 12 285 21 q 486 3 404 3 q 644 8 561 3 q 807 23 728 13 q 949 49 886 33 q 1044 83 1011 64 q 1044 38 1044 60 q 1044 -7 1044 17 q 939 -36 1000 -22 q 808 -58 878 -50 q 663 -69 738 -67 q 553 -74 617 -71 q 420 -74 489 -76 q 288 -58 351 -71 q 176 -19 224 -46 q 108 56 128 8 q 77 144 86 92 q 68 265 68 196 q 93 478 68 399 q 174 596 118 557 q 319 647 229 635 q 540 658 410 658 q 739 652 651 658 q 889 620 826 646 q 985 536 951 594 q 1022 374 1018 478 q 1017 267 1024 315 q 989 184 1010 219 q 931 128 968 149 q 838 106 894 108 q 779 110 807 106 q 731 133 751 115 q 697 186 710 151 q 677 149 693 165 q 639 125 661 132 q 569 113 610 117 q 488 110 528 110 q 369 123 415 110 q 300 176 322 136 q 278 297 278 217 q 310 418 278 379 q 409 469 343 457 q 574 479 475 481 q 630 477 596 479 q 700 474 664 475 q 763 469 736 472 q 800 465 790 467 q 797 442 799 461 q 796 400 796 424 q 796 308 796 354 q 796 217 796 263 q 811 182 796 192 q 846 174 826 172 q 894 200 878 175 q 915 268 910 225 q 919 363 919 311 q 892 489 919 443 q 815 556 865 535 q 698 583 765 576 q 547 589 631 589 m 636 388 q 615 389 631 388 q 580 392 599 390 q 543 393 561 393 q 487 385 510 393 q 453 359 464 378 q 442 306 442 340 q 451 234 442 257 q 481 205 460 211 q 538 199 503 199 q 568 201 551 199 q 601 212 585 203 q 626 240 617 221 q 636 289 636 258 l 636 388 z "},"ã":{"ha":742,"x_min":47,"x_max":693,"o":"m 351 -7 q 194 -1 254 -7 q 102 24 135 6 q 58 75 69 42 q 47 161 47 108 q 61 269 47 232 q 110 319 75 306 q 203 333 144 333 q 283 333 238 333 q 372 331 328 332 q 448 326 415 329 q 493 319 481 322 q 485 388 493 363 q 461 426 478 413 q 417 443 444 439 q 349 447 389 447 q 252 446 300 447 q 159 440 204 444 q 76 431 114 436 l 76 469 q 93 525 76 507 q 139 549 110 543 q 234 558 171 556 q 371 561 297 561 q 527 551 464 561 q 626 517 590 542 q 678 442 663 492 q 693 311 693 393 l 693 35 q 583 3 671 14 q 351 -7 494 -7 m 350 79 q 416 81 389 79 q 463 88 443 83 q 493 97 482 92 l 493 253 q 451 260 478 257 q 396 264 424 263 q 353 265 368 265 q 299 260 319 265 q 269 235 278 254 q 260 175 260 215 q 267 119 260 140 q 293 88 274 97 q 350 79 313 79 m 450 639 q 397 653 422 639 q 346 683 371 668 q 293 696 321 699 q 251 679 267 696 q 231 654 236 663 l 193 686 q 201 702 194 688 q 219 735 207 717 q 251 768 232 754 q 294 782 269 782 q 347 769 322 785 q 397 740 372 754 q 447 725 422 725 q 495 743 478 725 q 519 774 513 761 l 557 744 q 549 727 557 743 q 528 691 542 711 q 495 655 515 671 q 450 639 475 639 z "},"b":{"ha":743,"x_min":61,"x_max":697,"o":"m 369 -6 q 215 4 275 -6 q 121 42 154 14 q 75 124 88 69 q 63 268 63 178 l 61 701 l 267 701 l 267 551 q 291 552 274 551 q 331 553 308 553 q 380 555 354 554 q 428 556 406 556 q 593 529 535 556 q 674 441 651 503 q 697 272 697 379 q 678 121 697 176 q 618 38 658 65 q 516 3 578 11 q 369 -6 454 -6 m 372 104 q 447 116 422 104 q 480 165 471 128 q 489 282 489 203 q 478 381 489 346 q 441 429 467 415 q 369 443 415 443 q 343 443 358 443 q 313 442 328 443 q 285 442 297 442 q 267 442 274 442 l 267 240 q 271 169 267 196 q 286 128 275 142 q 317 109 297 114 q 372 104 338 104 z "},"\\":{"ha":653,"x_min":160,"x_max":449,"o":"m 321 210 l 160 524 l 290 524 l 449 210 l 321 210 z "},"|":{"ha":401,"x_min":104,"x_max":297,"o":"m 297 639 l 297 -221 l 104 -221 l 104 639 l 297 639 z "},"{":{"ha":579,"x_min":51,"x_max":528,"o":"m 376 122 q 404 40 376 61 q 476 18 432 18 q 501 18 486 18 q 528 18 515 18 q 528 -1 528 15 q 528 -33 528 -18 q 528 -53 528 -49 q 337 -49 413 -53 q 219 -28 261 -46 q 159 30 176 -11 q 142 144 142 71 q 136 249 142 217 q 111 290 131 282 q 51 299 92 299 q 51 317 51 301 q 51 347 51 332 q 51 364 51 361 q 115 375 96 364 q 138 422 133 386 q 142 528 142 457 q 165 642 142 601 q 237 701 189 683 q 357 722 285 718 q 528 725 429 725 q 528 706 528 722 q 528 674 528 690 q 528 654 528 658 l 465 654 q 399 635 422 654 q 376 550 376 617 l 376 501 q 360 408 376 444 q 319 353 344 371 q 269 333 294 335 q 319 315 294 332 q 360 267 344 299 q 376 185 376 235 l 376 122 z "},"}":{"ha":579,"x_min":51,"x_max":528,"o":"m 203 122 l 203 185 q 220 267 203 235 q 264 315 238 299 q 315 333 290 332 q 264 353 290 335 q 220 408 238 371 q 203 501 203 444 l 203 550 q 181 635 203 617 q 114 654 158 654 l 51 654 q 51 674 51 658 q 51 706 51 690 q 51 725 51 722 q 223 722 150 725 q 343 701 296 718 q 414 642 390 683 q 438 528 438 601 q 442 422 438 457 q 466 375 447 386 q 528 364 485 364 q 528 347 528 361 q 528 317 528 332 q 528 299 528 301 q 469 290 488 299 q 444 249 450 282 q 438 144 438 217 q 420 30 438 71 q 360 -28 403 -11 q 242 -49 318 -46 q 51 -53 167 -53 q 51 -33 51 -49 q 51 -1 51 -18 q 51 18 51 15 q 78 18 64 18 q 103 18 93 18 q 175 40 147 18 q 203 122 203 61 z "},"[":{"ha":496,"x_min":51,"x_max":422,"o":"m 288 0 q 307 -44 288 -31 q 369 -57 326 -57 l 422 -57 l 422 -135 q 392 -135 419 -135 q 323 -136 364 -136 q 236 -136 282 -136 q 150 -136 190 -136 q 82 -136 110 -136 q 51 -136 54 -136 l 51 742 l 422 742 l 422 664 l 369 664 q 307 650 326 664 q 288 606 288 636 l 288 0 z "},"]":{"ha":496,"x_min":51,"x_max":422,"o":"m 185 606 q 166 650 185 636 q 104 664 147 664 l 51 664 l 51 742 l 422 742 l 422 -136 l 51 -136 l 51 -57 l 104 -57 q 166 -44 147 -57 q 185 0 185 -31 l 185 606 z "},"˘":{"ha":361,"x_min":1,"x_max":333,"o":"m 168 636 q 64 653 100 636 q 15 709 28 669 q 1 818 1 749 l 78 818 q 97 738 78 761 q 168 714 117 714 q 240 739 224 714 q 256 818 256 764 l 333 818 q 320 708 333 747 q 271 652 307 668 q 168 636 235 636 z "},"̮":{"ha":0,"x_min":1,"x_max":333,"o":"m 168 -239 q 64 -222 100 -239 q 15 -166 28 -206 q 1 -57 1 -126 l 78 -57 q 97 -137 78 -114 q 168 -161 117 -161 q 240 -136 224 -161 q 256 -57 256 -111 l 333 -57 q 320 -167 333 -128 q 271 -223 307 -207 q 168 -239 235 -239 z "},"̆":{"ha":0,"x_min":1,"x_max":333,"o":"m 168 636 q 64 653 100 636 q 15 709 28 669 q 1 818 1 749 l 78 818 q 97 738 78 761 q 168 714 117 714 q 240 739 224 714 q 256 818 256 764 l 333 818 q 320 708 333 747 q 271 652 307 668 q 168 636 235 636 z "},"̑":{"ha":0,"x_min":1,"x_max":333,"o":"m 168 818 q 271 802 235 818 q 320 747 307 786 q 333 636 333 707 l 256 636 q 240 716 256 692 q 168 740 224 740 q 97 716 117 740 q 78 636 78 692 l 1 636 q 15 745 1 706 q 64 801 28 785 q 168 818 100 818 z "},"¦":{"ha":315,"x_min":54,"x_max":247,"o":"m 247 142 l 247 -221 l 54 -221 l 54 142 l 247 142 m 247 639 l 247 289 l 54 289 l 54 639 l 247 639 z "},"•":{"ha":688,"x_min":99,"x_max":585,"o":"m 99 368 q 131 483 99 432 q 219 564 164 533 q 342 594 275 594 q 465 564 410 594 q 552 483 519 533 q 585 368 585 432 q 552 254 585 306 q 465 172 519 203 q 342 142 410 142 q 219 172 275 142 q 131 254 164 203 q 99 368 99 306 z "},"∙":{"ha":417,"x_min":86,"x_max":331,"o":"m 86 285 q 103 341 86 315 q 147 382 119 367 q 208 397 175 397 q 270 382 243 397 q 314 341 297 367 q 331 285 331 315 q 314 227 331 253 q 270 187 297 201 q 208 172 243 172 q 147 187 175 172 q 103 227 119 201 q 86 285 86 253 z "},"c":{"ha":657,"x_min":44,"x_max":621,"o":"m 389 -8 q 188 13 264 -8 q 78 94 113 35 q 44 265 44 153 q 78 451 44 388 q 188 539 113 515 q 389 563 264 563 q 459 559 425 563 q 542 549 493 556 q 587 536 569 546 q 613 504 604 526 q 621 438 621 482 q 574 448 606 443 q 507 456 543 453 q 443 458 471 458 q 331 442 372 458 q 273 386 290 425 q 256 279 256 347 q 273 174 256 213 q 331 118 290 135 q 443 101 372 101 q 510 104 475 101 q 576 112 546 107 q 621 122 606 117 l 621 67 q 590 16 621 32 q 506 -4 558 0 q 389 -8 453 -8 z "},"ć":{"ha":657,"x_min":44,"x_max":621,"o":"m 389 -8 q 188 13 264 -8 q 78 94 113 35 q 44 265 44 153 q 78 451 44 388 q 188 539 113 515 q 389 563 264 563 q 459 559 425 563 q 542 549 493 556 q 587 536 569 546 q 613 504 604 526 q 621 438 621 482 q 574 448 606 443 q 507 456 543 453 q 443 458 471 458 q 331 442 372 458 q 273 386 290 425 q 256 279 256 347 q 273 174 256 213 q 331 118 290 135 q 443 101 372 101 q 510 104 475 101 q 576 112 546 107 q 621 122 606 117 l 621 67 q 590 16 621 32 q 506 -4 558 0 q 389 -8 453 -8 m 310 639 l 499 818 l 593 764 l 394 639 l 310 639 z "},"ˇ":{"ha":393,"x_min":0,"x_max":353,"o":"m 0 824 l 85 824 l 175 728 l 263 824 l 353 824 l 204 639 l 147 639 l 0 824 z "},"̌":{"ha":0,"x_min":0,"x_max":353,"o":"m 0 824 l 85 824 l 175 728 l 263 824 l 353 824 l 204 639 l 147 639 l 0 824 z "},"č":{"ha":657,"x_min":44,"x_max":621,"o":"m 192 824 l 275 824 l 367 728 l 454 824 l 543 824 l 394 639 l 338 639 l 192 824 m 389 -8 q 188 13 264 -8 q 78 94 113 35 q 44 265 44 153 q 78 451 44 388 q 188 539 113 515 q 389 563 264 563 q 459 559 425 563 q 542 549 493 556 q 587 536 569 546 q 613 504 604 526 q 621 438 621 482 q 574 448 606 443 q 507 456 543 453 q 443 458 471 458 q 331 442 372 458 q 273 386 290 425 q 256 279 256 347 q 273 174 256 213 q 331 118 290 135 q 443 101 372 101 q 510 104 475 101 q 576 112 546 107 q 621 122 606 117 l 621 67 q 590 16 621 32 q 506 -4 558 0 q 389 -8 453 -8 z "},"ç":{"ha":657,"x_min":44,"x_max":621,"o":"m 389 -8 q 188 13 264 -8 q 78 94 113 35 q 44 265 44 153 q 78 451 44 388 q 188 539 113 515 q 389 563 264 563 q 459 559 425 563 q 542 549 493 556 q 587 536 569 546 q 613 504 604 526 q 621 438 621 482 q 574 448 606 443 q 507 456 543 453 q 443 458 471 458 q 331 442 372 458 q 273 386 290 425 q 256 279 256 347 q 273 174 256 213 q 331 118 290 135 q 443 101 372 101 q 510 104 475 101 q 576 112 546 107 q 621 122 606 117 l 621 67 q 590 16 621 32 q 506 -4 558 0 q 389 -8 453 -8 m 318 -249 q 256 -239 269 -249 q 243 -199 243 -229 q 264 -199 247 -199 q 313 -199 281 -199 q 364 -192 350 -199 q 378 -169 378 -186 q 365 -142 378 -147 q 313 -136 351 -136 l 253 -136 q 248 -129 251 -136 q 248 -109 244 -122 q 265 -78 251 -96 q 286 -56 275 -68 q 310 -33 297 -44 q 337 -12 324 -21 q 361 1 350 -3 l 422 1 l 347 -90 q 438 -94 408 -89 q 478 -116 468 -99 q 488 -171 488 -133 q 474 -225 488 -208 q 424 -245 460 -242 q 318 -249 388 -249 z "},"ĉ":{"ha":657,"x_min":44,"x_max":621,"o":"m 389 -8 q 188 13 264 -8 q 78 94 113 35 q 44 265 44 153 q 78 451 44 388 q 188 539 113 515 q 389 563 264 563 q 459 559 425 563 q 542 549 493 556 q 587 536 569 546 q 613 504 604 526 q 621 438 621 482 q 574 448 606 443 q 507 456 543 453 q 443 458 471 458 q 331 442 372 458 q 273 386 290 425 q 256 279 256 347 q 273 174 256 213 q 331 118 290 135 q 443 101 372 101 q 510 104 475 101 q 576 112 546 107 q 621 122 606 117 l 621 67 q 590 16 621 32 q 506 -4 558 0 q 389 -8 453 -8 m 190 639 l 338 824 l 394 824 l 543 639 l 453 639 l 365 735 l 275 639 l 190 639 z "},"ċ":{"ha":657,"x_min":44,"x_max":621,"o":"m 389 -8 q 188 13 264 -8 q 78 94 113 35 q 44 265 44 153 q 78 451 44 388 q 188 539 113 515 q 389 563 264 563 q 459 559 425 563 q 542 549 493 556 q 587 536 569 546 q 613 504 604 526 q 621 438 621 482 q 574 448 606 443 q 507 456 543 453 q 443 458 471 458 q 331 442 372 458 q 273 386 290 425 q 256 279 256 347 q 273 174 256 213 q 331 118 290 135 q 443 101 372 101 q 510 104 475 101 q 576 112 546 107 q 621 122 606 117 l 621 67 q 590 16 621 32 q 506 -4 558 0 q 389 -8 453 -8 m 368 636 q 313 644 335 636 q 292 688 292 651 q 315 731 292 722 q 371 739 338 739 q 422 730 403 739 q 442 688 442 721 q 422 644 442 651 q 368 636 401 636 z "},"₵":{"ha":843,"x_min":43,"x_max":803,"o":"m 313 -106 l 521 733 l 667 733 l 458 -106 l 313 -106 m 43 319 q 65 480 43 417 q 140 579 88 543 q 281 631 193 615 q 500 646 369 646 q 605 642 556 646 q 708 631 654 639 q 785 603 767 624 q 803 546 803 582 l 803 475 q 709 500 763 490 q 603 515 656 510 q 510 519 550 519 q 376 506 428 519 q 300 449 324 492 q 276 318 276 406 q 300 192 276 235 q 379 133 324 149 q 526 118 435 118 q 609 123 565 118 q 701 136 653 128 q 803 157 749 144 l 803 92 q 783 37 803 58 q 704 7 764 15 q 599 -4 651 -1 q 492 -7 547 -7 q 273 8 360 -7 q 135 58 186 22 q 64 158 85 94 q 43 319 43 221 z "},"¸":{"ha":347,"x_min":7,"x_max":251,"o":"m 82 -249 q 20 -239 33 -249 q 7 -199 7 -229 q 28 -199 11 -199 q 76 -199 44 -199 q 128 -192 114 -199 q 142 -169 142 -186 q 128 -142 142 -147 q 76 -136 115 -136 l 17 -136 q 12 -129 15 -136 q 12 -109 8 -122 q 29 -78 15 -96 q 50 -56 39 -68 q 74 -33 61 -44 q 101 -12 88 -21 q 125 1 114 -3 l 186 1 l 111 -90 q 202 -94 172 -89 q 242 -116 232 -99 q 251 -171 251 -133 q 238 -225 251 -208 q 188 -245 224 -242 q 82 -249 151 -249 z "},"̧":{"ha":0,"x_min":7,"x_max":251,"o":"m 82 -249 q 20 -239 33 -249 q 7 -199 7 -229 q 28 -199 11 -199 q 76 -199 44 -199 q 128 -192 114 -199 q 142 -169 142 -186 q 128 -142 142 -147 q 76 -136 115 -136 l 17 -136 q 12 -129 15 -136 q 12 -109 8 -122 q 29 -78 15 -96 q 50 -56 39 -68 q 74 -33 61 -44 q 101 -12 88 -21 q 125 1 114 -3 l 186 1 l 111 -90 q 202 -94 172 -89 q 242 -116 232 -99 q 251 -171 251 -133 q 238 -225 251 -208 q 188 -245 224 -242 q 82 -249 151 -249 z "},"¢":{"ha":749,"x_min":44,"x_max":714,"o":"m 396 74 q 224 90 293 74 q 117 140 156 106 q 61 228 78 174 q 44 361 44 283 q 77 521 46 458 q 183 614 108 583 q 388 644 257 644 q 557 631 493 644 q 653 592 621 618 q 697 526 686 565 q 708 433 708 486 l 543 433 q 509 531 544 501 q 404 560 474 560 q 314 540 350 560 q 261 477 278 521 q 244 363 244 433 q 263 240 246 283 q 317 181 281 197 q 410 164 354 164 q 483 176 454 164 q 528 217 513 189 q 543 293 543 246 l 714 293 q 699 189 714 231 q 650 122 685 147 q 553 85 615 96 q 396 74 490 74 m 207 0 l 514 726 l 579 726 l 274 0 l 207 0 z "},"":{"ha":751,"x_min":44,"x_max":714,"o":"m 396 -18 q 224 -2 293 -18 q 117 48 156 14 q 61 137 78 82 q 44 269 44 192 q 77 429 46 367 q 183 522 108 492 q 388 553 257 553 q 557 540 493 553 q 653 500 621 526 q 697 434 686 474 q 708 342 708 394 l 543 342 q 509 439 544 410 q 404 468 474 468 q 314 449 350 468 q 261 385 278 429 q 244 271 244 342 q 263 149 246 192 q 317 89 281 106 q 410 72 354 72 q 483 85 454 72 q 528 126 513 97 q 543 201 543 154 l 714 201 q 699 97 714 139 q 650 30 685 56 q 553 -7 615 4 q 396 -18 490 -18 m 207 -92 l 514 635 l 579 635 l 274 -92 l 207 -92 z "},"":{"ha":592,"x_min":44,"x_max":544,"o":"m 307 56 q 178 67 229 56 q 97 105 126 79 q 56 171 68 131 q 44 271 44 211 q 67 390 44 343 q 147 460 90 438 q 300 482 203 482 q 427 472 379 482 q 499 443 475 463 q 532 394 524 424 q 540 325 540 364 l 415 325 q 390 398 417 376 q 313 419 364 419 q 245 405 272 419 q 206 358 218 390 q 193 271 193 325 q 206 180 193 213 q 247 135 219 147 q 317 122 275 122 q 372 132 350 122 q 405 163 394 142 q 415 219 415 183 l 544 219 q 533 141 544 172 q 497 91 522 110 q 424 64 471 72 q 307 56 378 56 m 165 0 l 394 543 l 443 543 l 215 0 l 165 0 z "},"":{"ha":579,"x_min":49,"x_max":526,"o":"m 300 404 q 178 415 226 404 q 101 451 129 426 q 60 515 72 476 q 49 610 49 554 q 72 724 50 679 q 147 791 94 769 q 293 813 200 813 q 415 803 368 813 q 484 774 461 793 q 515 727 507 756 q 524 661 524 699 l 404 661 q 381 731 406 710 q 306 751 356 751 q 242 738 268 751 q 203 692 215 724 q 192 610 190 661 q 205 522 192 553 q 244 480 218 492 q 310 468 269 468 q 363 477 340 468 q 394 507 385 486 q 404 561 404 528 l 526 561 q 517 486 526 517 q 481 438 507 456 q 412 413 456 421 q 300 404 368 404 m 165 351 l 385 871 l 431 871 l 213 351 l 165 351 z "},"ˆ":{"ha":394,"x_min":0,"x_max":353,"o":"m 0 639 l 147 824 l 204 824 l 353 639 l 263 639 l 175 735 l 85 639 l 0 639 z "},"̂":{"ha":0,"x_min":0,"x_max":353,"o":"m 0 639 l 147 824 l 204 824 l 353 639 l 263 639 l 175 735 l 85 639 l 0 639 z "},":":{"ha":328,"x_min":61,"x_max":265,"o":"m 61 64 q 92 119 61 108 q 167 131 124 131 q 239 119 213 131 q 265 64 265 108 q 252 18 265 32 q 217 0 239 4 q 164 -4 194 -4 q 112 0 135 -4 q 75 18 89 4 q 61 64 61 32 m 61 438 q 75 481 61 467 q 113 500 89 496 q 167 504 138 504 q 238 492 211 504 q 264 438 264 481 q 251 391 264 406 q 217 373 239 376 q 164 369 194 369 q 111 373 135 369 q 74 391 88 376 q 61 438 61 406 z "},"₡":{"ha":843,"x_min":43,"x_max":803,"o":"m 43 319 q 65 480 43 417 q 140 579 88 543 q 281 631 193 615 q 500 646 369 646 q 605 642 556 646 q 708 631 654 639 q 785 603 767 624 q 803 546 803 582 l 803 475 q 709 500 763 490 q 603 515 656 510 q 510 519 550 519 q 376 506 428 519 q 300 449 324 492 q 276 318 276 406 q 300 192 276 235 q 379 133 324 149 q 526 118 435 118 q 609 123 565 118 q 701 136 653 128 q 803 157 749 144 l 803 92 q 783 37 803 58 q 704 7 764 15 q 599 -4 651 -1 q 492 -7 547 -7 q 273 8 360 -7 q 135 58 186 22 q 64 158 85 94 q 43 319 43 221 m 286 -106 l 497 733 l 582 733 l 371 -106 l 286 -106 m 440 -106 l 651 733 l 736 733 l 525 -106 l 440 -106 z "},",":{"ha":340,"x_min":61,"x_max":281,"o":"m 61 -165 q 107 -81 85 -124 q 149 0 129 -37 q 140 1 144 0 q 129 1 135 1 q 88 17 104 4 q 71 64 71 29 q 85 108 71 94 q 125 126 100 122 q 181 131 150 131 q 254 119 228 131 q 281 64 281 107 q 263 -13 281 31 q 222 -99 246 -57 q 179 -165 199 -140 l 61 -165 z "},"̦":{"ha":0,"x_min":1,"x_max":175,"o":"m 3 -354 q 28 -304 18 -325 q 49 -263 39 -283 q 71 -218 60 -243 q 61 -217 67 -218 q 50 -217 56 -217 q 17 -201 32 -214 q 1 -154 1 -189 q 28 -99 1 -110 q 100 -87 54 -87 q 136 -92 119 -87 q 164 -110 153 -96 q 175 -154 175 -125 q 163 -223 175 -186 q 131 -294 150 -260 q 90 -354 111 -328 l 3 -354 z "},"":{"ha":354,"x_min":85,"x_max":271,"o":"m 85 -169 q 124 -97 106 -133 q 158 -28 143 -60 q 151 -27 156 -28 q 143 -26 147 -26 q 108 -14 122 -25 q 93 26 93 -3 q 106 65 93 53 q 140 80 118 76 q 186 83 161 83 q 249 74 226 83 q 271 26 271 64 q 256 -39 271 -1 q 222 -112 242 -76 q 185 -169 201 -147 l 85 -169 z "},"":{"ha":375,"x_min":81,"x_max":300,"o":"m 81 200 q 126 285 104 242 q 168 365 149 328 q 159 366 164 365 q 149 367 154 367 q 107 382 124 369 q 90 429 90 394 q 105 474 90 460 q 144 492 119 488 q 200 496 169 496 q 274 484 247 496 q 300 429 300 472 q 283 352 300 396 q 242 267 265 308 q 199 200 218 225 l 81 200 z "},"̒":{"ha":0,"x_min":0,"x_max":172,"o":"m 74 639 q 40 644 57 639 q 11 663 22 649 q 0 707 0 678 q 13 776 0 740 q 44 847 25 813 q 83 906 64 881 l 172 906 q 146 858 157 879 q 126 816 135 836 q 104 771 117 796 q 114 770 108 771 q 124 768 119 769 q 158 753 143 765 q 172 706 172 742 q 147 651 172 663 q 74 639 121 639 z "},"⁒":{"ha":833,"x_min":86,"x_max":788,"o":"m 544 190 q 560 247 544 221 q 604 288 576 272 q 667 303 632 303 q 728 288 700 303 q 772 247 756 272 q 788 190 788 221 q 772 133 788 158 q 728 92 756 107 q 667 78 700 78 q 604 92 632 78 q 560 133 576 107 q 544 190 544 158 m 86 503 q 103 559 86 533 q 147 600 119 585 q 208 615 175 615 q 270 600 243 615 q 314 559 297 585 q 331 503 331 533 q 314 445 331 471 q 270 405 297 419 q 208 390 243 390 q 147 405 175 390 q 103 445 119 419 q 86 503 86 471 m 183 -53 l 539 786 l 685 786 l 328 -53 l 183 -53 z "},"©":{"ha":810,"x_min":47,"x_max":763,"o":"m 47 340 q 95 514 47 439 q 225 631 143 589 q 406 672 307 672 q 586 631 506 672 q 715 514 667 589 q 763 340 763 439 q 715 165 763 243 q 586 41 667 86 q 406 -4 506 -4 q 225 41 307 -4 q 95 165 143 86 q 47 340 47 243 m 115 340 q 154 197 115 260 q 258 99 193 135 q 406 63 324 63 q 549 99 483 63 q 653 197 614 135 q 692 340 692 260 q 653 481 692 422 q 549 572 614 540 q 406 604 483 604 q 258 572 324 604 q 154 481 193 540 q 115 340 115 422 m 413 503 q 500 497 463 503 q 558 471 538 490 q 579 408 579 451 q 579 398 579 404 q 579 386 579 392 l 493 386 q 490 416 493 404 q 479 435 486 428 q 453 455 471 450 q 408 460 436 460 q 363 452 383 460 q 333 424 342 444 q 322 389 325 410 q 318 347 318 368 q 322 307 318 325 q 335 275 325 289 q 408 232 350 232 q 450 238 431 232 q 481 258 469 243 q 490 273 486 264 q 493 297 493 282 q 493 302 493 300 q 493 307 493 304 l 581 307 q 581 292 581 300 q 581 276 581 285 q 556 216 581 235 q 491 193 531 197 q 407 189 451 189 q 295 201 338 189 q 234 246 253 213 q 215 343 215 279 q 236 438 215 403 q 301 488 257 472 q 413 503 344 503 z "},"¤":{"ha":676,"x_min":72,"x_max":603,"o":"m 504 651 q 544 566 535 619 q 546 458 554 513 q 513 368 538 404 l 603 260 l 549 260 l 465 332 q 387 315 433 319 q 294 316 340 311 q 211 333 247 321 l 126 260 l 72 260 l 164 372 q 134 458 142 407 q 136 560 126 508 q 172 646 146 611 l 72 771 l 126 771 l 225 682 q 333 699 275 700 q 451 685 392 699 l 549 771 l 603 771 l 504 651 m 211 506 q 228 419 211 447 q 275 383 244 392 q 343 375 306 375 q 408 383 381 375 q 452 420 436 392 q 468 506 468 449 q 452 592 468 564 q 408 628 436 619 q 343 636 381 636 q 275 628 306 636 q 228 592 244 619 q 211 506 211 564 z "},"d":{"ha":728,"x_min":44,"x_max":682,"o":"m 44 278 q 78 452 44 390 q 173 537 111 514 q 318 560 235 560 q 377 557 346 560 q 438 549 408 554 q 491 537 468 544 q 526 519 514 529 l 476 500 l 476 701 l 682 701 l 681 279 q 664 128 681 185 q 609 44 647 72 q 506 6 571 15 q 347 -3 442 -3 q 201 8 260 -3 q 109 50 143 19 q 60 135 75 81 q 44 278 44 189 m 357 104 q 418 111 394 104 q 454 135 442 118 q 472 181 467 151 q 476 256 476 210 l 475 440 q 452 441 467 440 q 422 442 438 442 q 390 443 406 443 q 308 430 338 443 q 265 381 278 417 q 253 275 253 346 q 263 167 253 203 q 297 117 274 131 q 357 104 321 104 z "},"†":{"ha":526,"x_min":44,"x_max":428,"o":"m 44 586 l 147 586 l 147 772 l 322 772 l 322 586 l 428 586 l 428 486 l 322 486 l 322 -22 l 147 -22 l 147 486 l 44 486 l 44 586 z "},"‡":{"ha":561,"x_min":56,"x_max":493,"o":"m 56 615 l 169 615 l 169 833 l 379 833 l 379 615 l 493 615 l 493 550 l 379 550 l 379 422 l 493 422 l 493 358 l 379 358 l 379 -26 l 169 -26 l 169 358 l 56 358 l 56 422 l 169 422 l 169 550 l 56 550 l 56 615 z "},"̏":{"ha":0,"x_min":0,"x_max":396,"o":"m 168 639 l 0 764 l 108 818 l 253 639 l 168 639 m 319 639 l 186 797 l 294 850 l 396 639 l 319 639 z "},"ď":{"ha":728,"x_min":44,"x_max":869,"o":"m 44 278 q 78 452 44 390 q 173 537 111 514 q 318 560 235 560 q 377 557 346 560 q 438 549 408 554 q 491 537 468 544 q 526 519 514 529 l 476 500 l 476 701 l 682 701 l 681 279 q 664 128 681 185 q 609 44 647 72 q 506 6 571 15 q 347 -3 442 -3 q 201 8 260 -3 q 109 50 143 19 q 60 135 75 81 q 44 278 44 189 m 357 104 q 418 111 394 104 q 454 135 442 118 q 472 181 467 151 q 476 256 476 210 l 475 440 q 452 441 467 440 q 422 442 438 442 q 390 443 406 443 q 308 430 338 443 q 265 381 278 417 q 253 275 253 346 q 263 167 253 203 q 297 117 274 131 q 357 104 321 104 m 771 494 l 775 701 l 868 701 l 843 494 l 771 494 z "},"đ":{"ha":749,"x_min":44,"x_max":782,"o":"m 388 743 l 482 743 l 482 854 l 690 854 l 690 743 l 782 743 l 782 667 l 690 667 l 689 279 q 676 141 689 196 q 628 55 663 86 q 529 10 593 24 q 364 -3 465 -3 q 206 7 268 -3 q 108 45 143 17 q 59 130 74 74 q 44 278 44 186 q 76 444 44 383 q 175 530 107 504 q 354 556 243 556 q 384 555 365 556 q 422 553 403 554 q 458 550 442 551 q 482 547 475 549 l 482 667 l 388 667 l 388 743 m 363 104 q 419 110 396 104 q 456 131 442 115 q 476 176 469 146 q 482 256 482 207 l 482 440 q 472 441 479 440 q 451 442 464 442 q 423 442 438 442 q 393 443 408 443 q 306 428 336 443 q 264 375 275 413 q 253 271 253 338 q 264 164 253 200 q 299 116 275 128 q 363 104 324 104 z "},"°":{"ha":456,"x_min":53,"x_max":404,"o":"m 53 713 q 77 816 53 781 q 144 865 101 851 q 235 879 186 879 q 323 865 285 879 q 383 814 361 850 q 404 713 404 778 q 382 603 404 642 q 320 551 360 565 q 229 536 281 536 q 138 551 178 536 q 76 603 99 565 q 53 713 53 642 m 143 714 q 167 642 143 661 q 228 624 190 624 q 289 642 265 624 q 313 714 313 661 q 290 782 313 764 q 231 800 267 800 q 169 783 194 800 q 143 714 143 765 z "},"¨":{"ha":511,"x_min":0,"x_max":406,"o":"m 331 638 q 276 647 297 638 q 254 694 254 656 q 277 739 254 731 q 333 747 300 747 q 385 738 364 747 q 406 694 406 728 q 385 647 406 656 q 331 638 365 638 m 76 638 q 22 647 43 638 q 0 694 0 656 q 23 739 0 731 q 79 747 46 747 q 131 738 111 747 q 150 694 150 728 q 130 647 150 657 q 76 638 110 638 z "},"̤":{"ha":0,"x_min":0,"x_max":406,"o":"m 331 -142 q 276 -133 297 -142 q 254 -85 254 -124 q 277 -40 254 -49 q 333 -32 300 -32 q 385 -42 364 -32 q 406 -85 406 -51 q 385 -133 406 -124 q 331 -142 365 -142 m 76 -142 q 22 -133 43 -142 q 0 -85 0 -124 q 23 -40 0 -49 q 79 -32 46 -32 q 131 -42 111 -32 q 150 -85 150 -51 q 130 -132 150 -122 q 76 -142 110 -142 z "},"̈":{"ha":0,"x_min":0,"x_max":406,"o":"m 331 638 q 276 647 297 638 q 254 694 254 656 q 277 739 254 731 q 333 747 300 747 q 385 738 364 747 q 406 694 406 728 q 385 647 406 656 q 331 638 365 638 m 76 638 q 22 647 43 638 q 0 694 0 656 q 23 739 0 731 q 79 747 46 747 q 131 738 111 747 q 150 694 150 728 q 130 647 150 657 q 76 638 110 638 z "},"÷":{"ha":753,"x_min":68,"x_max":631,"o":"m 68 301 l 631 301 l 631 228 l 68 228 l 68 301 m 271 72 q 296 129 271 118 q 356 140 321 140 q 412 128 390 140 q 433 72 433 115 q 424 25 433 39 q 396 8 414 11 q 353 4 378 4 q 312 8 331 4 q 282 25 293 11 q 271 72 271 39 m 269 450 q 294 507 269 496 q 354 518 319 518 q 412 506 390 518 q 433 450 433 494 q 423 403 433 418 q 394 385 413 389 q 353 381 376 381 q 310 385 329 381 q 281 403 292 389 q 269 450 269 418 z "},"∕":{"ha":610,"x_min":54,"x_max":556,"o":"m 54 -53 l 410 786 l 556 786 l 199 -53 l 54 -53 z "},"$":{"ha":760,"x_min":47,"x_max":717,"o":"m 92 -115 q 127 -49 108 -85 q 165 22 146 -14 q 200 88 183 57 q 108 113 142 96 q 61 165 75 129 q 47 263 47 201 q 134 263 90 263 q 221 263 178 263 q 235 215 218 232 q 285 192 253 199 q 357 183 317 185 q 408 186 383 183 q 452 197 432 189 q 485 219 472 204 q 497 258 497 235 q 483 299 497 289 q 439 310 468 310 q 351 310 394 310 q 263 310 307 310 q 178 313 217 310 q 110 328 139 315 q 65 373 81 342 q 49 460 49 404 q 91 584 49 544 q 211 635 133 624 q 394 646 289 646 q 435 645 415 646 q 474 643 454 644 q 514 722 494 683 q 554 800 533 761 l 625 800 q 584 719 604 758 q 542 639 564 679 q 642 615 608 633 q 689 560 676 596 q 701 465 701 525 q 618 465 660 465 q 533 465 576 465 q 517 510 533 493 q 470 534 500 526 q 399 542 440 542 q 330 536 361 542 q 280 516 299 531 q 261 474 261 501 q 278 434 261 443 q 324 425 294 425 q 413 425 368 425 q 503 425 457 425 q 608 416 560 425 q 687 373 657 407 q 717 264 717 339 q 685 157 717 194 q 603 105 653 119 q 494 86 553 90 q 400 81 451 82 q 268 82 349 81 l 163 -115 l 92 -115 z "},"":{"ha":785,"x_min":44,"x_max":714,"o":"m 89 -194 q 124 -128 106 -164 q 162 -58 143 -93 q 197 8 181 -22 q 106 33 139 17 q 58 86 72 50 q 44 183 44 122 q 131 183 88 183 q 218 183 175 183 q 233 136 215 153 q 282 113 250 119 q 354 104 314 106 q 405 107 381 104 q 449 117 429 110 q 482 140 469 125 q 494 179 494 156 q 480 220 494 210 q 436 231 465 231 q 348 231 392 231 q 260 231 304 231 q 175 233 214 231 q 107 249 136 236 q 62 294 78 263 q 46 381 46 325 q 88 505 46 465 q 208 556 131 544 q 392 567 286 567 q 432 566 413 567 q 471 564 451 565 q 511 643 492 604 q 551 721 531 682 l 622 721 q 581 640 601 679 q 539 560 561 600 q 640 535 606 554 q 686 481 674 517 q 699 386 699 446 q 615 386 657 386 q 531 386 574 386 q 514 431 531 414 q 467 455 497 447 q 396 463 438 463 q 327 457 358 463 q 277 437 296 451 q 258 394 258 422 q 275 355 258 364 q 321 346 292 346 q 410 346 365 346 q 500 346 454 346 q 606 337 557 346 q 684 294 654 328 q 714 185 714 260 q 682 78 714 115 q 600 26 650 40 q 492 7 550 11 q 397 2 449 3 q 265 3 346 1 l 160 -194 l 89 -194 z "},"":{"ha":600,"x_min":38,"x_max":538,"o":"m 71 -86 q 97 -37 83 -64 q 125 15 111 -11 q 151 65 139 42 q 83 84 108 71 q 48 124 58 97 q 38 196 38 150 q 103 196 71 196 q 168 196 135 196 q 178 161 165 174 q 215 143 192 149 q 269 138 239 138 q 306 140 288 138 q 340 147 325 142 q 365 164 356 153 q 374 193 374 175 q 363 224 374 217 q 331 232 353 232 q 265 232 297 232 q 199 232 232 232 q 135 234 164 232 q 84 246 106 236 q 51 278 63 256 q 39 344 39 301 q 70 436 39 407 q 160 474 101 465 q 297 483 218 483 q 327 483 313 483 q 357 481 342 482 q 387 539 372 510 q 417 599 401 568 l 469 599 q 439 537 454 567 q 408 478 424 507 q 482 460 456 474 q 518 419 508 446 q 528 347 528 392 q 464 347 494 347 q 401 347 433 347 q 388 381 400 368 q 354 399 376 393 q 300 404 332 404 q 249 401 272 406 q 211 386 225 397 q 197 353 197 375 q 210 324 197 331 q 244 318 222 318 q 311 318 278 318 q 378 318 344 318 q 456 311 419 318 q 515 278 493 304 q 538 197 538 253 q 514 117 538 144 q 453 78 490 89 q 372 65 415 68 q 301 60 340 61 q 203 61 263 60 l 124 -86 l 71 -86 z "},"":{"ha":668,"x_min":71,"x_max":572,"o":"m 104 263 q 131 311 117 285 q 159 365 144 338 q 185 414 174 392 q 117 433 142 419 q 81 474 92 447 q 71 546 71 500 q 135 546 103 546 q 201 546 168 546 q 211 510 199 522 q 248 492 224 497 q 303 486 272 488 q 341 488 322 486 q 375 497 360 490 q 399 513 390 503 q 407 543 407 524 q 397 573 407 565 q 365 581 386 581 q 299 581 332 581 q 232 581 265 581 q 169 583 197 581 q 118 595 140 585 q 83 628 96 606 q 71 694 71 651 q 103 786 71 757 q 194 824 136 815 q 331 833 251 833 q 361 833 346 833 q 390 831 376 832 q 420 890 406 860 q 451 949 435 919 l 504 949 q 474 888 489 918 q 442 828 458 858 q 516 810 490 824 q 552 769 542 796 q 563 697 563 742 q 499 697 531 697 q 436 697 467 697 q 423 731 435 718 q 388 749 411 743 q 335 754 365 754 q 283 751 307 756 q 245 735 260 746 q 231 703 231 725 q 243 674 231 681 q 278 668 256 668 q 346 668 313 668 q 411 668 379 668 q 492 660 456 668 q 550 628 528 653 q 572 547 572 603 q 549 466 572 493 q 488 428 526 439 q 407 414 450 417 q 335 410 374 410 q 236 410 296 410 l 158 263 l 104 263 z "},"₫":{"ha":749,"x_min":44,"x_max":782,"o":"m 388 743 l 482 743 l 482 854 l 690 854 l 690 743 l 782 743 l 782 667 l 690 667 l 689 279 q 676 141 689 196 q 628 55 663 86 q 529 10 593 24 q 364 -3 465 -3 q 206 7 268 -3 q 108 45 143 17 q 59 130 74 74 q 44 278 44 186 q 76 444 44 383 q 175 530 107 504 q 354 556 243 556 q 384 555 365 556 q 422 553 403 554 q 458 550 442 551 q 482 547 475 549 l 482 667 l 388 667 l 388 743 m 363 104 q 419 110 396 104 q 456 131 442 115 q 476 176 469 146 q 482 256 482 207 l 482 440 q 472 441 479 440 q 451 442 464 442 q 423 442 438 442 q 393 443 408 443 q 306 428 336 443 q 264 375 275 413 q 253 271 253 338 q 264 164 253 200 q 299 116 275 128 q 363 104 324 104 m 183 -92 l 567 -92 l 567 -144 l 183 -144 l 183 -92 z "},"˙":{"ha":199,"x_min":0,"x_max":150,"o":"m 76 636 q 22 644 43 636 q 0 688 0 651 q 23 731 0 722 q 79 739 46 739 q 131 730 111 739 q 150 688 150 721 q 130 644 150 651 q 76 636 110 636 z "},"̇":{"ha":0,"x_min":0,"x_max":150,"o":"m 76 636 q 22 644 43 636 q 0 688 0 651 q 23 731 0 722 q 79 739 46 739 q 131 730 111 739 q 150 688 150 721 q 130 644 150 651 q 76 636 110 636 z "},"̣":{"ha":0,"x_min":0,"x_max":203,"o":"m 103 -222 q 49 -218 72 -222 q 13 -200 26 -214 q 0 -156 0 -186 q 31 -99 0 -110 q 106 -87 61 -87 q 176 -99 150 -87 q 203 -156 203 -111 q 190 -200 203 -186 q 156 -218 178 -214 q 103 -222 133 -222 z "},"ʺ":{"ha":544,"x_min":-1,"x_max":376,"o":"m 58 758 l 176 758 l 90 554 l -1 554 l 58 758 m 258 758 l 376 758 l 290 554 l 199 554 l 258 758 z "},"ǆ":{"ha":1372,"x_min":44,"x_max":1353,"o":"m 876 824 l 960 824 l 1051 728 l 1139 824 l 1228 824 l 1081 639 l 1022 639 l 876 824 m 44 278 q 78 452 44 390 q 173 537 111 514 q 318 560 235 560 q 377 557 346 560 q 438 549 408 554 q 491 537 468 544 q 526 519 514 529 l 476 500 l 476 701 l 682 701 l 681 279 q 664 128 681 185 q 609 44 647 72 q 506 6 571 15 q 347 -3 442 -3 q 201 8 260 -3 q 109 50 143 19 q 60 135 75 81 q 44 278 44 189 m 357 104 q 418 111 394 104 q 454 135 442 118 q 472 181 467 151 q 476 256 476 210 l 475 440 q 452 441 467 440 q 422 442 438 442 q 390 443 406 443 q 308 430 338 443 q 265 381 278 417 q 253 275 253 346 q 263 167 253 203 q 297 117 274 131 q 357 104 321 104 m 1017 110 l 1350 110 l 1351 65 q 1337 14 1353 28 q 1281 0 1321 0 l 753 0 l 753 101 l 1056 444 l 765 444 l 765 496 q 781 539 765 524 q 817 554 796 554 l 1339 554 q 1333 501 1344 531 q 1301 442 1321 471 q 1261 390 1281 413 l 1017 110 z "},"e":{"ha":714,"x_min":44,"x_max":678,"o":"m 369 -8 q 210 3 272 -8 q 111 44 147 15 q 60 126 75 74 q 44 264 44 179 q 75 436 44 372 q 181 529 106 500 q 392 558 257 558 q 560 536 497 558 q 650 467 622 514 q 678 346 678 419 l 678 239 l 292 239 q 305 288 292 268 q 354 308 318 308 l 493 308 l 492 338 q 469 423 492 394 q 383 451 446 451 q 303 435 332 451 q 265 380 275 419 q 254 267 254 340 q 267 167 254 200 q 315 122 281 133 q 414 110 350 110 q 478 111 438 110 q 560 115 518 113 q 635 119 603 117 q 676 124 668 121 l 676 99 q 670 58 676 79 q 646 22 664 36 q 553 -3 621 3 q 369 -8 486 -8 z "},"é":{"ha":714,"x_min":44,"x_max":678,"o":"m 369 -8 q 210 3 272 -8 q 111 44 147 15 q 60 126 75 74 q 44 264 44 179 q 75 436 44 372 q 181 529 106 500 q 392 558 257 558 q 560 536 497 558 q 650 467 622 514 q 678 346 678 419 l 678 239 l 292 239 q 305 288 292 268 q 354 308 318 308 l 493 308 l 492 338 q 469 423 492 394 q 383 451 446 451 q 303 435 332 451 q 265 380 275 419 q 254 267 254 340 q 267 167 254 200 q 315 122 281 133 q 414 110 350 110 q 478 111 438 110 q 560 115 518 113 q 635 119 603 117 q 676 124 668 121 l 676 99 q 670 58 676 79 q 646 22 664 36 q 553 -3 621 3 q 369 -8 486 -8 m 311 639 l 500 818 l 594 764 l 396 639 l 311 639 z "},"ĕ":{"ha":714,"x_min":44,"x_max":678,"o":"m 369 -8 q 210 3 272 -8 q 111 44 147 15 q 60 126 75 74 q 44 264 44 179 q 75 436 44 372 q 181 529 106 500 q 392 558 257 558 q 560 536 497 558 q 650 467 622 514 q 678 346 678 419 l 678 239 l 292 239 q 305 288 292 268 q 354 308 318 308 l 493 308 l 492 338 q 469 423 492 394 q 383 451 446 451 q 303 435 332 451 q 265 380 275 419 q 254 267 254 340 q 267 167 254 200 q 315 122 281 133 q 414 110 350 110 q 478 111 438 110 q 560 115 518 113 q 635 119 603 117 q 676 124 668 121 l 676 99 q 670 58 676 79 q 646 22 664 36 q 553 -3 621 3 q 369 -8 486 -8 m 369 636 q 265 653 301 636 q 216 709 229 669 q 203 818 203 749 l 279 818 q 299 738 279 761 q 369 714 318 714 q 441 739 425 714 q 457 818 457 764 l 535 818 q 522 708 535 747 q 472 652 508 668 q 369 636 436 636 z "},"ě":{"ha":714,"x_min":44,"x_max":678,"o":"m 193 824 l 276 824 l 368 728 l 456 824 l 544 824 l 396 639 l 339 639 l 193 824 m 369 -8 q 210 3 272 -8 q 111 44 147 15 q 60 126 75 74 q 44 264 44 179 q 75 436 44 372 q 181 529 106 500 q 392 558 257 558 q 560 536 497 558 q 650 467 622 514 q 678 346 678 419 l 678 239 l 292 239 q 305 288 292 268 q 354 308 318 308 l 493 308 l 492 338 q 469 423 492 394 q 383 451 446 451 q 303 435 332 451 q 265 380 275 419 q 254 267 254 340 q 267 167 254 200 q 315 122 281 133 q 414 110 350 110 q 478 111 438 110 q 560 115 518 113 q 635 119 603 117 q 676 124 668 121 l 676 99 q 670 58 676 79 q 646 22 664 36 q 553 -3 621 3 q 369 -8 486 -8 z "},"ê":{"ha":714,"x_min":44,"x_max":678,"o":"m 369 -8 q 210 3 272 -8 q 111 44 147 15 q 60 126 75 74 q 44 264 44 179 q 75 436 44 372 q 181 529 106 500 q 392 558 257 558 q 560 536 497 558 q 650 467 622 514 q 678 346 678 419 l 678 239 l 292 239 q 305 288 292 268 q 354 308 318 308 l 493 308 l 492 338 q 469 423 492 394 q 383 451 446 451 q 303 435 332 451 q 265 380 275 419 q 254 267 254 340 q 267 167 254 200 q 315 122 281 133 q 414 110 350 110 q 478 111 438 110 q 560 115 518 113 q 635 119 603 117 q 676 124 668 121 l 676 99 q 670 58 676 79 q 646 22 664 36 q 553 -3 621 3 q 369 -8 486 -8 m 192 639 l 339 824 l 396 824 l 544 639 l 454 639 l 367 735 l 276 639 l 192 639 z "},"ế":{"ha":714,"x_min":44,"x_max":811,"o":"m 369 -8 q 210 3 272 -8 q 111 44 147 15 q 60 126 75 74 q 44 264 44 179 q 75 436 44 372 q 181 529 106 500 q 392 558 257 558 q 560 536 497 558 q 650 467 622 514 q 678 346 678 419 l 678 239 l 292 239 q 305 288 292 268 q 354 308 318 308 l 493 308 l 492 338 q 469 423 492 394 q 383 451 446 451 q 303 435 332 451 q 265 380 275 419 q 254 267 254 340 q 267 167 254 200 q 315 122 281 133 q 414 110 350 110 q 478 111 438 110 q 560 115 518 113 q 635 119 603 117 q 676 124 668 121 l 676 99 q 670 58 676 79 q 646 22 664 36 q 553 -3 621 3 q 369 -8 486 -8 m 192 639 l 339 824 l 396 824 l 544 639 l 454 639 l 367 735 l 276 639 l 192 639 m 529 774 l 718 953 l 813 899 l 614 774 l 529 774 z "},"ệ":{"ha":714,"x_min":44,"x_max":678,"o":"m 369 -8 q 210 3 272 -8 q 111 44 147 15 q 60 126 75 74 q 44 264 44 179 q 75 436 44 372 q 181 529 106 500 q 392 558 257 558 q 560 536 497 558 q 650 467 622 514 q 678 346 678 419 l 678 239 l 292 239 q 305 288 292 268 q 354 308 318 308 l 493 308 l 492 338 q 469 423 492 394 q 383 451 446 451 q 303 435 332 451 q 265 380 275 419 q 254 267 254 340 q 267 167 254 200 q 315 122 281 133 q 414 110 350 110 q 478 111 438 110 q 560 115 518 113 q 635 119 603 117 q 676 124 668 121 l 676 99 q 670 58 676 79 q 646 22 664 36 q 553 -3 621 3 q 369 -8 486 -8 m 369 -222 q 316 -218 339 -222 q 280 -200 293 -214 q 267 -156 267 -186 q 297 -99 267 -110 q 372 -87 328 -87 q 443 -99 417 -87 q 469 -156 469 -111 q 457 -200 469 -186 q 422 -218 444 -214 q 369 -222 400 -222 m 192 639 l 339 824 l 396 824 l 544 639 l 454 639 l 367 735 l 276 639 l 192 639 z "},"ề":{"ha":714,"x_min":44,"x_max":678,"o":"m 369 -8 q 210 3 272 -8 q 111 44 147 15 q 60 126 75 74 q 44 264 44 179 q 75 436 44 372 q 181 529 106 500 q 392 558 257 558 q 560 536 497 558 q 650 467 622 514 q 678 346 678 419 l 678 239 l 292 239 q 305 288 292 268 q 354 308 318 308 l 493 308 l 492 338 q 469 423 492 394 q 383 451 446 451 q 303 435 332 451 q 265 380 275 419 q 254 267 254 340 q 267 167 254 200 q 315 122 281 133 q 414 110 350 110 q 478 111 438 110 q 560 115 518 113 q 635 119 603 117 q 676 124 668 121 l 676 99 q 670 58 676 79 q 646 22 664 36 q 553 -3 621 3 q 369 -8 486 -8 m 192 639 l 339 824 l 396 824 l 544 639 l 454 639 l 367 735 l 276 639 l 192 639 m 582 774 l 385 899 l 478 953 l 668 774 l 582 774 z "},"ể":{"ha":714,"x_min":44,"x_max":696,"o":"m 369 -8 q 210 3 272 -8 q 111 44 147 15 q 60 126 75 74 q 44 264 44 179 q 75 436 44 372 q 181 529 106 500 q 392 558 257 558 q 560 536 497 558 q 650 467 622 514 q 678 346 678 419 l 678 239 l 292 239 q 305 288 292 268 q 354 308 318 308 l 493 308 l 492 338 q 469 423 492 394 q 383 451 446 451 q 303 435 332 451 q 265 380 275 419 q 254 267 254 340 q 267 167 254 200 q 315 122 281 133 q 414 110 350 110 q 478 111 438 110 q 560 115 518 113 q 635 119 603 117 q 676 124 668 121 l 676 99 q 670 58 676 79 q 646 22 664 36 q 553 -3 621 3 q 369 -8 486 -8 m 192 639 l 339 824 l 396 824 l 544 639 l 454 639 l 367 735 l 276 639 l 192 639 m 553 771 l 553 789 q 566 815 553 807 q 591 832 579 824 q 603 857 603 840 l 603 869 q 598 897 603 889 q 576 904 593 904 q 557 896 563 904 q 550 874 551 888 l 481 885 q 583 963 488 963 q 667 944 639 963 q 696 875 696 925 l 696 871 q 681 826 696 840 q 652 804 667 813 q 638 781 638 796 l 638 771 l 553 771 z "},"ễ":{"ha":714,"x_min":44,"x_max":678,"o":"m 369 -8 q 210 3 272 -8 q 111 44 147 15 q 60 126 75 74 q 44 264 44 179 q 75 436 44 372 q 181 529 106 500 q 392 558 257 558 q 560 536 497 558 q 650 467 622 514 q 678 346 678 419 l 678 239 l 292 239 q 305 288 292 268 q 354 308 318 308 l 493 308 l 492 338 q 469 423 492 394 q 383 451 446 451 q 303 435 332 451 q 265 380 275 419 q 254 267 254 340 q 267 167 254 200 q 315 122 281 133 q 414 110 350 110 q 478 111 438 110 q 560 115 518 113 q 635 119 603 117 q 676 124 668 121 l 676 99 q 670 58 676 79 q 646 22 664 36 q 553 -3 621 3 q 369 -8 486 -8 m 192 639 l 339 824 l 396 824 l 544 639 l 454 639 l 367 735 l 276 639 l 192 639 m 449 853 q 395 867 421 853 q 344 897 369 882 q 292 910 319 913 q 250 893 265 910 q 229 868 235 876 l 192 900 q 199 916 193 901 q 218 949 206 931 q 249 982 231 968 q 293 996 268 996 q 346 983 321 999 q 396 953 371 968 q 446 939 421 939 q 494 957 476 939 q 518 988 511 975 l 556 958 q 548 941 556 957 q 527 905 540 925 q 494 869 514 885 q 449 853 474 853 z "}}}
